%TF.GenerationSoftware,KiCad,Pcbnew,7.0.7*%
%TF.CreationDate,2024-08-07T00:19:32-05:00*%
%TF.ProjectId,TMS2V,544d5332-562e-46b6-9963-61645f706362,rev?*%
%TF.SameCoordinates,Original*%
%TF.FileFunction,Drillmap*%
%TF.FilePolarity,Positive*%
%FSLAX45Y45*%
G04 Gerber Fmt 4.5, Leading zero omitted, Abs format (unit mm)*
G04 Created by KiCad (PCBNEW 7.0.7) date 2024-08-07 00:19:32*
%MOMM*%
%LPD*%
G01*
G04 APERTURE LIST*
%ADD10C,0.100000*%
%ADD11C,0.200000*%
G04 APERTURE END LIST*
D10*
X11684000Y-7239000D02*
X18986500Y-7239000D01*
X18986500Y-15303500D01*
X11684000Y-15303500D01*
X11684000Y-7239000D01*
D11*
X11939777Y-15619984D02*
X11939777Y-15419984D01*
X11939777Y-15419984D02*
X11987396Y-15419984D01*
X11987396Y-15419984D02*
X12015967Y-15429508D01*
X12015967Y-15429508D02*
X12035015Y-15448555D01*
X12035015Y-15448555D02*
X12044539Y-15467603D01*
X12044539Y-15467603D02*
X12054062Y-15505698D01*
X12054062Y-15505698D02*
X12054062Y-15534269D01*
X12054062Y-15534269D02*
X12044539Y-15572365D01*
X12044539Y-15572365D02*
X12035015Y-15591412D01*
X12035015Y-15591412D02*
X12015967Y-15610460D01*
X12015967Y-15610460D02*
X11987396Y-15619984D01*
X11987396Y-15619984D02*
X11939777Y-15619984D01*
X12139777Y-15619984D02*
X12139777Y-15486650D01*
X12139777Y-15524746D02*
X12149301Y-15505698D01*
X12149301Y-15505698D02*
X12158824Y-15496174D01*
X12158824Y-15496174D02*
X12177872Y-15486650D01*
X12177872Y-15486650D02*
X12196920Y-15486650D01*
X12263586Y-15619984D02*
X12263586Y-15486650D01*
X12263586Y-15419984D02*
X12254062Y-15429508D01*
X12254062Y-15429508D02*
X12263586Y-15439031D01*
X12263586Y-15439031D02*
X12273110Y-15429508D01*
X12273110Y-15429508D02*
X12263586Y-15419984D01*
X12263586Y-15419984D02*
X12263586Y-15439031D01*
X12387396Y-15619984D02*
X12368348Y-15610460D01*
X12368348Y-15610460D02*
X12358824Y-15591412D01*
X12358824Y-15591412D02*
X12358824Y-15419984D01*
X12492158Y-15619984D02*
X12473110Y-15610460D01*
X12473110Y-15610460D02*
X12463586Y-15591412D01*
X12463586Y-15591412D02*
X12463586Y-15419984D01*
X12720729Y-15619984D02*
X12720729Y-15419984D01*
X12720729Y-15419984D02*
X12787396Y-15562841D01*
X12787396Y-15562841D02*
X12854062Y-15419984D01*
X12854062Y-15419984D02*
X12854062Y-15619984D01*
X13035015Y-15619984D02*
X13035015Y-15515222D01*
X13035015Y-15515222D02*
X13025491Y-15496174D01*
X13025491Y-15496174D02*
X13006443Y-15486650D01*
X13006443Y-15486650D02*
X12968348Y-15486650D01*
X12968348Y-15486650D02*
X12949301Y-15496174D01*
X13035015Y-15610460D02*
X13015967Y-15619984D01*
X13015967Y-15619984D02*
X12968348Y-15619984D01*
X12968348Y-15619984D02*
X12949301Y-15610460D01*
X12949301Y-15610460D02*
X12939777Y-15591412D01*
X12939777Y-15591412D02*
X12939777Y-15572365D01*
X12939777Y-15572365D02*
X12949301Y-15553317D01*
X12949301Y-15553317D02*
X12968348Y-15543793D01*
X12968348Y-15543793D02*
X13015967Y-15543793D01*
X13015967Y-15543793D02*
X13035015Y-15534269D01*
X13130253Y-15486650D02*
X13130253Y-15686650D01*
X13130253Y-15496174D02*
X13149301Y-15486650D01*
X13149301Y-15486650D02*
X13187396Y-15486650D01*
X13187396Y-15486650D02*
X13206443Y-15496174D01*
X13206443Y-15496174D02*
X13215967Y-15505698D01*
X13215967Y-15505698D02*
X13225491Y-15524746D01*
X13225491Y-15524746D02*
X13225491Y-15581888D01*
X13225491Y-15581888D02*
X13215967Y-15600936D01*
X13215967Y-15600936D02*
X13206443Y-15610460D01*
X13206443Y-15610460D02*
X13187396Y-15619984D01*
X13187396Y-15619984D02*
X13149301Y-15619984D01*
X13149301Y-15619984D02*
X13130253Y-15610460D01*
X13311205Y-15600936D02*
X13320729Y-15610460D01*
X13320729Y-15610460D02*
X13311205Y-15619984D01*
X13311205Y-15619984D02*
X13301682Y-15610460D01*
X13301682Y-15610460D02*
X13311205Y-15600936D01*
X13311205Y-15600936D02*
X13311205Y-15619984D01*
X13311205Y-15496174D02*
X13320729Y-15505698D01*
X13320729Y-15505698D02*
X13311205Y-15515222D01*
X13311205Y-15515222D02*
X13301682Y-15505698D01*
X13301682Y-15505698D02*
X13311205Y-15496174D01*
X13311205Y-15496174D02*
X13311205Y-15515222D01*
M02*
