%TF.GenerationSoftware,KiCad,Pcbnew,7.0.7*%
%TF.CreationDate,2024-08-07T00:19:32-05:00*%
%TF.ProjectId,TMS2V,544d5332-562e-46b6-9963-61645f706362,rev?*%
%TF.SameCoordinates,Original*%
%TF.FileFunction,Drillmap*%
%TF.FilePolarity,Positive*%
%FSLAX45Y45*%
G04 Gerber Fmt 4.5, Leading zero omitted, Abs format (unit mm)*
G04 Created by KiCad (PCBNEW 7.0.7) date 2024-08-07 00:19:32*
%MOMM*%
%LPD*%
G01*
G04 APERTURE LIST*
%ADD10C,0.100000*%
%ADD11C,0.200000*%
%ADD12C,0.040000*%
%ADD13C,0.070000*%
%ADD14C,0.075000*%
%ADD15C,0.080000*%
%ADD16C,0.150000*%
G04 APERTURE END LIST*
D10*
X11684000Y-7239000D02*
X18986500Y-7239000D01*
X18986500Y-15303500D01*
X11684000Y-15303500D01*
X11684000Y-7239000D01*
D11*
D12*
X12571650Y-11401350D02*
X12611650Y-11441350D01*
X12611650Y-11401350D02*
X12571650Y-11441350D01*
X14093320Y-13331350D02*
X14133320Y-13371350D01*
X14133320Y-13331350D02*
X14093320Y-13371350D01*
X14412180Y-13503280D02*
X14452180Y-13543280D01*
X14452180Y-13503280D02*
X14412180Y-13543280D01*
X14430400Y-13401300D02*
X14470400Y-13441300D01*
X14470400Y-13401300D02*
X14430400Y-13441300D01*
X15212570Y-12702630D02*
X15252570Y-12742630D01*
X15252570Y-12702630D02*
X15212570Y-12742630D01*
X16326940Y-9197630D02*
X16366940Y-9237630D01*
X16366940Y-9197630D02*
X16326940Y-9237630D01*
X16371030Y-13030060D02*
X16411030Y-13070060D01*
X16411030Y-13030060D02*
X16371030Y-13070060D01*
X16607480Y-13035590D02*
X16647480Y-13075590D01*
X16647480Y-13035590D02*
X16607480Y-13075590D01*
X16621350Y-11135560D02*
X16661350Y-11175560D01*
X16661350Y-11135560D02*
X16621350Y-11175560D01*
X16625940Y-10983220D02*
X16665940Y-11023220D01*
X16665940Y-10983220D02*
X16625940Y-11023220D01*
X17225640Y-11322650D02*
X17265640Y-11362650D01*
X17265640Y-11322650D02*
X17225640Y-11362650D01*
X17298190Y-12574830D02*
X17338190Y-12614830D01*
X17338190Y-12574830D02*
X17298190Y-12614830D01*
X17377010Y-11284700D02*
X17417010Y-11324700D01*
X17417010Y-11284700D02*
X17377010Y-11324700D01*
X17421890Y-10656850D02*
X17461890Y-10696850D01*
X17461890Y-10656850D02*
X17421890Y-10696850D01*
X17430900Y-11034020D02*
X17470900Y-11074020D01*
X17470900Y-11034020D02*
X17430900Y-11074020D01*
X17934160Y-11264000D02*
X17974160Y-11304000D01*
X17974160Y-11264000D02*
X17934160Y-11304000D01*
D13*
X14322500Y-7550500D02*
G75*
G03*
X14322500Y-7550500I-35000J0D01*
G01*
X14322500Y-7728500D02*
G75*
G03*
X14322500Y-7728500I-35000J0D01*
G01*
X14322500Y-7906500D02*
G75*
G03*
X14322500Y-7906500I-35000J0D01*
G01*
X14322500Y-8084500D02*
G75*
G03*
X14322500Y-8084500I-35000J0D01*
G01*
X14322500Y-8262500D02*
G75*
G03*
X14322500Y-8262500I-35000J0D01*
G01*
X14322500Y-8440500D02*
G75*
G03*
X14322500Y-8440500I-35000J0D01*
G01*
X14322500Y-8618500D02*
G75*
G03*
X14322500Y-8618500I-35000J0D01*
G01*
X14322500Y-8796500D02*
G75*
G03*
X14322500Y-8796500I-35000J0D01*
G01*
X14322500Y-8974500D02*
G75*
G03*
X14322500Y-8974500I-35000J0D01*
G01*
X14322500Y-9152500D02*
G75*
G03*
X14322500Y-9152500I-35000J0D01*
G01*
X14322500Y-9330500D02*
G75*
G03*
X14322500Y-9330500I-35000J0D01*
G01*
X14322500Y-9508500D02*
G75*
G03*
X14322500Y-9508500I-35000J0D01*
G01*
X14322500Y-9686500D02*
G75*
G03*
X14322500Y-9686500I-35000J0D01*
G01*
X14322500Y-9864500D02*
G75*
G03*
X14322500Y-9864500I-35000J0D01*
G01*
X14322500Y-10042500D02*
G75*
G03*
X14322500Y-10042500I-35000J0D01*
G01*
X14322500Y-10220500D02*
G75*
G03*
X14322500Y-10220500I-35000J0D01*
G01*
X14322500Y-10398500D02*
G75*
G03*
X14322500Y-10398500I-35000J0D01*
G01*
X14322500Y-10576500D02*
G75*
G03*
X14322500Y-10576500I-35000J0D01*
G01*
X14322500Y-10754500D02*
G75*
G03*
X14322500Y-10754500I-35000J0D01*
G01*
X14322500Y-10932500D02*
G75*
G03*
X14322500Y-10932500I-35000J0D01*
G01*
X14322500Y-11110500D02*
G75*
G03*
X14322500Y-11110500I-35000J0D01*
G01*
X14322500Y-11288500D02*
G75*
G03*
X14322500Y-11288500I-35000J0D01*
G01*
X14322500Y-11466500D02*
G75*
G03*
X14322500Y-11466500I-35000J0D01*
G01*
X14322500Y-11644500D02*
G75*
G03*
X14322500Y-11644500I-35000J0D01*
G01*
X14322500Y-11822500D02*
G75*
G03*
X14322500Y-11822500I-35000J0D01*
G01*
X14322500Y-12000500D02*
G75*
G03*
X14322500Y-12000500I-35000J0D01*
G01*
X14322500Y-12178500D02*
G75*
G03*
X14322500Y-12178500I-35000J0D01*
G01*
X14322500Y-12356500D02*
G75*
G03*
X14322500Y-12356500I-35000J0D01*
G01*
X14322500Y-12534500D02*
G75*
G03*
X14322500Y-12534500I-35000J0D01*
G01*
X14322500Y-12712500D02*
G75*
G03*
X14322500Y-12712500I-35000J0D01*
G01*
X14322500Y-12890500D02*
G75*
G03*
X14322500Y-12890500I-35000J0D01*
G01*
X14322500Y-13068500D02*
G75*
G03*
X14322500Y-13068500I-35000J0D01*
G01*
X16232580Y-7550500D02*
G75*
G03*
X16232580Y-7550500I-35000J0D01*
G01*
X16232580Y-7728500D02*
G75*
G03*
X16232580Y-7728500I-35000J0D01*
G01*
X16232580Y-7906500D02*
G75*
G03*
X16232580Y-7906500I-35000J0D01*
G01*
X16232580Y-8084500D02*
G75*
G03*
X16232580Y-8084500I-35000J0D01*
G01*
X16232580Y-8262500D02*
G75*
G03*
X16232580Y-8262500I-35000J0D01*
G01*
X16232580Y-8440500D02*
G75*
G03*
X16232580Y-8440500I-35000J0D01*
G01*
X16232580Y-8618500D02*
G75*
G03*
X16232580Y-8618500I-35000J0D01*
G01*
X16232580Y-8796500D02*
G75*
G03*
X16232580Y-8796500I-35000J0D01*
G01*
X16232580Y-8974500D02*
G75*
G03*
X16232580Y-8974500I-35000J0D01*
G01*
X16232580Y-9152500D02*
G75*
G03*
X16232580Y-9152500I-35000J0D01*
G01*
X16232580Y-9330500D02*
G75*
G03*
X16232580Y-9330500I-35000J0D01*
G01*
X16232580Y-9508500D02*
G75*
G03*
X16232580Y-9508500I-35000J0D01*
G01*
X16232580Y-9686500D02*
G75*
G03*
X16232580Y-9686500I-35000J0D01*
G01*
X16232580Y-9864500D02*
G75*
G03*
X16232580Y-9864500I-35000J0D01*
G01*
X16232580Y-10042500D02*
G75*
G03*
X16232580Y-10042500I-35000J0D01*
G01*
X16232580Y-10220500D02*
G75*
G03*
X16232580Y-10220500I-35000J0D01*
G01*
X16232580Y-10398500D02*
G75*
G03*
X16232580Y-10398500I-35000J0D01*
G01*
X16232580Y-10576500D02*
G75*
G03*
X16232580Y-10576500I-35000J0D01*
G01*
X16232580Y-10754500D02*
G75*
G03*
X16232580Y-10754500I-35000J0D01*
G01*
X16232580Y-10932500D02*
G75*
G03*
X16232580Y-10932500I-35000J0D01*
G01*
X16232580Y-11110500D02*
G75*
G03*
X16232580Y-11110500I-35000J0D01*
G01*
X16232580Y-11288500D02*
G75*
G03*
X16232580Y-11288500I-35000J0D01*
G01*
X16232580Y-11466500D02*
G75*
G03*
X16232580Y-11466500I-35000J0D01*
G01*
X16232580Y-11644500D02*
G75*
G03*
X16232580Y-11644500I-35000J0D01*
G01*
X16232580Y-11822500D02*
G75*
G03*
X16232580Y-11822500I-35000J0D01*
G01*
X16232580Y-12000500D02*
G75*
G03*
X16232580Y-12000500I-35000J0D01*
G01*
X16232580Y-12178500D02*
G75*
G03*
X16232580Y-12178500I-35000J0D01*
G01*
X16232580Y-12356500D02*
G75*
G03*
X16232580Y-12356500I-35000J0D01*
G01*
X16232580Y-12534500D02*
G75*
G03*
X16232580Y-12534500I-35000J0D01*
G01*
X16232580Y-12712500D02*
G75*
G03*
X16232580Y-12712500I-35000J0D01*
G01*
X16232580Y-12890500D02*
G75*
G03*
X16232580Y-12890500I-35000J0D01*
G01*
X16232580Y-13068500D02*
G75*
G03*
X16232580Y-13068500I-35000J0D01*
G01*
D14*
X14414500Y-13678500D02*
X14414500Y-13753500D01*
X14377000Y-13716000D02*
X14452000Y-13716000D01*
X14541500Y-13678500D02*
X14541500Y-13753500D01*
X14504000Y-13716000D02*
X14579000Y-13716000D01*
X14668500Y-13678500D02*
X14668500Y-13753500D01*
X14631000Y-13716000D02*
X14706000Y-13716000D01*
X15049500Y-13678500D02*
X15049500Y-13753500D01*
X15012000Y-13716000D02*
X15087000Y-13716000D01*
X15176500Y-13678500D02*
X15176500Y-13753500D01*
X15139000Y-13716000D02*
X15214000Y-13716000D01*
X15303500Y-13678500D02*
X15303500Y-13753500D01*
X15266000Y-13716000D02*
X15341000Y-13716000D01*
X15684500Y-13678500D02*
X15684500Y-13753500D01*
X15647000Y-13716000D02*
X15722000Y-13716000D01*
X15811500Y-13678500D02*
X15811500Y-13753500D01*
X15774000Y-13716000D02*
X15849000Y-13716000D01*
X15938500Y-13678500D02*
X15938500Y-13753500D01*
X15901000Y-13716000D02*
X15976000Y-13716000D01*
X16319500Y-13678500D02*
X16319500Y-13753500D01*
X16282000Y-13716000D02*
X16357000Y-13716000D01*
X16446500Y-13678500D02*
X16446500Y-13753500D01*
X16409000Y-13716000D02*
X16484000Y-13716000D01*
X16573500Y-13678500D02*
X16573500Y-13753500D01*
X16536000Y-13716000D02*
X16611000Y-13716000D01*
D15*
X12728284Y-7838784D02*
X12728284Y-7782215D01*
X12671715Y-7782215D01*
X12671715Y-7838784D01*
X12728284Y-7838784D01*
X12728284Y-8092784D02*
X12728284Y-8036215D01*
X12671715Y-8036215D01*
X12671715Y-8092784D01*
X12728284Y-8092784D01*
X12728284Y-8346784D02*
X12728284Y-8290215D01*
X12671715Y-8290215D01*
X12671715Y-8346784D01*
X12728284Y-8346784D01*
X12728284Y-8600785D02*
X12728284Y-8544216D01*
X12671715Y-8544216D01*
X12671715Y-8600785D01*
X12728284Y-8600785D01*
X12728284Y-8854785D02*
X12728284Y-8798216D01*
X12671715Y-8798216D01*
X12671715Y-8854785D01*
X12728284Y-8854785D01*
X12728284Y-9108785D02*
X12728284Y-9052216D01*
X12671715Y-9052216D01*
X12671715Y-9108785D01*
X12728284Y-9108785D01*
X12728284Y-9362785D02*
X12728284Y-9306216D01*
X12671715Y-9306216D01*
X12671715Y-9362785D01*
X12728284Y-9362785D01*
X12728284Y-9616785D02*
X12728284Y-9560216D01*
X12671715Y-9560216D01*
X12671715Y-9616785D01*
X12728284Y-9616785D01*
X12728284Y-9870785D02*
X12728284Y-9814216D01*
X12671715Y-9814216D01*
X12671715Y-9870785D01*
X12728284Y-9870785D01*
X13363284Y-7838784D02*
X13363284Y-7782215D01*
X13306715Y-7782215D01*
X13306715Y-7838784D01*
X13363284Y-7838784D01*
X13363284Y-8092784D02*
X13363284Y-8036215D01*
X13306715Y-8036215D01*
X13306715Y-8092784D01*
X13363284Y-8092784D01*
X13363284Y-8346784D02*
X13363284Y-8290215D01*
X13306715Y-8290215D01*
X13306715Y-8346784D01*
X13363284Y-8346784D01*
X13363284Y-8600785D02*
X13363284Y-8544216D01*
X13306715Y-8544216D01*
X13306715Y-8600785D01*
X13363284Y-8600785D01*
X13363284Y-8854785D02*
X13363284Y-8798216D01*
X13306715Y-8798216D01*
X13306715Y-8854785D01*
X13363284Y-8854785D01*
X13363284Y-9108785D02*
X13363284Y-9052216D01*
X13306715Y-9052216D01*
X13306715Y-9108785D01*
X13363284Y-9108785D01*
X13363284Y-9362785D02*
X13363284Y-9306216D01*
X13306715Y-9306216D01*
X13306715Y-9362785D01*
X13363284Y-9362785D01*
X13363284Y-9616785D02*
X13363284Y-9560216D01*
X13306715Y-9560216D01*
X13306715Y-9616785D01*
X13363284Y-9616785D01*
X13363284Y-9870785D02*
X13363284Y-9814216D01*
X13306715Y-9814216D01*
X13306715Y-9870785D01*
X13363284Y-9870785D01*
X14442784Y-14315784D02*
X14442784Y-14259215D01*
X14386215Y-14259215D01*
X14386215Y-14315784D01*
X14442784Y-14315784D01*
X14442784Y-14633284D02*
X14442784Y-14576715D01*
X14386215Y-14576715D01*
X14386215Y-14633284D01*
X14442784Y-14633284D01*
X15204784Y-14315784D02*
X15204784Y-14259215D01*
X15148215Y-14259215D01*
X15148215Y-14315784D01*
X15204784Y-14315784D01*
X15204784Y-14633284D02*
X15204784Y-14576715D01*
X15148215Y-14576715D01*
X15148215Y-14633284D01*
X15204784Y-14633284D01*
X15458784Y-14315784D02*
X15458784Y-14259215D01*
X15402215Y-14259215D01*
X15402215Y-14315784D01*
X15458784Y-14315784D01*
X15458784Y-14633284D02*
X15458784Y-14576715D01*
X15402215Y-14576715D01*
X15402215Y-14633284D01*
X15458784Y-14633284D01*
X16220784Y-14315784D02*
X16220784Y-14259215D01*
X16164215Y-14259215D01*
X16164215Y-14315784D01*
X16220784Y-14315784D01*
X16220784Y-14633284D02*
X16220784Y-14576715D01*
X16164215Y-14576715D01*
X16164215Y-14633284D01*
X16220784Y-14633284D01*
X16538284Y-7842784D02*
X16538284Y-7786215D01*
X16481715Y-7786215D01*
X16481715Y-7842784D01*
X16538284Y-7842784D01*
X16538284Y-8342784D02*
X16538284Y-8286215D01*
X16481715Y-8286215D01*
X16481715Y-8342784D01*
X16538284Y-8342784D01*
X16538284Y-8600785D02*
X16538284Y-8544216D01*
X16481715Y-8544216D01*
X16481715Y-8600785D01*
X16538284Y-8600785D01*
X16538284Y-9362785D02*
X16538284Y-9306216D01*
X16481715Y-9306216D01*
X16481715Y-9362785D01*
X16538284Y-9362785D01*
X16538284Y-9616785D02*
X16538284Y-9560216D01*
X16481715Y-9560216D01*
X16481715Y-9616785D01*
X16538284Y-9616785D01*
X16538284Y-10378785D02*
X16538284Y-10322216D01*
X16481715Y-10322216D01*
X16481715Y-10378785D01*
X16538284Y-10378785D01*
X16538284Y-10632785D02*
X16538284Y-10576216D01*
X16481715Y-10576216D01*
X16481715Y-10632785D01*
X16538284Y-10632785D01*
X16538284Y-11394784D02*
X16538284Y-11338215D01*
X16481715Y-11338215D01*
X16481715Y-11394784D01*
X16538284Y-11394784D01*
X16538284Y-11648784D02*
X16538284Y-11592215D01*
X16481715Y-11592215D01*
X16481715Y-11648784D01*
X16538284Y-11648784D01*
X16538284Y-12410784D02*
X16538284Y-12354215D01*
X16481715Y-12354215D01*
X16481715Y-12410784D01*
X16538284Y-12410784D01*
X16538284Y-12664784D02*
X16538284Y-12608215D01*
X16481715Y-12608215D01*
X16481715Y-12664784D01*
X16538284Y-12664784D01*
X16538284Y-13164784D02*
X16538284Y-13108215D01*
X16481715Y-13108215D01*
X16481715Y-13164784D01*
X16538284Y-13164784D01*
X16728784Y-14442784D02*
X16728784Y-14386215D01*
X16672215Y-14386215D01*
X16672215Y-14442784D01*
X16728784Y-14442784D01*
X16728784Y-14950784D02*
X16728784Y-14894215D01*
X16672215Y-14894215D01*
X16672215Y-14950784D01*
X16728784Y-14950784D01*
X16919285Y-8600785D02*
X16919285Y-8544216D01*
X16862716Y-8544216D01*
X16862716Y-8600785D01*
X16919285Y-8600785D01*
X16919285Y-8854785D02*
X16919285Y-8798216D01*
X16862716Y-8798216D01*
X16862716Y-8854785D01*
X16919285Y-8854785D01*
X16919285Y-9108785D02*
X16919285Y-9052216D01*
X16862716Y-9052216D01*
X16862716Y-9108785D01*
X16919285Y-9108785D01*
X16919285Y-9362785D02*
X16919285Y-9306216D01*
X16862716Y-9306216D01*
X16862716Y-9362785D01*
X16919285Y-9362785D01*
X16919285Y-9616785D02*
X16919285Y-9560216D01*
X16862716Y-9560216D01*
X16862716Y-9616785D01*
X16919285Y-9616785D01*
X16919285Y-9870785D02*
X16919285Y-9814216D01*
X16862716Y-9814216D01*
X16862716Y-9870785D01*
X16919285Y-9870785D01*
X16919285Y-10124785D02*
X16919285Y-10068216D01*
X16862716Y-10068216D01*
X16862716Y-10124785D01*
X16919285Y-10124785D01*
X16919285Y-10378785D02*
X16919285Y-10322216D01*
X16862716Y-10322216D01*
X16862716Y-10378785D01*
X16919285Y-10378785D01*
X16919285Y-10632785D02*
X16919285Y-10576216D01*
X16862716Y-10576216D01*
X16862716Y-10632785D01*
X16919285Y-10632785D01*
X16923285Y-11458284D02*
X16923285Y-11401715D01*
X16866716Y-11401715D01*
X16866716Y-11458284D01*
X16923285Y-11458284D01*
X16923285Y-11712284D02*
X16923285Y-11655715D01*
X16866716Y-11655715D01*
X16866716Y-11712284D01*
X16923285Y-11712284D01*
X16923285Y-11966284D02*
X16923285Y-11909715D01*
X16866716Y-11909715D01*
X16866716Y-11966284D01*
X16923285Y-11966284D01*
X16923285Y-12220284D02*
X16923285Y-12163715D01*
X16866716Y-12163715D01*
X16866716Y-12220284D01*
X16923285Y-12220284D01*
X16923285Y-12474284D02*
X16923285Y-12417715D01*
X16866716Y-12417715D01*
X16866716Y-12474284D01*
X16923285Y-12474284D01*
X16923285Y-12728284D02*
X16923285Y-12671715D01*
X16866716Y-12671715D01*
X16866716Y-12728284D01*
X16923285Y-12728284D01*
X16923285Y-12982284D02*
X16923285Y-12925715D01*
X16866716Y-12925715D01*
X16866716Y-12982284D01*
X16923285Y-12982284D01*
X16923285Y-13236284D02*
X16923285Y-13179715D01*
X16866716Y-13179715D01*
X16866716Y-13236284D01*
X16923285Y-13236284D01*
X16923285Y-13490284D02*
X16923285Y-13433715D01*
X16866716Y-13433715D01*
X16866716Y-13490284D01*
X16923285Y-13490284D01*
X17046285Y-10950285D02*
X17046285Y-10893716D01*
X16989716Y-10893716D01*
X16989716Y-10950285D01*
X17046285Y-10950285D01*
X17054285Y-13807784D02*
X17054285Y-13751215D01*
X16997716Y-13751215D01*
X16997716Y-13807784D01*
X17054285Y-13807784D01*
X17169285Y-7838784D02*
X17169285Y-7782215D01*
X17112716Y-7782215D01*
X17112716Y-7838784D01*
X17169285Y-7838784D01*
X17490785Y-14442784D02*
X17490785Y-14386215D01*
X17434216Y-14386215D01*
X17434216Y-14442784D01*
X17490785Y-14442784D01*
X17490785Y-14950784D02*
X17490785Y-14894215D01*
X17434216Y-14894215D01*
X17434216Y-14950784D01*
X17490785Y-14950784D01*
X17546285Y-10950285D02*
X17546285Y-10893716D01*
X17489716Y-10893716D01*
X17489716Y-10950285D01*
X17546285Y-10950285D01*
X17554285Y-13807784D02*
X17554285Y-13751215D01*
X17497716Y-13751215D01*
X17497716Y-13807784D01*
X17554285Y-13807784D01*
X17657285Y-7838784D02*
X17657285Y-7782215D01*
X17600716Y-7782215D01*
X17600716Y-7838784D01*
X17657285Y-7838784D01*
X17681285Y-8600785D02*
X17681285Y-8544216D01*
X17624716Y-8544216D01*
X17624716Y-8600785D01*
X17681285Y-8600785D01*
X17681285Y-8854785D02*
X17681285Y-8798216D01*
X17624716Y-8798216D01*
X17624716Y-8854785D01*
X17681285Y-8854785D01*
X17681285Y-9108785D02*
X17681285Y-9052216D01*
X17624716Y-9052216D01*
X17624716Y-9108785D01*
X17681285Y-9108785D01*
X17681285Y-9362785D02*
X17681285Y-9306216D01*
X17624716Y-9306216D01*
X17624716Y-9362785D01*
X17681285Y-9362785D01*
X17681285Y-9616785D02*
X17681285Y-9560216D01*
X17624716Y-9560216D01*
X17624716Y-9616785D01*
X17681285Y-9616785D01*
X17681285Y-9870785D02*
X17681285Y-9814216D01*
X17624716Y-9814216D01*
X17624716Y-9870785D01*
X17681285Y-9870785D01*
X17681285Y-10124785D02*
X17681285Y-10068216D01*
X17624716Y-10068216D01*
X17624716Y-10124785D01*
X17681285Y-10124785D01*
X17681285Y-10378785D02*
X17681285Y-10322216D01*
X17624716Y-10322216D01*
X17624716Y-10378785D01*
X17681285Y-10378785D01*
X17681285Y-10632785D02*
X17681285Y-10576216D01*
X17624716Y-10576216D01*
X17624716Y-10632785D01*
X17681285Y-10632785D01*
X17685285Y-11458284D02*
X17685285Y-11401715D01*
X17628716Y-11401715D01*
X17628716Y-11458284D01*
X17685285Y-11458284D01*
X17685285Y-11712284D02*
X17685285Y-11655715D01*
X17628716Y-11655715D01*
X17628716Y-11712284D01*
X17685285Y-11712284D01*
X17685285Y-11966284D02*
X17685285Y-11909715D01*
X17628716Y-11909715D01*
X17628716Y-11966284D01*
X17685285Y-11966284D01*
X17685285Y-12220284D02*
X17685285Y-12163715D01*
X17628716Y-12163715D01*
X17628716Y-12220284D01*
X17685285Y-12220284D01*
X17685285Y-12474284D02*
X17685285Y-12417715D01*
X17628716Y-12417715D01*
X17628716Y-12474284D01*
X17685285Y-12474284D01*
X17685285Y-12728284D02*
X17685285Y-12671715D01*
X17628716Y-12671715D01*
X17628716Y-12728284D01*
X17685285Y-12728284D01*
X17685285Y-12982284D02*
X17685285Y-12925715D01*
X17628716Y-12925715D01*
X17628716Y-12982284D01*
X17685285Y-12982284D01*
X17685285Y-13236284D02*
X17685285Y-13179715D01*
X17628716Y-13179715D01*
X17628716Y-13236284D01*
X17685285Y-13236284D01*
X17685285Y-13490284D02*
X17685285Y-13433715D01*
X17628716Y-13433715D01*
X17628716Y-13490284D01*
X17685285Y-13490284D01*
X17998785Y-8600785D02*
X17998785Y-8544216D01*
X17942216Y-8544216D01*
X17942216Y-8600785D01*
X17998785Y-8600785D01*
X17998785Y-8854785D02*
X17998785Y-8798216D01*
X17942216Y-8798216D01*
X17942216Y-8854785D01*
X17998785Y-8854785D01*
X17998785Y-9108785D02*
X17998785Y-9052216D01*
X17942216Y-9052216D01*
X17942216Y-9108785D01*
X17998785Y-9108785D01*
X17998785Y-9362785D02*
X17998785Y-9306216D01*
X17942216Y-9306216D01*
X17942216Y-9362785D01*
X17998785Y-9362785D01*
X17998785Y-9616785D02*
X17998785Y-9560216D01*
X17942216Y-9560216D01*
X17942216Y-9616785D01*
X17998785Y-9616785D01*
X17998785Y-9870785D02*
X17998785Y-9814216D01*
X17942216Y-9814216D01*
X17942216Y-9870785D01*
X17998785Y-9870785D01*
X17998785Y-10124785D02*
X17998785Y-10068216D01*
X17942216Y-10068216D01*
X17942216Y-10124785D01*
X17998785Y-10124785D01*
X17998785Y-10378785D02*
X17998785Y-10322216D01*
X17942216Y-10322216D01*
X17942216Y-10378785D01*
X17998785Y-10378785D01*
X17998785Y-10632785D02*
X17998785Y-10576216D01*
X17942216Y-10576216D01*
X17942216Y-10632785D01*
X17998785Y-10632785D01*
X17998785Y-14442784D02*
X17998785Y-14386215D01*
X17942216Y-14386215D01*
X17942216Y-14442784D01*
X17998785Y-14442784D01*
X17998785Y-14950784D02*
X17998785Y-14894215D01*
X17942216Y-14894215D01*
X17942216Y-14950784D01*
X17998785Y-14950784D01*
X18002785Y-11458284D02*
X18002785Y-11401715D01*
X17946216Y-11401715D01*
X17946216Y-11458284D01*
X18002785Y-11458284D01*
X18002785Y-11712284D02*
X18002785Y-11655715D01*
X17946216Y-11655715D01*
X17946216Y-11712284D01*
X18002785Y-11712284D01*
X18002785Y-11966284D02*
X18002785Y-11909715D01*
X17946216Y-11909715D01*
X17946216Y-11966284D01*
X18002785Y-11966284D01*
X18002785Y-12220284D02*
X18002785Y-12163715D01*
X17946216Y-12163715D01*
X17946216Y-12220284D01*
X18002785Y-12220284D01*
X18002785Y-12474284D02*
X18002785Y-12417715D01*
X17946216Y-12417715D01*
X17946216Y-12474284D01*
X18002785Y-12474284D01*
X18002785Y-12728284D02*
X18002785Y-12671715D01*
X17946216Y-12671715D01*
X17946216Y-12728284D01*
X18002785Y-12728284D01*
X18002785Y-12982284D02*
X18002785Y-12925715D01*
X17946216Y-12925715D01*
X17946216Y-12982284D01*
X18002785Y-12982284D01*
X18002785Y-13236284D02*
X18002785Y-13179715D01*
X17946216Y-13179715D01*
X17946216Y-13236284D01*
X18002785Y-13236284D01*
X18002785Y-13490284D02*
X18002785Y-13433715D01*
X17946216Y-13433715D01*
X17946216Y-13490284D01*
X18002785Y-13490284D01*
X18125785Y-7711784D02*
X18125785Y-7655215D01*
X18069216Y-7655215D01*
X18069216Y-7711784D01*
X18125785Y-7711784D01*
X18125785Y-8029284D02*
X18125785Y-7972715D01*
X18069216Y-7972715D01*
X18069216Y-8029284D01*
X18125785Y-8029284D01*
X18129785Y-10950285D02*
X18129785Y-10893716D01*
X18073216Y-10893716D01*
X18073216Y-10950285D01*
X18129785Y-10950285D01*
X18133785Y-13807784D02*
X18133785Y-13751215D01*
X18077216Y-13751215D01*
X18077216Y-13807784D01*
X18133785Y-13807784D01*
X18625785Y-7711784D02*
X18625785Y-7655215D01*
X18569216Y-7655215D01*
X18569216Y-7711784D01*
X18625785Y-7711784D01*
X18625785Y-8029284D02*
X18625785Y-7972715D01*
X18569216Y-7972715D01*
X18569216Y-8029284D01*
X18625785Y-8029284D01*
X18629785Y-10950285D02*
X18629785Y-10893716D01*
X18573216Y-10893716D01*
X18573216Y-10950285D01*
X18629785Y-10950285D01*
X18633785Y-13807784D02*
X18633785Y-13751215D01*
X18577216Y-13751215D01*
X18577216Y-13807784D01*
X18633785Y-13807784D01*
X18760785Y-8600785D02*
X18760785Y-8544216D01*
X18704216Y-8544216D01*
X18704216Y-8600785D01*
X18760785Y-8600785D01*
X18760785Y-8854785D02*
X18760785Y-8798216D01*
X18704216Y-8798216D01*
X18704216Y-8854785D01*
X18760785Y-8854785D01*
X18760785Y-9108785D02*
X18760785Y-9052216D01*
X18704216Y-9052216D01*
X18704216Y-9108785D01*
X18760785Y-9108785D01*
X18760785Y-9362785D02*
X18760785Y-9306216D01*
X18704216Y-9306216D01*
X18704216Y-9362785D01*
X18760785Y-9362785D01*
X18760785Y-9616785D02*
X18760785Y-9560216D01*
X18704216Y-9560216D01*
X18704216Y-9616785D01*
X18760785Y-9616785D01*
X18760785Y-9870785D02*
X18760785Y-9814216D01*
X18704216Y-9814216D01*
X18704216Y-9870785D01*
X18760785Y-9870785D01*
X18760785Y-10124785D02*
X18760785Y-10068216D01*
X18704216Y-10068216D01*
X18704216Y-10124785D01*
X18760785Y-10124785D01*
X18760785Y-10378785D02*
X18760785Y-10322216D01*
X18704216Y-10322216D01*
X18704216Y-10378785D01*
X18760785Y-10378785D01*
X18760785Y-10632785D02*
X18760785Y-10576216D01*
X18704216Y-10576216D01*
X18704216Y-10632785D01*
X18760785Y-10632785D01*
X18760785Y-14442784D02*
X18760785Y-14386215D01*
X18704216Y-14386215D01*
X18704216Y-14442784D01*
X18760785Y-14442784D01*
X18760785Y-14950784D02*
X18760785Y-14894215D01*
X18704216Y-14894215D01*
X18704216Y-14950784D01*
X18760785Y-14950784D01*
X18764785Y-11458284D02*
X18764785Y-11401715D01*
X18708216Y-11401715D01*
X18708216Y-11458284D01*
X18764785Y-11458284D01*
X18764785Y-11712284D02*
X18764785Y-11655715D01*
X18708216Y-11655715D01*
X18708216Y-11712284D01*
X18764785Y-11712284D01*
X18764785Y-11966284D02*
X18764785Y-11909715D01*
X18708216Y-11909715D01*
X18708216Y-11966284D01*
X18764785Y-11966284D01*
X18764785Y-12220284D02*
X18764785Y-12163715D01*
X18708216Y-12163715D01*
X18708216Y-12220284D01*
X18764785Y-12220284D01*
X18764785Y-12474284D02*
X18764785Y-12417715D01*
X18708216Y-12417715D01*
X18708216Y-12474284D01*
X18764785Y-12474284D01*
X18764785Y-12728284D02*
X18764785Y-12671715D01*
X18708216Y-12671715D01*
X18708216Y-12728284D01*
X18764785Y-12728284D01*
X18764785Y-12982284D02*
X18764785Y-12925715D01*
X18708216Y-12925715D01*
X18708216Y-12982284D01*
X18764785Y-12982284D01*
X18764785Y-13236284D02*
X18764785Y-13179715D01*
X18708216Y-13179715D01*
X18708216Y-13236284D01*
X18764785Y-13236284D01*
X18764785Y-13490284D02*
X18764785Y-13433715D01*
X18708216Y-13433715D01*
X18708216Y-13490284D01*
X18764785Y-13490284D01*
D10*
X12255500Y-7606500D02*
X12305500Y-7556500D01*
X12255500Y-7506500D01*
X12205500Y-7556500D01*
X12255500Y-7606500D01*
X12255500Y-7860500D02*
X12305500Y-7810500D01*
X12255500Y-7760500D01*
X12205500Y-7810500D01*
X12255500Y-7860500D01*
X12255500Y-8114500D02*
X12305500Y-8064500D01*
X12255500Y-8014500D01*
X12205500Y-8064500D01*
X12255500Y-8114500D01*
X12255500Y-8368500D02*
X12305500Y-8318500D01*
X12255500Y-8268500D01*
X12205500Y-8318500D01*
X12255500Y-8368500D01*
X12255500Y-8622500D02*
X12305500Y-8572500D01*
X12255500Y-8522500D01*
X12205500Y-8572500D01*
X12255500Y-8622500D01*
X12255500Y-8876500D02*
X12305500Y-8826500D01*
X12255500Y-8776500D01*
X12205500Y-8826500D01*
X12255500Y-8876500D01*
X12255500Y-9130500D02*
X12305500Y-9080500D01*
X12255500Y-9030500D01*
X12205500Y-9080500D01*
X12255500Y-9130500D01*
X12255500Y-9384500D02*
X12305500Y-9334500D01*
X12255500Y-9284500D01*
X12205500Y-9334500D01*
X12255500Y-9384500D01*
X12255500Y-9638500D02*
X12305500Y-9588500D01*
X12255500Y-9538500D01*
X12205500Y-9588500D01*
X12255500Y-9638500D01*
X12255500Y-9892500D02*
X12305500Y-9842500D01*
X12255500Y-9792500D01*
X12205500Y-9842500D01*
X12255500Y-9892500D01*
X12255500Y-10146500D02*
X12305500Y-10096500D01*
X12255500Y-10046500D01*
X12205500Y-10096500D01*
X12255500Y-10146500D01*
X12255500Y-10400500D02*
X12305500Y-10350500D01*
X12255500Y-10300500D01*
X12205500Y-10350500D01*
X12255500Y-10400500D01*
X12255500Y-10654500D02*
X12305500Y-10604500D01*
X12255500Y-10554500D01*
X12205500Y-10604500D01*
X12255500Y-10654500D01*
X12255500Y-10908500D02*
X12305500Y-10858500D01*
X12255500Y-10808500D01*
X12205500Y-10858500D01*
X12255500Y-10908500D01*
X12255500Y-11162500D02*
X12305500Y-11112500D01*
X12255500Y-11062500D01*
X12205500Y-11112500D01*
X12255500Y-11162500D01*
X12255500Y-11416500D02*
X12305500Y-11366500D01*
X12255500Y-11316500D01*
X12205500Y-11366500D01*
X12255500Y-11416500D01*
X12255500Y-11670500D02*
X12305500Y-11620500D01*
X12255500Y-11570500D01*
X12205500Y-11620500D01*
X12255500Y-11670500D01*
X12255500Y-11924500D02*
X12305500Y-11874500D01*
X12255500Y-11824500D01*
X12205500Y-11874500D01*
X12255500Y-11924500D01*
X12255500Y-12178500D02*
X12305500Y-12128500D01*
X12255500Y-12078500D01*
X12205500Y-12128500D01*
X12255500Y-12178500D01*
X12255500Y-12432500D02*
X12305500Y-12382500D01*
X12255500Y-12332500D01*
X12205500Y-12382500D01*
X12255500Y-12432500D01*
X12763500Y-12178000D02*
X12813500Y-12128000D01*
X12763500Y-12078000D01*
X12713500Y-12128000D01*
X12763500Y-12178000D01*
X12763500Y-12432000D02*
X12813500Y-12382000D01*
X12763500Y-12332000D01*
X12713500Y-12382000D01*
X12763500Y-12432000D01*
X13779500Y-7606500D02*
X13829500Y-7556500D01*
X13779500Y-7506500D01*
X13729500Y-7556500D01*
X13779500Y-7606500D01*
X13779500Y-7860500D02*
X13829500Y-7810500D01*
X13779500Y-7760500D01*
X13729500Y-7810500D01*
X13779500Y-7860500D01*
X13779500Y-8114500D02*
X13829500Y-8064500D01*
X13779500Y-8014500D01*
X13729500Y-8064500D01*
X13779500Y-8114500D01*
X13779500Y-8368500D02*
X13829500Y-8318500D01*
X13779500Y-8268500D01*
X13729500Y-8318500D01*
X13779500Y-8368500D01*
X13779500Y-8622500D02*
X13829500Y-8572500D01*
X13779500Y-8522500D01*
X13729500Y-8572500D01*
X13779500Y-8622500D01*
X13779500Y-8876500D02*
X13829500Y-8826500D01*
X13779500Y-8776500D01*
X13729500Y-8826500D01*
X13779500Y-8876500D01*
X13779500Y-9130500D02*
X13829500Y-9080500D01*
X13779500Y-9030500D01*
X13729500Y-9080500D01*
X13779500Y-9130500D01*
X13779500Y-9384500D02*
X13829500Y-9334500D01*
X13779500Y-9284500D01*
X13729500Y-9334500D01*
X13779500Y-9384500D01*
X13779500Y-9638500D02*
X13829500Y-9588500D01*
X13779500Y-9538500D01*
X13729500Y-9588500D01*
X13779500Y-9638500D01*
X13779500Y-9892500D02*
X13829500Y-9842500D01*
X13779500Y-9792500D01*
X13729500Y-9842500D01*
X13779500Y-9892500D01*
X13779500Y-10146500D02*
X13829500Y-10096500D01*
X13779500Y-10046500D01*
X13729500Y-10096500D01*
X13779500Y-10146500D01*
X13779500Y-10400500D02*
X13829500Y-10350500D01*
X13779500Y-10300500D01*
X13729500Y-10350500D01*
X13779500Y-10400500D01*
X13779500Y-10654500D02*
X13829500Y-10604500D01*
X13779500Y-10554500D01*
X13729500Y-10604500D01*
X13779500Y-10654500D01*
X13779500Y-10908500D02*
X13829500Y-10858500D01*
X13779500Y-10808500D01*
X13729500Y-10858500D01*
X13779500Y-10908500D01*
X13779500Y-11162500D02*
X13829500Y-11112500D01*
X13779500Y-11062500D01*
X13729500Y-11112500D01*
X13779500Y-11162500D01*
X13779500Y-11416500D02*
X13829500Y-11366500D01*
X13779500Y-11316500D01*
X13729500Y-11366500D01*
X13779500Y-11416500D01*
X13779500Y-11670500D02*
X13829500Y-11620500D01*
X13779500Y-11570500D01*
X13729500Y-11620500D01*
X13779500Y-11670500D01*
X13779500Y-11924500D02*
X13829500Y-11874500D01*
X13779500Y-11824500D01*
X13729500Y-11874500D01*
X13779500Y-11924500D01*
X13779500Y-12178500D02*
X13829500Y-12128500D01*
X13779500Y-12078500D01*
X13729500Y-12128500D01*
X13779500Y-12178500D01*
X13779500Y-12432500D02*
X13829500Y-12382500D01*
X13779500Y-12332500D01*
X13729500Y-12382500D01*
X13779500Y-12432500D01*
X14795500Y-15036000D02*
X14845500Y-14986000D01*
X14795500Y-14936000D01*
X14745500Y-14986000D01*
X14795500Y-15036000D01*
X15049500Y-15036000D02*
X15099500Y-14986000D01*
X15049500Y-14936000D01*
X14999500Y-14986000D01*
X15049500Y-15036000D01*
X15303500Y-15036000D02*
X15353500Y-14986000D01*
X15303500Y-14936000D01*
X15253500Y-14986000D01*
X15303500Y-15036000D01*
X15557500Y-15036000D02*
X15607500Y-14986000D01*
X15557500Y-14936000D01*
X15507500Y-14986000D01*
X15557500Y-15036000D01*
X15811500Y-15036000D02*
X15861500Y-14986000D01*
X15811500Y-14936000D01*
X15761500Y-14986000D01*
X15811500Y-15036000D01*
D16*
X12200500Y-13720500D02*
X12350500Y-13870500D01*
X12350500Y-13720500D02*
X12200500Y-13870500D01*
X12350500Y-13795500D02*
G75*
G03*
X12350500Y-13795500I-75000J0D01*
G01*
X12450500Y-13470500D02*
X12600500Y-13620500D01*
X12600500Y-13470500D02*
X12450500Y-13620500D01*
X12600500Y-13545500D02*
G75*
G03*
X12600500Y-13545500I-75000J0D01*
G01*
X12450500Y-14720500D02*
X12600500Y-14870500D01*
X12600500Y-14720500D02*
X12450500Y-14870500D01*
X12600500Y-14795500D02*
G75*
G03*
X12600500Y-14795500I-75000J0D01*
G01*
X12950500Y-13220500D02*
X13100500Y-13370500D01*
X13100500Y-13220500D02*
X12950500Y-13370500D01*
X13100500Y-13295500D02*
G75*
G03*
X13100500Y-13295500I-75000J0D01*
G01*
X12950500Y-13720500D02*
X13100500Y-13870500D01*
X13100500Y-13720500D02*
X12950500Y-13870500D01*
X13100500Y-13795500D02*
G75*
G03*
X13100500Y-13795500I-75000J0D01*
G01*
X13450500Y-13470500D02*
X13600500Y-13620500D01*
X13600500Y-13470500D02*
X13450500Y-13620500D01*
X13600500Y-13545500D02*
G75*
G03*
X13600500Y-13545500I-75000J0D01*
G01*
X13450500Y-14720500D02*
X13600500Y-14870500D01*
X13600500Y-14720500D02*
X13450500Y-14870500D01*
X13600500Y-14795500D02*
G75*
G03*
X13600500Y-14795500I-75000J0D01*
G01*
X13700500Y-13720500D02*
X13850500Y-13870500D01*
X13850500Y-13720500D02*
X13700500Y-13870500D01*
X13850500Y-13795500D02*
G75*
G03*
X13850500Y-13795500I-75000J0D01*
G01*
D11*
X11939777Y-15619984D02*
X11939777Y-15419984D01*
X11939777Y-15419984D02*
X11987396Y-15419984D01*
X11987396Y-15419984D02*
X12015967Y-15429508D01*
X12015967Y-15429508D02*
X12035015Y-15448555D01*
X12035015Y-15448555D02*
X12044539Y-15467603D01*
X12044539Y-15467603D02*
X12054062Y-15505698D01*
X12054062Y-15505698D02*
X12054062Y-15534269D01*
X12054062Y-15534269D02*
X12044539Y-15572365D01*
X12044539Y-15572365D02*
X12035015Y-15591412D01*
X12035015Y-15591412D02*
X12015967Y-15610460D01*
X12015967Y-15610460D02*
X11987396Y-15619984D01*
X11987396Y-15619984D02*
X11939777Y-15619984D01*
X12139777Y-15619984D02*
X12139777Y-15486650D01*
X12139777Y-15524746D02*
X12149301Y-15505698D01*
X12149301Y-15505698D02*
X12158824Y-15496174D01*
X12158824Y-15496174D02*
X12177872Y-15486650D01*
X12177872Y-15486650D02*
X12196920Y-15486650D01*
X12263586Y-15619984D02*
X12263586Y-15486650D01*
X12263586Y-15419984D02*
X12254062Y-15429508D01*
X12254062Y-15429508D02*
X12263586Y-15439031D01*
X12263586Y-15439031D02*
X12273110Y-15429508D01*
X12273110Y-15429508D02*
X12263586Y-15419984D01*
X12263586Y-15419984D02*
X12263586Y-15439031D01*
X12387396Y-15619984D02*
X12368348Y-15610460D01*
X12368348Y-15610460D02*
X12358824Y-15591412D01*
X12358824Y-15591412D02*
X12358824Y-15419984D01*
X12492158Y-15619984D02*
X12473110Y-15610460D01*
X12473110Y-15610460D02*
X12463586Y-15591412D01*
X12463586Y-15591412D02*
X12463586Y-15419984D01*
X12720729Y-15619984D02*
X12720729Y-15419984D01*
X12720729Y-15419984D02*
X12787396Y-15562841D01*
X12787396Y-15562841D02*
X12854062Y-15419984D01*
X12854062Y-15419984D02*
X12854062Y-15619984D01*
X13035015Y-15619984D02*
X13035015Y-15515222D01*
X13035015Y-15515222D02*
X13025491Y-15496174D01*
X13025491Y-15496174D02*
X13006443Y-15486650D01*
X13006443Y-15486650D02*
X12968348Y-15486650D01*
X12968348Y-15486650D02*
X12949301Y-15496174D01*
X13035015Y-15610460D02*
X13015967Y-15619984D01*
X13015967Y-15619984D02*
X12968348Y-15619984D01*
X12968348Y-15619984D02*
X12949301Y-15610460D01*
X12949301Y-15610460D02*
X12939777Y-15591412D01*
X12939777Y-15591412D02*
X12939777Y-15572365D01*
X12939777Y-15572365D02*
X12949301Y-15553317D01*
X12949301Y-15553317D02*
X12968348Y-15543793D01*
X12968348Y-15543793D02*
X13015967Y-15543793D01*
X13015967Y-15543793D02*
X13035015Y-15534269D01*
X13130253Y-15486650D02*
X13130253Y-15686650D01*
X13130253Y-15496174D02*
X13149301Y-15486650D01*
X13149301Y-15486650D02*
X13187396Y-15486650D01*
X13187396Y-15486650D02*
X13206443Y-15496174D01*
X13206443Y-15496174D02*
X13215967Y-15505698D01*
X13215967Y-15505698D02*
X13225491Y-15524746D01*
X13225491Y-15524746D02*
X13225491Y-15581888D01*
X13225491Y-15581888D02*
X13215967Y-15600936D01*
X13215967Y-15600936D02*
X13206443Y-15610460D01*
X13206443Y-15610460D02*
X13187396Y-15619984D01*
X13187396Y-15619984D02*
X13149301Y-15619984D01*
X13149301Y-15619984D02*
X13130253Y-15610460D01*
X13311205Y-15600936D02*
X13320729Y-15610460D01*
X13320729Y-15610460D02*
X13311205Y-15619984D01*
X13311205Y-15619984D02*
X13301682Y-15610460D01*
X13301682Y-15610460D02*
X13311205Y-15600936D01*
X13311205Y-15600936D02*
X13311205Y-15619984D01*
X13311205Y-15496174D02*
X13320729Y-15505698D01*
X13320729Y-15505698D02*
X13311205Y-15515222D01*
X13311205Y-15515222D02*
X13301682Y-15505698D01*
X13301682Y-15505698D02*
X13311205Y-15496174D01*
X13311205Y-15496174D02*
X13311205Y-15515222D01*
D12*
X11639000Y-15928500D02*
X11679000Y-15968500D01*
X11679000Y-15928500D02*
X11639000Y-15968500D01*
D11*
X11977872Y-15839984D02*
X11996920Y-15839984D01*
X11996920Y-15839984D02*
X12015967Y-15849508D01*
X12015967Y-15849508D02*
X12025491Y-15859031D01*
X12025491Y-15859031D02*
X12035015Y-15878079D01*
X12035015Y-15878079D02*
X12044539Y-15916174D01*
X12044539Y-15916174D02*
X12044539Y-15963793D01*
X12044539Y-15963793D02*
X12035015Y-16001888D01*
X12035015Y-16001888D02*
X12025491Y-16020936D01*
X12025491Y-16020936D02*
X12015967Y-16030460D01*
X12015967Y-16030460D02*
X11996920Y-16039984D01*
X11996920Y-16039984D02*
X11977872Y-16039984D01*
X11977872Y-16039984D02*
X11958824Y-16030460D01*
X11958824Y-16030460D02*
X11949301Y-16020936D01*
X11949301Y-16020936D02*
X11939777Y-16001888D01*
X11939777Y-16001888D02*
X11930253Y-15963793D01*
X11930253Y-15963793D02*
X11930253Y-15916174D01*
X11930253Y-15916174D02*
X11939777Y-15878079D01*
X11939777Y-15878079D02*
X11949301Y-15859031D01*
X11949301Y-15859031D02*
X11958824Y-15849508D01*
X11958824Y-15849508D02*
X11977872Y-15839984D01*
X12130253Y-16020936D02*
X12139777Y-16030460D01*
X12139777Y-16030460D02*
X12130253Y-16039984D01*
X12130253Y-16039984D02*
X12120729Y-16030460D01*
X12120729Y-16030460D02*
X12130253Y-16020936D01*
X12130253Y-16020936D02*
X12130253Y-16039984D01*
X12311205Y-15906650D02*
X12311205Y-16039984D01*
X12263586Y-15830460D02*
X12215967Y-15973317D01*
X12215967Y-15973317D02*
X12339777Y-15973317D01*
X12454062Y-15839984D02*
X12473110Y-15839984D01*
X12473110Y-15839984D02*
X12492158Y-15849508D01*
X12492158Y-15849508D02*
X12501682Y-15859031D01*
X12501682Y-15859031D02*
X12511205Y-15878079D01*
X12511205Y-15878079D02*
X12520729Y-15916174D01*
X12520729Y-15916174D02*
X12520729Y-15963793D01*
X12520729Y-15963793D02*
X12511205Y-16001888D01*
X12511205Y-16001888D02*
X12501682Y-16020936D01*
X12501682Y-16020936D02*
X12492158Y-16030460D01*
X12492158Y-16030460D02*
X12473110Y-16039984D01*
X12473110Y-16039984D02*
X12454062Y-16039984D01*
X12454062Y-16039984D02*
X12435015Y-16030460D01*
X12435015Y-16030460D02*
X12425491Y-16020936D01*
X12425491Y-16020936D02*
X12415967Y-16001888D01*
X12415967Y-16001888D02*
X12406443Y-15963793D01*
X12406443Y-15963793D02*
X12406443Y-15916174D01*
X12406443Y-15916174D02*
X12415967Y-15878079D01*
X12415967Y-15878079D02*
X12425491Y-15859031D01*
X12425491Y-15859031D02*
X12435015Y-15849508D01*
X12435015Y-15849508D02*
X12454062Y-15839984D01*
X12644539Y-15839984D02*
X12663586Y-15839984D01*
X12663586Y-15839984D02*
X12682634Y-15849508D01*
X12682634Y-15849508D02*
X12692158Y-15859031D01*
X12692158Y-15859031D02*
X12701682Y-15878079D01*
X12701682Y-15878079D02*
X12711205Y-15916174D01*
X12711205Y-15916174D02*
X12711205Y-15963793D01*
X12711205Y-15963793D02*
X12701682Y-16001888D01*
X12701682Y-16001888D02*
X12692158Y-16020936D01*
X12692158Y-16020936D02*
X12682634Y-16030460D01*
X12682634Y-16030460D02*
X12663586Y-16039984D01*
X12663586Y-16039984D02*
X12644539Y-16039984D01*
X12644539Y-16039984D02*
X12625491Y-16030460D01*
X12625491Y-16030460D02*
X12615967Y-16020936D01*
X12615967Y-16020936D02*
X12606443Y-16001888D01*
X12606443Y-16001888D02*
X12596920Y-15963793D01*
X12596920Y-15963793D02*
X12596920Y-15916174D01*
X12596920Y-15916174D02*
X12606443Y-15878079D01*
X12606443Y-15878079D02*
X12615967Y-15859031D01*
X12615967Y-15859031D02*
X12625491Y-15849508D01*
X12625491Y-15849508D02*
X12644539Y-15839984D01*
X12796920Y-16039984D02*
X12796920Y-15906650D01*
X12796920Y-15925698D02*
X12806443Y-15916174D01*
X12806443Y-15916174D02*
X12825491Y-15906650D01*
X12825491Y-15906650D02*
X12854063Y-15906650D01*
X12854063Y-15906650D02*
X12873110Y-15916174D01*
X12873110Y-15916174D02*
X12882634Y-15935222D01*
X12882634Y-15935222D02*
X12882634Y-16039984D01*
X12882634Y-15935222D02*
X12892158Y-15916174D01*
X12892158Y-15916174D02*
X12911205Y-15906650D01*
X12911205Y-15906650D02*
X12939777Y-15906650D01*
X12939777Y-15906650D02*
X12958824Y-15916174D01*
X12958824Y-15916174D02*
X12968348Y-15935222D01*
X12968348Y-15935222D02*
X12968348Y-16039984D01*
X13063586Y-16039984D02*
X13063586Y-15906650D01*
X13063586Y-15925698D02*
X13073110Y-15916174D01*
X13073110Y-15916174D02*
X13092158Y-15906650D01*
X13092158Y-15906650D02*
X13120729Y-15906650D01*
X13120729Y-15906650D02*
X13139777Y-15916174D01*
X13139777Y-15916174D02*
X13149301Y-15935222D01*
X13149301Y-15935222D02*
X13149301Y-16039984D01*
X13149301Y-15935222D02*
X13158824Y-15916174D01*
X13158824Y-15916174D02*
X13177872Y-15906650D01*
X13177872Y-15906650D02*
X13206443Y-15906650D01*
X13206443Y-15906650D02*
X13225491Y-15916174D01*
X13225491Y-15916174D02*
X13235015Y-15935222D01*
X13235015Y-15935222D02*
X13235015Y-16039984D01*
X13625491Y-15830460D02*
X13454063Y-16087603D01*
X13882634Y-15839984D02*
X13901682Y-15839984D01*
X13901682Y-15839984D02*
X13920729Y-15849508D01*
X13920729Y-15849508D02*
X13930253Y-15859031D01*
X13930253Y-15859031D02*
X13939777Y-15878079D01*
X13939777Y-15878079D02*
X13949301Y-15916174D01*
X13949301Y-15916174D02*
X13949301Y-15963793D01*
X13949301Y-15963793D02*
X13939777Y-16001888D01*
X13939777Y-16001888D02*
X13930253Y-16020936D01*
X13930253Y-16020936D02*
X13920729Y-16030460D01*
X13920729Y-16030460D02*
X13901682Y-16039984D01*
X13901682Y-16039984D02*
X13882634Y-16039984D01*
X13882634Y-16039984D02*
X13863586Y-16030460D01*
X13863586Y-16030460D02*
X13854063Y-16020936D01*
X13854063Y-16020936D02*
X13844539Y-16001888D01*
X13844539Y-16001888D02*
X13835015Y-15963793D01*
X13835015Y-15963793D02*
X13835015Y-15916174D01*
X13835015Y-15916174D02*
X13844539Y-15878079D01*
X13844539Y-15878079D02*
X13854063Y-15859031D01*
X13854063Y-15859031D02*
X13863586Y-15849508D01*
X13863586Y-15849508D02*
X13882634Y-15839984D01*
X14035015Y-16020936D02*
X14044539Y-16030460D01*
X14044539Y-16030460D02*
X14035015Y-16039984D01*
X14035015Y-16039984D02*
X14025491Y-16030460D01*
X14025491Y-16030460D02*
X14035015Y-16020936D01*
X14035015Y-16020936D02*
X14035015Y-16039984D01*
X14168348Y-15839984D02*
X14187396Y-15839984D01*
X14187396Y-15839984D02*
X14206444Y-15849508D01*
X14206444Y-15849508D02*
X14215967Y-15859031D01*
X14215967Y-15859031D02*
X14225491Y-15878079D01*
X14225491Y-15878079D02*
X14235015Y-15916174D01*
X14235015Y-15916174D02*
X14235015Y-15963793D01*
X14235015Y-15963793D02*
X14225491Y-16001888D01*
X14225491Y-16001888D02*
X14215967Y-16020936D01*
X14215967Y-16020936D02*
X14206444Y-16030460D01*
X14206444Y-16030460D02*
X14187396Y-16039984D01*
X14187396Y-16039984D02*
X14168348Y-16039984D01*
X14168348Y-16039984D02*
X14149301Y-16030460D01*
X14149301Y-16030460D02*
X14139777Y-16020936D01*
X14139777Y-16020936D02*
X14130253Y-16001888D01*
X14130253Y-16001888D02*
X14120729Y-15963793D01*
X14120729Y-15963793D02*
X14120729Y-15916174D01*
X14120729Y-15916174D02*
X14130253Y-15878079D01*
X14130253Y-15878079D02*
X14139777Y-15859031D01*
X14139777Y-15859031D02*
X14149301Y-15849508D01*
X14149301Y-15849508D02*
X14168348Y-15839984D01*
X14425491Y-16039984D02*
X14311206Y-16039984D01*
X14368348Y-16039984D02*
X14368348Y-15839984D01*
X14368348Y-15839984D02*
X14349301Y-15868555D01*
X14349301Y-15868555D02*
X14330253Y-15887603D01*
X14330253Y-15887603D02*
X14311206Y-15897127D01*
X14606444Y-15839984D02*
X14511206Y-15839984D01*
X14511206Y-15839984D02*
X14501682Y-15935222D01*
X14501682Y-15935222D02*
X14511206Y-15925698D01*
X14511206Y-15925698D02*
X14530253Y-15916174D01*
X14530253Y-15916174D02*
X14577872Y-15916174D01*
X14577872Y-15916174D02*
X14596920Y-15925698D01*
X14596920Y-15925698D02*
X14606444Y-15935222D01*
X14606444Y-15935222D02*
X14615967Y-15954269D01*
X14615967Y-15954269D02*
X14615967Y-16001888D01*
X14615967Y-16001888D02*
X14606444Y-16020936D01*
X14606444Y-16020936D02*
X14596920Y-16030460D01*
X14596920Y-16030460D02*
X14577872Y-16039984D01*
X14577872Y-16039984D02*
X14530253Y-16039984D01*
X14530253Y-16039984D02*
X14511206Y-16030460D01*
X14511206Y-16030460D02*
X14501682Y-16020936D01*
X14682634Y-15839984D02*
X14815967Y-15839984D01*
X14815967Y-15839984D02*
X14730253Y-16039984D01*
X14882634Y-15839984D02*
X14882634Y-15878079D01*
X14958825Y-15839984D02*
X14958825Y-15878079D01*
X15254063Y-16116174D02*
X15244539Y-16106650D01*
X15244539Y-16106650D02*
X15225491Y-16078079D01*
X15225491Y-16078079D02*
X15215968Y-16059031D01*
X15215968Y-16059031D02*
X15206444Y-16030460D01*
X15206444Y-16030460D02*
X15196920Y-15982841D01*
X15196920Y-15982841D02*
X15196920Y-15944746D01*
X15196920Y-15944746D02*
X15206444Y-15897127D01*
X15206444Y-15897127D02*
X15215968Y-15868555D01*
X15215968Y-15868555D02*
X15225491Y-15849508D01*
X15225491Y-15849508D02*
X15244539Y-15820936D01*
X15244539Y-15820936D02*
X15254063Y-15811412D01*
X15435015Y-16039984D02*
X15320729Y-16039984D01*
X15377872Y-16039984D02*
X15377872Y-15839984D01*
X15377872Y-15839984D02*
X15358825Y-15868555D01*
X15358825Y-15868555D02*
X15339777Y-15887603D01*
X15339777Y-15887603D02*
X15320729Y-15897127D01*
X15606444Y-15839984D02*
X15568348Y-15839984D01*
X15568348Y-15839984D02*
X15549301Y-15849508D01*
X15549301Y-15849508D02*
X15539777Y-15859031D01*
X15539777Y-15859031D02*
X15520729Y-15887603D01*
X15520729Y-15887603D02*
X15511206Y-15925698D01*
X15511206Y-15925698D02*
X15511206Y-16001888D01*
X15511206Y-16001888D02*
X15520729Y-16020936D01*
X15520729Y-16020936D02*
X15530253Y-16030460D01*
X15530253Y-16030460D02*
X15549301Y-16039984D01*
X15549301Y-16039984D02*
X15587396Y-16039984D01*
X15587396Y-16039984D02*
X15606444Y-16030460D01*
X15606444Y-16030460D02*
X15615968Y-16020936D01*
X15615968Y-16020936D02*
X15625491Y-16001888D01*
X15625491Y-16001888D02*
X15625491Y-15954269D01*
X15625491Y-15954269D02*
X15615968Y-15935222D01*
X15615968Y-15935222D02*
X15606444Y-15925698D01*
X15606444Y-15925698D02*
X15587396Y-15916174D01*
X15587396Y-15916174D02*
X15549301Y-15916174D01*
X15549301Y-15916174D02*
X15530253Y-15925698D01*
X15530253Y-15925698D02*
X15520729Y-15935222D01*
X15520729Y-15935222D02*
X15511206Y-15954269D01*
X15863587Y-16039984D02*
X15863587Y-15839984D01*
X15949301Y-16039984D02*
X15949301Y-15935222D01*
X15949301Y-15935222D02*
X15939777Y-15916174D01*
X15939777Y-15916174D02*
X15920730Y-15906650D01*
X15920730Y-15906650D02*
X15892158Y-15906650D01*
X15892158Y-15906650D02*
X15873110Y-15916174D01*
X15873110Y-15916174D02*
X15863587Y-15925698D01*
X16073110Y-16039984D02*
X16054063Y-16030460D01*
X16054063Y-16030460D02*
X16044539Y-16020936D01*
X16044539Y-16020936D02*
X16035015Y-16001888D01*
X16035015Y-16001888D02*
X16035015Y-15944746D01*
X16035015Y-15944746D02*
X16044539Y-15925698D01*
X16044539Y-15925698D02*
X16054063Y-15916174D01*
X16054063Y-15916174D02*
X16073110Y-15906650D01*
X16073110Y-15906650D02*
X16101682Y-15906650D01*
X16101682Y-15906650D02*
X16120730Y-15916174D01*
X16120730Y-15916174D02*
X16130253Y-15925698D01*
X16130253Y-15925698D02*
X16139777Y-15944746D01*
X16139777Y-15944746D02*
X16139777Y-16001888D01*
X16139777Y-16001888D02*
X16130253Y-16020936D01*
X16130253Y-16020936D02*
X16120730Y-16030460D01*
X16120730Y-16030460D02*
X16101682Y-16039984D01*
X16101682Y-16039984D02*
X16073110Y-16039984D01*
X16254063Y-16039984D02*
X16235015Y-16030460D01*
X16235015Y-16030460D02*
X16225491Y-16011412D01*
X16225491Y-16011412D02*
X16225491Y-15839984D01*
X16406444Y-16030460D02*
X16387396Y-16039984D01*
X16387396Y-16039984D02*
X16349301Y-16039984D01*
X16349301Y-16039984D02*
X16330253Y-16030460D01*
X16330253Y-16030460D02*
X16320730Y-16011412D01*
X16320730Y-16011412D02*
X16320730Y-15935222D01*
X16320730Y-15935222D02*
X16330253Y-15916174D01*
X16330253Y-15916174D02*
X16349301Y-15906650D01*
X16349301Y-15906650D02*
X16387396Y-15906650D01*
X16387396Y-15906650D02*
X16406444Y-15916174D01*
X16406444Y-15916174D02*
X16415968Y-15935222D01*
X16415968Y-15935222D02*
X16415968Y-15954269D01*
X16415968Y-15954269D02*
X16320730Y-15973317D01*
X16492158Y-16030460D02*
X16511206Y-16039984D01*
X16511206Y-16039984D02*
X16549301Y-16039984D01*
X16549301Y-16039984D02*
X16568349Y-16030460D01*
X16568349Y-16030460D02*
X16577872Y-16011412D01*
X16577872Y-16011412D02*
X16577872Y-16001888D01*
X16577872Y-16001888D02*
X16568349Y-15982841D01*
X16568349Y-15982841D02*
X16549301Y-15973317D01*
X16549301Y-15973317D02*
X16520730Y-15973317D01*
X16520730Y-15973317D02*
X16501682Y-15963793D01*
X16501682Y-15963793D02*
X16492158Y-15944746D01*
X16492158Y-15944746D02*
X16492158Y-15935222D01*
X16492158Y-15935222D02*
X16501682Y-15916174D01*
X16501682Y-15916174D02*
X16520730Y-15906650D01*
X16520730Y-15906650D02*
X16549301Y-15906650D01*
X16549301Y-15906650D02*
X16568349Y-15916174D01*
X16644539Y-16116174D02*
X16654063Y-16106650D01*
X16654063Y-16106650D02*
X16673111Y-16078079D01*
X16673111Y-16078079D02*
X16682634Y-16059031D01*
X16682634Y-16059031D02*
X16692158Y-16030460D01*
X16692158Y-16030460D02*
X16701682Y-15982841D01*
X16701682Y-15982841D02*
X16701682Y-15944746D01*
X16701682Y-15944746D02*
X16692158Y-15897127D01*
X16692158Y-15897127D02*
X16682634Y-15868555D01*
X16682634Y-15868555D02*
X16673111Y-15849508D01*
X16673111Y-15849508D02*
X16654063Y-15820936D01*
X16654063Y-15820936D02*
X16644539Y-15811412D01*
D13*
X11679000Y-16212500D02*
G75*
G03*
X11679000Y-16212500I-35000J0D01*
G01*
D11*
X11977872Y-16103984D02*
X11996920Y-16103984D01*
X11996920Y-16103984D02*
X12015967Y-16113508D01*
X12015967Y-16113508D02*
X12025491Y-16123031D01*
X12025491Y-16123031D02*
X12035015Y-16142079D01*
X12035015Y-16142079D02*
X12044539Y-16180174D01*
X12044539Y-16180174D02*
X12044539Y-16227793D01*
X12044539Y-16227793D02*
X12035015Y-16265888D01*
X12035015Y-16265888D02*
X12025491Y-16284936D01*
X12025491Y-16284936D02*
X12015967Y-16294460D01*
X12015967Y-16294460D02*
X11996920Y-16303984D01*
X11996920Y-16303984D02*
X11977872Y-16303984D01*
X11977872Y-16303984D02*
X11958824Y-16294460D01*
X11958824Y-16294460D02*
X11949301Y-16284936D01*
X11949301Y-16284936D02*
X11939777Y-16265888D01*
X11939777Y-16265888D02*
X11930253Y-16227793D01*
X11930253Y-16227793D02*
X11930253Y-16180174D01*
X11930253Y-16180174D02*
X11939777Y-16142079D01*
X11939777Y-16142079D02*
X11949301Y-16123031D01*
X11949301Y-16123031D02*
X11958824Y-16113508D01*
X11958824Y-16113508D02*
X11977872Y-16103984D01*
X12130253Y-16284936D02*
X12139777Y-16294460D01*
X12139777Y-16294460D02*
X12130253Y-16303984D01*
X12130253Y-16303984D02*
X12120729Y-16294460D01*
X12120729Y-16294460D02*
X12130253Y-16284936D01*
X12130253Y-16284936D02*
X12130253Y-16303984D01*
X12206443Y-16103984D02*
X12339777Y-16103984D01*
X12339777Y-16103984D02*
X12254062Y-16303984D01*
X12454062Y-16103984D02*
X12473110Y-16103984D01*
X12473110Y-16103984D02*
X12492158Y-16113508D01*
X12492158Y-16113508D02*
X12501682Y-16123031D01*
X12501682Y-16123031D02*
X12511205Y-16142079D01*
X12511205Y-16142079D02*
X12520729Y-16180174D01*
X12520729Y-16180174D02*
X12520729Y-16227793D01*
X12520729Y-16227793D02*
X12511205Y-16265888D01*
X12511205Y-16265888D02*
X12501682Y-16284936D01*
X12501682Y-16284936D02*
X12492158Y-16294460D01*
X12492158Y-16294460D02*
X12473110Y-16303984D01*
X12473110Y-16303984D02*
X12454062Y-16303984D01*
X12454062Y-16303984D02*
X12435015Y-16294460D01*
X12435015Y-16294460D02*
X12425491Y-16284936D01*
X12425491Y-16284936D02*
X12415967Y-16265888D01*
X12415967Y-16265888D02*
X12406443Y-16227793D01*
X12406443Y-16227793D02*
X12406443Y-16180174D01*
X12406443Y-16180174D02*
X12415967Y-16142079D01*
X12415967Y-16142079D02*
X12425491Y-16123031D01*
X12425491Y-16123031D02*
X12435015Y-16113508D01*
X12435015Y-16113508D02*
X12454062Y-16103984D01*
X12644539Y-16103984D02*
X12663586Y-16103984D01*
X12663586Y-16103984D02*
X12682634Y-16113508D01*
X12682634Y-16113508D02*
X12692158Y-16123031D01*
X12692158Y-16123031D02*
X12701682Y-16142079D01*
X12701682Y-16142079D02*
X12711205Y-16180174D01*
X12711205Y-16180174D02*
X12711205Y-16227793D01*
X12711205Y-16227793D02*
X12701682Y-16265888D01*
X12701682Y-16265888D02*
X12692158Y-16284936D01*
X12692158Y-16284936D02*
X12682634Y-16294460D01*
X12682634Y-16294460D02*
X12663586Y-16303984D01*
X12663586Y-16303984D02*
X12644539Y-16303984D01*
X12644539Y-16303984D02*
X12625491Y-16294460D01*
X12625491Y-16294460D02*
X12615967Y-16284936D01*
X12615967Y-16284936D02*
X12606443Y-16265888D01*
X12606443Y-16265888D02*
X12596920Y-16227793D01*
X12596920Y-16227793D02*
X12596920Y-16180174D01*
X12596920Y-16180174D02*
X12606443Y-16142079D01*
X12606443Y-16142079D02*
X12615967Y-16123031D01*
X12615967Y-16123031D02*
X12625491Y-16113508D01*
X12625491Y-16113508D02*
X12644539Y-16103984D01*
X12796920Y-16303984D02*
X12796920Y-16170650D01*
X12796920Y-16189698D02*
X12806443Y-16180174D01*
X12806443Y-16180174D02*
X12825491Y-16170650D01*
X12825491Y-16170650D02*
X12854063Y-16170650D01*
X12854063Y-16170650D02*
X12873110Y-16180174D01*
X12873110Y-16180174D02*
X12882634Y-16199222D01*
X12882634Y-16199222D02*
X12882634Y-16303984D01*
X12882634Y-16199222D02*
X12892158Y-16180174D01*
X12892158Y-16180174D02*
X12911205Y-16170650D01*
X12911205Y-16170650D02*
X12939777Y-16170650D01*
X12939777Y-16170650D02*
X12958824Y-16180174D01*
X12958824Y-16180174D02*
X12968348Y-16199222D01*
X12968348Y-16199222D02*
X12968348Y-16303984D01*
X13063586Y-16303984D02*
X13063586Y-16170650D01*
X13063586Y-16189698D02*
X13073110Y-16180174D01*
X13073110Y-16180174D02*
X13092158Y-16170650D01*
X13092158Y-16170650D02*
X13120729Y-16170650D01*
X13120729Y-16170650D02*
X13139777Y-16180174D01*
X13139777Y-16180174D02*
X13149301Y-16199222D01*
X13149301Y-16199222D02*
X13149301Y-16303984D01*
X13149301Y-16199222D02*
X13158824Y-16180174D01*
X13158824Y-16180174D02*
X13177872Y-16170650D01*
X13177872Y-16170650D02*
X13206443Y-16170650D01*
X13206443Y-16170650D02*
X13225491Y-16180174D01*
X13225491Y-16180174D02*
X13235015Y-16199222D01*
X13235015Y-16199222D02*
X13235015Y-16303984D01*
X13625491Y-16094460D02*
X13454063Y-16351603D01*
X13882634Y-16103984D02*
X13901682Y-16103984D01*
X13901682Y-16103984D02*
X13920729Y-16113508D01*
X13920729Y-16113508D02*
X13930253Y-16123031D01*
X13930253Y-16123031D02*
X13939777Y-16142079D01*
X13939777Y-16142079D02*
X13949301Y-16180174D01*
X13949301Y-16180174D02*
X13949301Y-16227793D01*
X13949301Y-16227793D02*
X13939777Y-16265888D01*
X13939777Y-16265888D02*
X13930253Y-16284936D01*
X13930253Y-16284936D02*
X13920729Y-16294460D01*
X13920729Y-16294460D02*
X13901682Y-16303984D01*
X13901682Y-16303984D02*
X13882634Y-16303984D01*
X13882634Y-16303984D02*
X13863586Y-16294460D01*
X13863586Y-16294460D02*
X13854063Y-16284936D01*
X13854063Y-16284936D02*
X13844539Y-16265888D01*
X13844539Y-16265888D02*
X13835015Y-16227793D01*
X13835015Y-16227793D02*
X13835015Y-16180174D01*
X13835015Y-16180174D02*
X13844539Y-16142079D01*
X13844539Y-16142079D02*
X13854063Y-16123031D01*
X13854063Y-16123031D02*
X13863586Y-16113508D01*
X13863586Y-16113508D02*
X13882634Y-16103984D01*
X14035015Y-16284936D02*
X14044539Y-16294460D01*
X14044539Y-16294460D02*
X14035015Y-16303984D01*
X14035015Y-16303984D02*
X14025491Y-16294460D01*
X14025491Y-16294460D02*
X14035015Y-16284936D01*
X14035015Y-16284936D02*
X14035015Y-16303984D01*
X14168348Y-16103984D02*
X14187396Y-16103984D01*
X14187396Y-16103984D02*
X14206444Y-16113508D01*
X14206444Y-16113508D02*
X14215967Y-16123031D01*
X14215967Y-16123031D02*
X14225491Y-16142079D01*
X14225491Y-16142079D02*
X14235015Y-16180174D01*
X14235015Y-16180174D02*
X14235015Y-16227793D01*
X14235015Y-16227793D02*
X14225491Y-16265888D01*
X14225491Y-16265888D02*
X14215967Y-16284936D01*
X14215967Y-16284936D02*
X14206444Y-16294460D01*
X14206444Y-16294460D02*
X14187396Y-16303984D01*
X14187396Y-16303984D02*
X14168348Y-16303984D01*
X14168348Y-16303984D02*
X14149301Y-16294460D01*
X14149301Y-16294460D02*
X14139777Y-16284936D01*
X14139777Y-16284936D02*
X14130253Y-16265888D01*
X14130253Y-16265888D02*
X14120729Y-16227793D01*
X14120729Y-16227793D02*
X14120729Y-16180174D01*
X14120729Y-16180174D02*
X14130253Y-16142079D01*
X14130253Y-16142079D02*
X14139777Y-16123031D01*
X14139777Y-16123031D02*
X14149301Y-16113508D01*
X14149301Y-16113508D02*
X14168348Y-16103984D01*
X14311206Y-16123031D02*
X14320729Y-16113508D01*
X14320729Y-16113508D02*
X14339777Y-16103984D01*
X14339777Y-16103984D02*
X14387396Y-16103984D01*
X14387396Y-16103984D02*
X14406444Y-16113508D01*
X14406444Y-16113508D02*
X14415967Y-16123031D01*
X14415967Y-16123031D02*
X14425491Y-16142079D01*
X14425491Y-16142079D02*
X14425491Y-16161127D01*
X14425491Y-16161127D02*
X14415967Y-16189698D01*
X14415967Y-16189698D02*
X14301682Y-16303984D01*
X14301682Y-16303984D02*
X14425491Y-16303984D01*
X14492158Y-16103984D02*
X14625491Y-16103984D01*
X14625491Y-16103984D02*
X14539777Y-16303984D01*
X14787396Y-16103984D02*
X14749301Y-16103984D01*
X14749301Y-16103984D02*
X14730253Y-16113508D01*
X14730253Y-16113508D02*
X14720729Y-16123031D01*
X14720729Y-16123031D02*
X14701682Y-16151603D01*
X14701682Y-16151603D02*
X14692158Y-16189698D01*
X14692158Y-16189698D02*
X14692158Y-16265888D01*
X14692158Y-16265888D02*
X14701682Y-16284936D01*
X14701682Y-16284936D02*
X14711206Y-16294460D01*
X14711206Y-16294460D02*
X14730253Y-16303984D01*
X14730253Y-16303984D02*
X14768348Y-16303984D01*
X14768348Y-16303984D02*
X14787396Y-16294460D01*
X14787396Y-16294460D02*
X14796920Y-16284936D01*
X14796920Y-16284936D02*
X14806444Y-16265888D01*
X14806444Y-16265888D02*
X14806444Y-16218269D01*
X14806444Y-16218269D02*
X14796920Y-16199222D01*
X14796920Y-16199222D02*
X14787396Y-16189698D01*
X14787396Y-16189698D02*
X14768348Y-16180174D01*
X14768348Y-16180174D02*
X14730253Y-16180174D01*
X14730253Y-16180174D02*
X14711206Y-16189698D01*
X14711206Y-16189698D02*
X14701682Y-16199222D01*
X14701682Y-16199222D02*
X14692158Y-16218269D01*
X14882634Y-16103984D02*
X14882634Y-16142079D01*
X14958825Y-16103984D02*
X14958825Y-16142079D01*
X15254063Y-16380174D02*
X15244539Y-16370650D01*
X15244539Y-16370650D02*
X15225491Y-16342079D01*
X15225491Y-16342079D02*
X15215968Y-16323031D01*
X15215968Y-16323031D02*
X15206444Y-16294460D01*
X15206444Y-16294460D02*
X15196920Y-16246841D01*
X15196920Y-16246841D02*
X15196920Y-16208746D01*
X15196920Y-16208746D02*
X15206444Y-16161127D01*
X15206444Y-16161127D02*
X15215968Y-16132555D01*
X15215968Y-16132555D02*
X15225491Y-16113508D01*
X15225491Y-16113508D02*
X15244539Y-16084936D01*
X15244539Y-16084936D02*
X15254063Y-16075412D01*
X15415968Y-16103984D02*
X15377872Y-16103984D01*
X15377872Y-16103984D02*
X15358825Y-16113508D01*
X15358825Y-16113508D02*
X15349301Y-16123031D01*
X15349301Y-16123031D02*
X15330253Y-16151603D01*
X15330253Y-16151603D02*
X15320729Y-16189698D01*
X15320729Y-16189698D02*
X15320729Y-16265888D01*
X15320729Y-16265888D02*
X15330253Y-16284936D01*
X15330253Y-16284936D02*
X15339777Y-16294460D01*
X15339777Y-16294460D02*
X15358825Y-16303984D01*
X15358825Y-16303984D02*
X15396920Y-16303984D01*
X15396920Y-16303984D02*
X15415968Y-16294460D01*
X15415968Y-16294460D02*
X15425491Y-16284936D01*
X15425491Y-16284936D02*
X15435015Y-16265888D01*
X15435015Y-16265888D02*
X15435015Y-16218269D01*
X15435015Y-16218269D02*
X15425491Y-16199222D01*
X15425491Y-16199222D02*
X15415968Y-16189698D01*
X15415968Y-16189698D02*
X15396920Y-16180174D01*
X15396920Y-16180174D02*
X15358825Y-16180174D01*
X15358825Y-16180174D02*
X15339777Y-16189698D01*
X15339777Y-16189698D02*
X15330253Y-16199222D01*
X15330253Y-16199222D02*
X15320729Y-16218269D01*
X15606444Y-16170650D02*
X15606444Y-16303984D01*
X15558825Y-16094460D02*
X15511206Y-16237317D01*
X15511206Y-16237317D02*
X15635015Y-16237317D01*
X15863587Y-16303984D02*
X15863587Y-16103984D01*
X15949301Y-16303984D02*
X15949301Y-16199222D01*
X15949301Y-16199222D02*
X15939777Y-16180174D01*
X15939777Y-16180174D02*
X15920730Y-16170650D01*
X15920730Y-16170650D02*
X15892158Y-16170650D01*
X15892158Y-16170650D02*
X15873110Y-16180174D01*
X15873110Y-16180174D02*
X15863587Y-16189698D01*
X16073110Y-16303984D02*
X16054063Y-16294460D01*
X16054063Y-16294460D02*
X16044539Y-16284936D01*
X16044539Y-16284936D02*
X16035015Y-16265888D01*
X16035015Y-16265888D02*
X16035015Y-16208746D01*
X16035015Y-16208746D02*
X16044539Y-16189698D01*
X16044539Y-16189698D02*
X16054063Y-16180174D01*
X16054063Y-16180174D02*
X16073110Y-16170650D01*
X16073110Y-16170650D02*
X16101682Y-16170650D01*
X16101682Y-16170650D02*
X16120730Y-16180174D01*
X16120730Y-16180174D02*
X16130253Y-16189698D01*
X16130253Y-16189698D02*
X16139777Y-16208746D01*
X16139777Y-16208746D02*
X16139777Y-16265888D01*
X16139777Y-16265888D02*
X16130253Y-16284936D01*
X16130253Y-16284936D02*
X16120730Y-16294460D01*
X16120730Y-16294460D02*
X16101682Y-16303984D01*
X16101682Y-16303984D02*
X16073110Y-16303984D01*
X16254063Y-16303984D02*
X16235015Y-16294460D01*
X16235015Y-16294460D02*
X16225491Y-16275412D01*
X16225491Y-16275412D02*
X16225491Y-16103984D01*
X16406444Y-16294460D02*
X16387396Y-16303984D01*
X16387396Y-16303984D02*
X16349301Y-16303984D01*
X16349301Y-16303984D02*
X16330253Y-16294460D01*
X16330253Y-16294460D02*
X16320730Y-16275412D01*
X16320730Y-16275412D02*
X16320730Y-16199222D01*
X16320730Y-16199222D02*
X16330253Y-16180174D01*
X16330253Y-16180174D02*
X16349301Y-16170650D01*
X16349301Y-16170650D02*
X16387396Y-16170650D01*
X16387396Y-16170650D02*
X16406444Y-16180174D01*
X16406444Y-16180174D02*
X16415968Y-16199222D01*
X16415968Y-16199222D02*
X16415968Y-16218269D01*
X16415968Y-16218269D02*
X16320730Y-16237317D01*
X16492158Y-16294460D02*
X16511206Y-16303984D01*
X16511206Y-16303984D02*
X16549301Y-16303984D01*
X16549301Y-16303984D02*
X16568349Y-16294460D01*
X16568349Y-16294460D02*
X16577872Y-16275412D01*
X16577872Y-16275412D02*
X16577872Y-16265888D01*
X16577872Y-16265888D02*
X16568349Y-16246841D01*
X16568349Y-16246841D02*
X16549301Y-16237317D01*
X16549301Y-16237317D02*
X16520730Y-16237317D01*
X16520730Y-16237317D02*
X16501682Y-16227793D01*
X16501682Y-16227793D02*
X16492158Y-16208746D01*
X16492158Y-16208746D02*
X16492158Y-16199222D01*
X16492158Y-16199222D02*
X16501682Y-16180174D01*
X16501682Y-16180174D02*
X16520730Y-16170650D01*
X16520730Y-16170650D02*
X16549301Y-16170650D01*
X16549301Y-16170650D02*
X16568349Y-16180174D01*
X16644539Y-16380174D02*
X16654063Y-16370650D01*
X16654063Y-16370650D02*
X16673111Y-16342079D01*
X16673111Y-16342079D02*
X16682634Y-16323031D01*
X16682634Y-16323031D02*
X16692158Y-16294460D01*
X16692158Y-16294460D02*
X16701682Y-16246841D01*
X16701682Y-16246841D02*
X16701682Y-16208746D01*
X16701682Y-16208746D02*
X16692158Y-16161127D01*
X16692158Y-16161127D02*
X16682634Y-16132555D01*
X16682634Y-16132555D02*
X16673111Y-16113508D01*
X16673111Y-16113508D02*
X16654063Y-16084936D01*
X16654063Y-16084936D02*
X16644539Y-16075412D01*
D14*
X11641500Y-16439000D02*
X11641500Y-16514000D01*
X11604000Y-16476500D02*
X11679000Y-16476500D01*
D11*
X11977872Y-16367984D02*
X11996920Y-16367984D01*
X11996920Y-16367984D02*
X12015967Y-16377508D01*
X12015967Y-16377508D02*
X12025491Y-16387031D01*
X12025491Y-16387031D02*
X12035015Y-16406079D01*
X12035015Y-16406079D02*
X12044539Y-16444174D01*
X12044539Y-16444174D02*
X12044539Y-16491793D01*
X12044539Y-16491793D02*
X12035015Y-16529888D01*
X12035015Y-16529888D02*
X12025491Y-16548936D01*
X12025491Y-16548936D02*
X12015967Y-16558460D01*
X12015967Y-16558460D02*
X11996920Y-16567984D01*
X11996920Y-16567984D02*
X11977872Y-16567984D01*
X11977872Y-16567984D02*
X11958824Y-16558460D01*
X11958824Y-16558460D02*
X11949301Y-16548936D01*
X11949301Y-16548936D02*
X11939777Y-16529888D01*
X11939777Y-16529888D02*
X11930253Y-16491793D01*
X11930253Y-16491793D02*
X11930253Y-16444174D01*
X11930253Y-16444174D02*
X11939777Y-16406079D01*
X11939777Y-16406079D02*
X11949301Y-16387031D01*
X11949301Y-16387031D02*
X11958824Y-16377508D01*
X11958824Y-16377508D02*
X11977872Y-16367984D01*
X12130253Y-16548936D02*
X12139777Y-16558460D01*
X12139777Y-16558460D02*
X12130253Y-16567984D01*
X12130253Y-16567984D02*
X12120729Y-16558460D01*
X12120729Y-16558460D02*
X12130253Y-16548936D01*
X12130253Y-16548936D02*
X12130253Y-16567984D01*
X12206443Y-16367984D02*
X12339777Y-16367984D01*
X12339777Y-16367984D02*
X12254062Y-16567984D01*
X12511205Y-16367984D02*
X12415967Y-16367984D01*
X12415967Y-16367984D02*
X12406443Y-16463222D01*
X12406443Y-16463222D02*
X12415967Y-16453698D01*
X12415967Y-16453698D02*
X12435015Y-16444174D01*
X12435015Y-16444174D02*
X12482634Y-16444174D01*
X12482634Y-16444174D02*
X12501682Y-16453698D01*
X12501682Y-16453698D02*
X12511205Y-16463222D01*
X12511205Y-16463222D02*
X12520729Y-16482269D01*
X12520729Y-16482269D02*
X12520729Y-16529888D01*
X12520729Y-16529888D02*
X12511205Y-16548936D01*
X12511205Y-16548936D02*
X12501682Y-16558460D01*
X12501682Y-16558460D02*
X12482634Y-16567984D01*
X12482634Y-16567984D02*
X12435015Y-16567984D01*
X12435015Y-16567984D02*
X12415967Y-16558460D01*
X12415967Y-16558460D02*
X12406443Y-16548936D01*
X12644539Y-16367984D02*
X12663586Y-16367984D01*
X12663586Y-16367984D02*
X12682634Y-16377508D01*
X12682634Y-16377508D02*
X12692158Y-16387031D01*
X12692158Y-16387031D02*
X12701682Y-16406079D01*
X12701682Y-16406079D02*
X12711205Y-16444174D01*
X12711205Y-16444174D02*
X12711205Y-16491793D01*
X12711205Y-16491793D02*
X12701682Y-16529888D01*
X12701682Y-16529888D02*
X12692158Y-16548936D01*
X12692158Y-16548936D02*
X12682634Y-16558460D01*
X12682634Y-16558460D02*
X12663586Y-16567984D01*
X12663586Y-16567984D02*
X12644539Y-16567984D01*
X12644539Y-16567984D02*
X12625491Y-16558460D01*
X12625491Y-16558460D02*
X12615967Y-16548936D01*
X12615967Y-16548936D02*
X12606443Y-16529888D01*
X12606443Y-16529888D02*
X12596920Y-16491793D01*
X12596920Y-16491793D02*
X12596920Y-16444174D01*
X12596920Y-16444174D02*
X12606443Y-16406079D01*
X12606443Y-16406079D02*
X12615967Y-16387031D01*
X12615967Y-16387031D02*
X12625491Y-16377508D01*
X12625491Y-16377508D02*
X12644539Y-16367984D01*
X12796920Y-16567984D02*
X12796920Y-16434650D01*
X12796920Y-16453698D02*
X12806443Y-16444174D01*
X12806443Y-16444174D02*
X12825491Y-16434650D01*
X12825491Y-16434650D02*
X12854063Y-16434650D01*
X12854063Y-16434650D02*
X12873110Y-16444174D01*
X12873110Y-16444174D02*
X12882634Y-16463222D01*
X12882634Y-16463222D02*
X12882634Y-16567984D01*
X12882634Y-16463222D02*
X12892158Y-16444174D01*
X12892158Y-16444174D02*
X12911205Y-16434650D01*
X12911205Y-16434650D02*
X12939777Y-16434650D01*
X12939777Y-16434650D02*
X12958824Y-16444174D01*
X12958824Y-16444174D02*
X12968348Y-16463222D01*
X12968348Y-16463222D02*
X12968348Y-16567984D01*
X13063586Y-16567984D02*
X13063586Y-16434650D01*
X13063586Y-16453698D02*
X13073110Y-16444174D01*
X13073110Y-16444174D02*
X13092158Y-16434650D01*
X13092158Y-16434650D02*
X13120729Y-16434650D01*
X13120729Y-16434650D02*
X13139777Y-16444174D01*
X13139777Y-16444174D02*
X13149301Y-16463222D01*
X13149301Y-16463222D02*
X13149301Y-16567984D01*
X13149301Y-16463222D02*
X13158824Y-16444174D01*
X13158824Y-16444174D02*
X13177872Y-16434650D01*
X13177872Y-16434650D02*
X13206443Y-16434650D01*
X13206443Y-16434650D02*
X13225491Y-16444174D01*
X13225491Y-16444174D02*
X13235015Y-16463222D01*
X13235015Y-16463222D02*
X13235015Y-16567984D01*
X13625491Y-16358460D02*
X13454063Y-16615603D01*
X13882634Y-16367984D02*
X13901682Y-16367984D01*
X13901682Y-16367984D02*
X13920729Y-16377508D01*
X13920729Y-16377508D02*
X13930253Y-16387031D01*
X13930253Y-16387031D02*
X13939777Y-16406079D01*
X13939777Y-16406079D02*
X13949301Y-16444174D01*
X13949301Y-16444174D02*
X13949301Y-16491793D01*
X13949301Y-16491793D02*
X13939777Y-16529888D01*
X13939777Y-16529888D02*
X13930253Y-16548936D01*
X13930253Y-16548936D02*
X13920729Y-16558460D01*
X13920729Y-16558460D02*
X13901682Y-16567984D01*
X13901682Y-16567984D02*
X13882634Y-16567984D01*
X13882634Y-16567984D02*
X13863586Y-16558460D01*
X13863586Y-16558460D02*
X13854063Y-16548936D01*
X13854063Y-16548936D02*
X13844539Y-16529888D01*
X13844539Y-16529888D02*
X13835015Y-16491793D01*
X13835015Y-16491793D02*
X13835015Y-16444174D01*
X13835015Y-16444174D02*
X13844539Y-16406079D01*
X13844539Y-16406079D02*
X13854063Y-16387031D01*
X13854063Y-16387031D02*
X13863586Y-16377508D01*
X13863586Y-16377508D02*
X13882634Y-16367984D01*
X14035015Y-16548936D02*
X14044539Y-16558460D01*
X14044539Y-16558460D02*
X14035015Y-16567984D01*
X14035015Y-16567984D02*
X14025491Y-16558460D01*
X14025491Y-16558460D02*
X14035015Y-16548936D01*
X14035015Y-16548936D02*
X14035015Y-16567984D01*
X14168348Y-16367984D02*
X14187396Y-16367984D01*
X14187396Y-16367984D02*
X14206444Y-16377508D01*
X14206444Y-16377508D02*
X14215967Y-16387031D01*
X14215967Y-16387031D02*
X14225491Y-16406079D01*
X14225491Y-16406079D02*
X14235015Y-16444174D01*
X14235015Y-16444174D02*
X14235015Y-16491793D01*
X14235015Y-16491793D02*
X14225491Y-16529888D01*
X14225491Y-16529888D02*
X14215967Y-16548936D01*
X14215967Y-16548936D02*
X14206444Y-16558460D01*
X14206444Y-16558460D02*
X14187396Y-16567984D01*
X14187396Y-16567984D02*
X14168348Y-16567984D01*
X14168348Y-16567984D02*
X14149301Y-16558460D01*
X14149301Y-16558460D02*
X14139777Y-16548936D01*
X14139777Y-16548936D02*
X14130253Y-16529888D01*
X14130253Y-16529888D02*
X14120729Y-16491793D01*
X14120729Y-16491793D02*
X14120729Y-16444174D01*
X14120729Y-16444174D02*
X14130253Y-16406079D01*
X14130253Y-16406079D02*
X14139777Y-16387031D01*
X14139777Y-16387031D02*
X14149301Y-16377508D01*
X14149301Y-16377508D02*
X14168348Y-16367984D01*
X14311206Y-16387031D02*
X14320729Y-16377508D01*
X14320729Y-16377508D02*
X14339777Y-16367984D01*
X14339777Y-16367984D02*
X14387396Y-16367984D01*
X14387396Y-16367984D02*
X14406444Y-16377508D01*
X14406444Y-16377508D02*
X14415967Y-16387031D01*
X14415967Y-16387031D02*
X14425491Y-16406079D01*
X14425491Y-16406079D02*
X14425491Y-16425127D01*
X14425491Y-16425127D02*
X14415967Y-16453698D01*
X14415967Y-16453698D02*
X14301682Y-16567984D01*
X14301682Y-16567984D02*
X14425491Y-16567984D01*
X14520729Y-16567984D02*
X14558825Y-16567984D01*
X14558825Y-16567984D02*
X14577872Y-16558460D01*
X14577872Y-16558460D02*
X14587396Y-16548936D01*
X14587396Y-16548936D02*
X14606444Y-16520365D01*
X14606444Y-16520365D02*
X14615967Y-16482269D01*
X14615967Y-16482269D02*
X14615967Y-16406079D01*
X14615967Y-16406079D02*
X14606444Y-16387031D01*
X14606444Y-16387031D02*
X14596920Y-16377508D01*
X14596920Y-16377508D02*
X14577872Y-16367984D01*
X14577872Y-16367984D02*
X14539777Y-16367984D01*
X14539777Y-16367984D02*
X14520729Y-16377508D01*
X14520729Y-16377508D02*
X14511206Y-16387031D01*
X14511206Y-16387031D02*
X14501682Y-16406079D01*
X14501682Y-16406079D02*
X14501682Y-16453698D01*
X14501682Y-16453698D02*
X14511206Y-16472746D01*
X14511206Y-16472746D02*
X14520729Y-16482269D01*
X14520729Y-16482269D02*
X14539777Y-16491793D01*
X14539777Y-16491793D02*
X14577872Y-16491793D01*
X14577872Y-16491793D02*
X14596920Y-16482269D01*
X14596920Y-16482269D02*
X14606444Y-16472746D01*
X14606444Y-16472746D02*
X14615967Y-16453698D01*
X14796920Y-16367984D02*
X14701682Y-16367984D01*
X14701682Y-16367984D02*
X14692158Y-16463222D01*
X14692158Y-16463222D02*
X14701682Y-16453698D01*
X14701682Y-16453698D02*
X14720729Y-16444174D01*
X14720729Y-16444174D02*
X14768348Y-16444174D01*
X14768348Y-16444174D02*
X14787396Y-16453698D01*
X14787396Y-16453698D02*
X14796920Y-16463222D01*
X14796920Y-16463222D02*
X14806444Y-16482269D01*
X14806444Y-16482269D02*
X14806444Y-16529888D01*
X14806444Y-16529888D02*
X14796920Y-16548936D01*
X14796920Y-16548936D02*
X14787396Y-16558460D01*
X14787396Y-16558460D02*
X14768348Y-16567984D01*
X14768348Y-16567984D02*
X14720729Y-16567984D01*
X14720729Y-16567984D02*
X14701682Y-16558460D01*
X14701682Y-16558460D02*
X14692158Y-16548936D01*
X14882634Y-16367984D02*
X14882634Y-16406079D01*
X14958825Y-16367984D02*
X14958825Y-16406079D01*
X15254063Y-16644174D02*
X15244539Y-16634650D01*
X15244539Y-16634650D02*
X15225491Y-16606079D01*
X15225491Y-16606079D02*
X15215968Y-16587031D01*
X15215968Y-16587031D02*
X15206444Y-16558460D01*
X15206444Y-16558460D02*
X15196920Y-16510841D01*
X15196920Y-16510841D02*
X15196920Y-16472746D01*
X15196920Y-16472746D02*
X15206444Y-16425127D01*
X15206444Y-16425127D02*
X15215968Y-16396555D01*
X15215968Y-16396555D02*
X15225491Y-16377508D01*
X15225491Y-16377508D02*
X15244539Y-16348936D01*
X15244539Y-16348936D02*
X15254063Y-16339412D01*
X15435015Y-16567984D02*
X15320729Y-16567984D01*
X15377872Y-16567984D02*
X15377872Y-16367984D01*
X15377872Y-16367984D02*
X15358825Y-16396555D01*
X15358825Y-16396555D02*
X15339777Y-16415603D01*
X15339777Y-16415603D02*
X15320729Y-16425127D01*
X15511206Y-16387031D02*
X15520729Y-16377508D01*
X15520729Y-16377508D02*
X15539777Y-16367984D01*
X15539777Y-16367984D02*
X15587396Y-16367984D01*
X15587396Y-16367984D02*
X15606444Y-16377508D01*
X15606444Y-16377508D02*
X15615968Y-16387031D01*
X15615968Y-16387031D02*
X15625491Y-16406079D01*
X15625491Y-16406079D02*
X15625491Y-16425127D01*
X15625491Y-16425127D02*
X15615968Y-16453698D01*
X15615968Y-16453698D02*
X15501682Y-16567984D01*
X15501682Y-16567984D02*
X15625491Y-16567984D01*
X15863587Y-16567984D02*
X15863587Y-16367984D01*
X15949301Y-16567984D02*
X15949301Y-16463222D01*
X15949301Y-16463222D02*
X15939777Y-16444174D01*
X15939777Y-16444174D02*
X15920730Y-16434650D01*
X15920730Y-16434650D02*
X15892158Y-16434650D01*
X15892158Y-16434650D02*
X15873110Y-16444174D01*
X15873110Y-16444174D02*
X15863587Y-16453698D01*
X16073110Y-16567984D02*
X16054063Y-16558460D01*
X16054063Y-16558460D02*
X16044539Y-16548936D01*
X16044539Y-16548936D02*
X16035015Y-16529888D01*
X16035015Y-16529888D02*
X16035015Y-16472746D01*
X16035015Y-16472746D02*
X16044539Y-16453698D01*
X16044539Y-16453698D02*
X16054063Y-16444174D01*
X16054063Y-16444174D02*
X16073110Y-16434650D01*
X16073110Y-16434650D02*
X16101682Y-16434650D01*
X16101682Y-16434650D02*
X16120730Y-16444174D01*
X16120730Y-16444174D02*
X16130253Y-16453698D01*
X16130253Y-16453698D02*
X16139777Y-16472746D01*
X16139777Y-16472746D02*
X16139777Y-16529888D01*
X16139777Y-16529888D02*
X16130253Y-16548936D01*
X16130253Y-16548936D02*
X16120730Y-16558460D01*
X16120730Y-16558460D02*
X16101682Y-16567984D01*
X16101682Y-16567984D02*
X16073110Y-16567984D01*
X16254063Y-16567984D02*
X16235015Y-16558460D01*
X16235015Y-16558460D02*
X16225491Y-16539412D01*
X16225491Y-16539412D02*
X16225491Y-16367984D01*
X16406444Y-16558460D02*
X16387396Y-16567984D01*
X16387396Y-16567984D02*
X16349301Y-16567984D01*
X16349301Y-16567984D02*
X16330253Y-16558460D01*
X16330253Y-16558460D02*
X16320730Y-16539412D01*
X16320730Y-16539412D02*
X16320730Y-16463222D01*
X16320730Y-16463222D02*
X16330253Y-16444174D01*
X16330253Y-16444174D02*
X16349301Y-16434650D01*
X16349301Y-16434650D02*
X16387396Y-16434650D01*
X16387396Y-16434650D02*
X16406444Y-16444174D01*
X16406444Y-16444174D02*
X16415968Y-16463222D01*
X16415968Y-16463222D02*
X16415968Y-16482269D01*
X16415968Y-16482269D02*
X16320730Y-16501317D01*
X16492158Y-16558460D02*
X16511206Y-16567984D01*
X16511206Y-16567984D02*
X16549301Y-16567984D01*
X16549301Y-16567984D02*
X16568349Y-16558460D01*
X16568349Y-16558460D02*
X16577872Y-16539412D01*
X16577872Y-16539412D02*
X16577872Y-16529888D01*
X16577872Y-16529888D02*
X16568349Y-16510841D01*
X16568349Y-16510841D02*
X16549301Y-16501317D01*
X16549301Y-16501317D02*
X16520730Y-16501317D01*
X16520730Y-16501317D02*
X16501682Y-16491793D01*
X16501682Y-16491793D02*
X16492158Y-16472746D01*
X16492158Y-16472746D02*
X16492158Y-16463222D01*
X16492158Y-16463222D02*
X16501682Y-16444174D01*
X16501682Y-16444174D02*
X16520730Y-16434650D01*
X16520730Y-16434650D02*
X16549301Y-16434650D01*
X16549301Y-16434650D02*
X16568349Y-16444174D01*
X16644539Y-16644174D02*
X16654063Y-16634650D01*
X16654063Y-16634650D02*
X16673111Y-16606079D01*
X16673111Y-16606079D02*
X16682634Y-16587031D01*
X16682634Y-16587031D02*
X16692158Y-16558460D01*
X16692158Y-16558460D02*
X16701682Y-16510841D01*
X16701682Y-16510841D02*
X16701682Y-16472746D01*
X16701682Y-16472746D02*
X16692158Y-16425127D01*
X16692158Y-16425127D02*
X16682634Y-16396555D01*
X16682634Y-16396555D02*
X16673111Y-16377508D01*
X16673111Y-16377508D02*
X16654063Y-16348936D01*
X16654063Y-16348936D02*
X16644539Y-16339412D01*
D15*
X11667284Y-16768784D02*
X11667284Y-16712215D01*
X11610715Y-16712215D01*
X11610715Y-16768784D01*
X11667284Y-16768784D01*
D11*
X11977872Y-16631984D02*
X11996920Y-16631984D01*
X11996920Y-16631984D02*
X12015967Y-16641508D01*
X12015967Y-16641508D02*
X12025491Y-16651031D01*
X12025491Y-16651031D02*
X12035015Y-16670079D01*
X12035015Y-16670079D02*
X12044539Y-16708174D01*
X12044539Y-16708174D02*
X12044539Y-16755793D01*
X12044539Y-16755793D02*
X12035015Y-16793889D01*
X12035015Y-16793889D02*
X12025491Y-16812936D01*
X12025491Y-16812936D02*
X12015967Y-16822460D01*
X12015967Y-16822460D02*
X11996920Y-16831984D01*
X11996920Y-16831984D02*
X11977872Y-16831984D01*
X11977872Y-16831984D02*
X11958824Y-16822460D01*
X11958824Y-16822460D02*
X11949301Y-16812936D01*
X11949301Y-16812936D02*
X11939777Y-16793889D01*
X11939777Y-16793889D02*
X11930253Y-16755793D01*
X11930253Y-16755793D02*
X11930253Y-16708174D01*
X11930253Y-16708174D02*
X11939777Y-16670079D01*
X11939777Y-16670079D02*
X11949301Y-16651031D01*
X11949301Y-16651031D02*
X11958824Y-16641508D01*
X11958824Y-16641508D02*
X11977872Y-16631984D01*
X12130253Y-16812936D02*
X12139777Y-16822460D01*
X12139777Y-16822460D02*
X12130253Y-16831984D01*
X12130253Y-16831984D02*
X12120729Y-16822460D01*
X12120729Y-16822460D02*
X12130253Y-16812936D01*
X12130253Y-16812936D02*
X12130253Y-16831984D01*
X12254062Y-16717698D02*
X12235015Y-16708174D01*
X12235015Y-16708174D02*
X12225491Y-16698650D01*
X12225491Y-16698650D02*
X12215967Y-16679603D01*
X12215967Y-16679603D02*
X12215967Y-16670079D01*
X12215967Y-16670079D02*
X12225491Y-16651031D01*
X12225491Y-16651031D02*
X12235015Y-16641508D01*
X12235015Y-16641508D02*
X12254062Y-16631984D01*
X12254062Y-16631984D02*
X12292158Y-16631984D01*
X12292158Y-16631984D02*
X12311205Y-16641508D01*
X12311205Y-16641508D02*
X12320729Y-16651031D01*
X12320729Y-16651031D02*
X12330253Y-16670079D01*
X12330253Y-16670079D02*
X12330253Y-16679603D01*
X12330253Y-16679603D02*
X12320729Y-16698650D01*
X12320729Y-16698650D02*
X12311205Y-16708174D01*
X12311205Y-16708174D02*
X12292158Y-16717698D01*
X12292158Y-16717698D02*
X12254062Y-16717698D01*
X12254062Y-16717698D02*
X12235015Y-16727222D01*
X12235015Y-16727222D02*
X12225491Y-16736746D01*
X12225491Y-16736746D02*
X12215967Y-16755793D01*
X12215967Y-16755793D02*
X12215967Y-16793889D01*
X12215967Y-16793889D02*
X12225491Y-16812936D01*
X12225491Y-16812936D02*
X12235015Y-16822460D01*
X12235015Y-16822460D02*
X12254062Y-16831984D01*
X12254062Y-16831984D02*
X12292158Y-16831984D01*
X12292158Y-16831984D02*
X12311205Y-16822460D01*
X12311205Y-16822460D02*
X12320729Y-16812936D01*
X12320729Y-16812936D02*
X12330253Y-16793889D01*
X12330253Y-16793889D02*
X12330253Y-16755793D01*
X12330253Y-16755793D02*
X12320729Y-16736746D01*
X12320729Y-16736746D02*
X12311205Y-16727222D01*
X12311205Y-16727222D02*
X12292158Y-16717698D01*
X12454062Y-16631984D02*
X12473110Y-16631984D01*
X12473110Y-16631984D02*
X12492158Y-16641508D01*
X12492158Y-16641508D02*
X12501682Y-16651031D01*
X12501682Y-16651031D02*
X12511205Y-16670079D01*
X12511205Y-16670079D02*
X12520729Y-16708174D01*
X12520729Y-16708174D02*
X12520729Y-16755793D01*
X12520729Y-16755793D02*
X12511205Y-16793889D01*
X12511205Y-16793889D02*
X12501682Y-16812936D01*
X12501682Y-16812936D02*
X12492158Y-16822460D01*
X12492158Y-16822460D02*
X12473110Y-16831984D01*
X12473110Y-16831984D02*
X12454062Y-16831984D01*
X12454062Y-16831984D02*
X12435015Y-16822460D01*
X12435015Y-16822460D02*
X12425491Y-16812936D01*
X12425491Y-16812936D02*
X12415967Y-16793889D01*
X12415967Y-16793889D02*
X12406443Y-16755793D01*
X12406443Y-16755793D02*
X12406443Y-16708174D01*
X12406443Y-16708174D02*
X12415967Y-16670079D01*
X12415967Y-16670079D02*
X12425491Y-16651031D01*
X12425491Y-16651031D02*
X12435015Y-16641508D01*
X12435015Y-16641508D02*
X12454062Y-16631984D01*
X12644539Y-16631984D02*
X12663586Y-16631984D01*
X12663586Y-16631984D02*
X12682634Y-16641508D01*
X12682634Y-16641508D02*
X12692158Y-16651031D01*
X12692158Y-16651031D02*
X12701682Y-16670079D01*
X12701682Y-16670079D02*
X12711205Y-16708174D01*
X12711205Y-16708174D02*
X12711205Y-16755793D01*
X12711205Y-16755793D02*
X12701682Y-16793889D01*
X12701682Y-16793889D02*
X12692158Y-16812936D01*
X12692158Y-16812936D02*
X12682634Y-16822460D01*
X12682634Y-16822460D02*
X12663586Y-16831984D01*
X12663586Y-16831984D02*
X12644539Y-16831984D01*
X12644539Y-16831984D02*
X12625491Y-16822460D01*
X12625491Y-16822460D02*
X12615967Y-16812936D01*
X12615967Y-16812936D02*
X12606443Y-16793889D01*
X12606443Y-16793889D02*
X12596920Y-16755793D01*
X12596920Y-16755793D02*
X12596920Y-16708174D01*
X12596920Y-16708174D02*
X12606443Y-16670079D01*
X12606443Y-16670079D02*
X12615967Y-16651031D01*
X12615967Y-16651031D02*
X12625491Y-16641508D01*
X12625491Y-16641508D02*
X12644539Y-16631984D01*
X12796920Y-16831984D02*
X12796920Y-16698650D01*
X12796920Y-16717698D02*
X12806443Y-16708174D01*
X12806443Y-16708174D02*
X12825491Y-16698650D01*
X12825491Y-16698650D02*
X12854063Y-16698650D01*
X12854063Y-16698650D02*
X12873110Y-16708174D01*
X12873110Y-16708174D02*
X12882634Y-16727222D01*
X12882634Y-16727222D02*
X12882634Y-16831984D01*
X12882634Y-16727222D02*
X12892158Y-16708174D01*
X12892158Y-16708174D02*
X12911205Y-16698650D01*
X12911205Y-16698650D02*
X12939777Y-16698650D01*
X12939777Y-16698650D02*
X12958824Y-16708174D01*
X12958824Y-16708174D02*
X12968348Y-16727222D01*
X12968348Y-16727222D02*
X12968348Y-16831984D01*
X13063586Y-16831984D02*
X13063586Y-16698650D01*
X13063586Y-16717698D02*
X13073110Y-16708174D01*
X13073110Y-16708174D02*
X13092158Y-16698650D01*
X13092158Y-16698650D02*
X13120729Y-16698650D01*
X13120729Y-16698650D02*
X13139777Y-16708174D01*
X13139777Y-16708174D02*
X13149301Y-16727222D01*
X13149301Y-16727222D02*
X13149301Y-16831984D01*
X13149301Y-16727222D02*
X13158824Y-16708174D01*
X13158824Y-16708174D02*
X13177872Y-16698650D01*
X13177872Y-16698650D02*
X13206443Y-16698650D01*
X13206443Y-16698650D02*
X13225491Y-16708174D01*
X13225491Y-16708174D02*
X13235015Y-16727222D01*
X13235015Y-16727222D02*
X13235015Y-16831984D01*
X13625491Y-16622460D02*
X13454063Y-16879603D01*
X13882634Y-16631984D02*
X13901682Y-16631984D01*
X13901682Y-16631984D02*
X13920729Y-16641508D01*
X13920729Y-16641508D02*
X13930253Y-16651031D01*
X13930253Y-16651031D02*
X13939777Y-16670079D01*
X13939777Y-16670079D02*
X13949301Y-16708174D01*
X13949301Y-16708174D02*
X13949301Y-16755793D01*
X13949301Y-16755793D02*
X13939777Y-16793889D01*
X13939777Y-16793889D02*
X13930253Y-16812936D01*
X13930253Y-16812936D02*
X13920729Y-16822460D01*
X13920729Y-16822460D02*
X13901682Y-16831984D01*
X13901682Y-16831984D02*
X13882634Y-16831984D01*
X13882634Y-16831984D02*
X13863586Y-16822460D01*
X13863586Y-16822460D02*
X13854063Y-16812936D01*
X13854063Y-16812936D02*
X13844539Y-16793889D01*
X13844539Y-16793889D02*
X13835015Y-16755793D01*
X13835015Y-16755793D02*
X13835015Y-16708174D01*
X13835015Y-16708174D02*
X13844539Y-16670079D01*
X13844539Y-16670079D02*
X13854063Y-16651031D01*
X13854063Y-16651031D02*
X13863586Y-16641508D01*
X13863586Y-16641508D02*
X13882634Y-16631984D01*
X14035015Y-16812936D02*
X14044539Y-16822460D01*
X14044539Y-16822460D02*
X14035015Y-16831984D01*
X14035015Y-16831984D02*
X14025491Y-16822460D01*
X14025491Y-16822460D02*
X14035015Y-16812936D01*
X14035015Y-16812936D02*
X14035015Y-16831984D01*
X14168348Y-16631984D02*
X14187396Y-16631984D01*
X14187396Y-16631984D02*
X14206444Y-16641508D01*
X14206444Y-16641508D02*
X14215967Y-16651031D01*
X14215967Y-16651031D02*
X14225491Y-16670079D01*
X14225491Y-16670079D02*
X14235015Y-16708174D01*
X14235015Y-16708174D02*
X14235015Y-16755793D01*
X14235015Y-16755793D02*
X14225491Y-16793889D01*
X14225491Y-16793889D02*
X14215967Y-16812936D01*
X14215967Y-16812936D02*
X14206444Y-16822460D01*
X14206444Y-16822460D02*
X14187396Y-16831984D01*
X14187396Y-16831984D02*
X14168348Y-16831984D01*
X14168348Y-16831984D02*
X14149301Y-16822460D01*
X14149301Y-16822460D02*
X14139777Y-16812936D01*
X14139777Y-16812936D02*
X14130253Y-16793889D01*
X14130253Y-16793889D02*
X14120729Y-16755793D01*
X14120729Y-16755793D02*
X14120729Y-16708174D01*
X14120729Y-16708174D02*
X14130253Y-16670079D01*
X14130253Y-16670079D02*
X14139777Y-16651031D01*
X14139777Y-16651031D02*
X14149301Y-16641508D01*
X14149301Y-16641508D02*
X14168348Y-16631984D01*
X14301682Y-16631984D02*
X14425491Y-16631984D01*
X14425491Y-16631984D02*
X14358825Y-16708174D01*
X14358825Y-16708174D02*
X14387396Y-16708174D01*
X14387396Y-16708174D02*
X14406444Y-16717698D01*
X14406444Y-16717698D02*
X14415967Y-16727222D01*
X14415967Y-16727222D02*
X14425491Y-16746269D01*
X14425491Y-16746269D02*
X14425491Y-16793889D01*
X14425491Y-16793889D02*
X14415967Y-16812936D01*
X14415967Y-16812936D02*
X14406444Y-16822460D01*
X14406444Y-16822460D02*
X14387396Y-16831984D01*
X14387396Y-16831984D02*
X14330253Y-16831984D01*
X14330253Y-16831984D02*
X14311206Y-16822460D01*
X14311206Y-16822460D02*
X14301682Y-16812936D01*
X14615967Y-16831984D02*
X14501682Y-16831984D01*
X14558825Y-16831984D02*
X14558825Y-16631984D01*
X14558825Y-16631984D02*
X14539777Y-16660555D01*
X14539777Y-16660555D02*
X14520729Y-16679603D01*
X14520729Y-16679603D02*
X14501682Y-16689127D01*
X14796920Y-16631984D02*
X14701682Y-16631984D01*
X14701682Y-16631984D02*
X14692158Y-16727222D01*
X14692158Y-16727222D02*
X14701682Y-16717698D01*
X14701682Y-16717698D02*
X14720729Y-16708174D01*
X14720729Y-16708174D02*
X14768348Y-16708174D01*
X14768348Y-16708174D02*
X14787396Y-16717698D01*
X14787396Y-16717698D02*
X14796920Y-16727222D01*
X14796920Y-16727222D02*
X14806444Y-16746269D01*
X14806444Y-16746269D02*
X14806444Y-16793889D01*
X14806444Y-16793889D02*
X14796920Y-16812936D01*
X14796920Y-16812936D02*
X14787396Y-16822460D01*
X14787396Y-16822460D02*
X14768348Y-16831984D01*
X14768348Y-16831984D02*
X14720729Y-16831984D01*
X14720729Y-16831984D02*
X14701682Y-16822460D01*
X14701682Y-16822460D02*
X14692158Y-16812936D01*
X14882634Y-16631984D02*
X14882634Y-16670079D01*
X14958825Y-16631984D02*
X14958825Y-16670079D01*
X15254063Y-16908174D02*
X15244539Y-16898650D01*
X15244539Y-16898650D02*
X15225491Y-16870079D01*
X15225491Y-16870079D02*
X15215968Y-16851031D01*
X15215968Y-16851031D02*
X15206444Y-16822460D01*
X15206444Y-16822460D02*
X15196920Y-16774841D01*
X15196920Y-16774841D02*
X15196920Y-16736746D01*
X15196920Y-16736746D02*
X15206444Y-16689127D01*
X15206444Y-16689127D02*
X15215968Y-16660555D01*
X15215968Y-16660555D02*
X15225491Y-16641508D01*
X15225491Y-16641508D02*
X15244539Y-16612936D01*
X15244539Y-16612936D02*
X15254063Y-16603412D01*
X15435015Y-16831984D02*
X15320729Y-16831984D01*
X15377872Y-16831984D02*
X15377872Y-16631984D01*
X15377872Y-16631984D02*
X15358825Y-16660555D01*
X15358825Y-16660555D02*
X15339777Y-16679603D01*
X15339777Y-16679603D02*
X15320729Y-16689127D01*
X15501682Y-16631984D02*
X15625491Y-16631984D01*
X15625491Y-16631984D02*
X15558825Y-16708174D01*
X15558825Y-16708174D02*
X15587396Y-16708174D01*
X15587396Y-16708174D02*
X15606444Y-16717698D01*
X15606444Y-16717698D02*
X15615968Y-16727222D01*
X15615968Y-16727222D02*
X15625491Y-16746269D01*
X15625491Y-16746269D02*
X15625491Y-16793889D01*
X15625491Y-16793889D02*
X15615968Y-16812936D01*
X15615968Y-16812936D02*
X15606444Y-16822460D01*
X15606444Y-16822460D02*
X15587396Y-16831984D01*
X15587396Y-16831984D02*
X15530253Y-16831984D01*
X15530253Y-16831984D02*
X15511206Y-16822460D01*
X15511206Y-16822460D02*
X15501682Y-16812936D01*
X15701682Y-16651031D02*
X15711206Y-16641508D01*
X15711206Y-16641508D02*
X15730253Y-16631984D01*
X15730253Y-16631984D02*
X15777872Y-16631984D01*
X15777872Y-16631984D02*
X15796920Y-16641508D01*
X15796920Y-16641508D02*
X15806444Y-16651031D01*
X15806444Y-16651031D02*
X15815968Y-16670079D01*
X15815968Y-16670079D02*
X15815968Y-16689127D01*
X15815968Y-16689127D02*
X15806444Y-16717698D01*
X15806444Y-16717698D02*
X15692158Y-16831984D01*
X15692158Y-16831984D02*
X15815968Y-16831984D01*
X16054063Y-16831984D02*
X16054063Y-16631984D01*
X16139777Y-16831984D02*
X16139777Y-16727222D01*
X16139777Y-16727222D02*
X16130253Y-16708174D01*
X16130253Y-16708174D02*
X16111206Y-16698650D01*
X16111206Y-16698650D02*
X16082634Y-16698650D01*
X16082634Y-16698650D02*
X16063587Y-16708174D01*
X16063587Y-16708174D02*
X16054063Y-16717698D01*
X16263587Y-16831984D02*
X16244539Y-16822460D01*
X16244539Y-16822460D02*
X16235015Y-16812936D01*
X16235015Y-16812936D02*
X16225491Y-16793889D01*
X16225491Y-16793889D02*
X16225491Y-16736746D01*
X16225491Y-16736746D02*
X16235015Y-16717698D01*
X16235015Y-16717698D02*
X16244539Y-16708174D01*
X16244539Y-16708174D02*
X16263587Y-16698650D01*
X16263587Y-16698650D02*
X16292158Y-16698650D01*
X16292158Y-16698650D02*
X16311206Y-16708174D01*
X16311206Y-16708174D02*
X16320730Y-16717698D01*
X16320730Y-16717698D02*
X16330253Y-16736746D01*
X16330253Y-16736746D02*
X16330253Y-16793889D01*
X16330253Y-16793889D02*
X16320730Y-16812936D01*
X16320730Y-16812936D02*
X16311206Y-16822460D01*
X16311206Y-16822460D02*
X16292158Y-16831984D01*
X16292158Y-16831984D02*
X16263587Y-16831984D01*
X16444539Y-16831984D02*
X16425491Y-16822460D01*
X16425491Y-16822460D02*
X16415968Y-16803412D01*
X16415968Y-16803412D02*
X16415968Y-16631984D01*
X16596920Y-16822460D02*
X16577872Y-16831984D01*
X16577872Y-16831984D02*
X16539777Y-16831984D01*
X16539777Y-16831984D02*
X16520730Y-16822460D01*
X16520730Y-16822460D02*
X16511206Y-16803412D01*
X16511206Y-16803412D02*
X16511206Y-16727222D01*
X16511206Y-16727222D02*
X16520730Y-16708174D01*
X16520730Y-16708174D02*
X16539777Y-16698650D01*
X16539777Y-16698650D02*
X16577872Y-16698650D01*
X16577872Y-16698650D02*
X16596920Y-16708174D01*
X16596920Y-16708174D02*
X16606444Y-16727222D01*
X16606444Y-16727222D02*
X16606444Y-16746269D01*
X16606444Y-16746269D02*
X16511206Y-16765317D01*
X16682634Y-16822460D02*
X16701682Y-16831984D01*
X16701682Y-16831984D02*
X16739777Y-16831984D01*
X16739777Y-16831984D02*
X16758825Y-16822460D01*
X16758825Y-16822460D02*
X16768349Y-16803412D01*
X16768349Y-16803412D02*
X16768349Y-16793889D01*
X16768349Y-16793889D02*
X16758825Y-16774841D01*
X16758825Y-16774841D02*
X16739777Y-16765317D01*
X16739777Y-16765317D02*
X16711206Y-16765317D01*
X16711206Y-16765317D02*
X16692158Y-16755793D01*
X16692158Y-16755793D02*
X16682634Y-16736746D01*
X16682634Y-16736746D02*
X16682634Y-16727222D01*
X16682634Y-16727222D02*
X16692158Y-16708174D01*
X16692158Y-16708174D02*
X16711206Y-16698650D01*
X16711206Y-16698650D02*
X16739777Y-16698650D01*
X16739777Y-16698650D02*
X16758825Y-16708174D01*
X16835015Y-16908174D02*
X16844539Y-16898650D01*
X16844539Y-16898650D02*
X16863587Y-16870079D01*
X16863587Y-16870079D02*
X16873111Y-16851031D01*
X16873111Y-16851031D02*
X16882634Y-16822460D01*
X16882634Y-16822460D02*
X16892158Y-16774841D01*
X16892158Y-16774841D02*
X16892158Y-16736746D01*
X16892158Y-16736746D02*
X16882634Y-16689127D01*
X16882634Y-16689127D02*
X16873111Y-16660555D01*
X16873111Y-16660555D02*
X16863587Y-16641508D01*
X16863587Y-16641508D02*
X16844539Y-16612936D01*
X16844539Y-16612936D02*
X16835015Y-16603412D01*
D10*
X11629000Y-17054500D02*
X11679000Y-17004500D01*
X11629000Y-16954500D01*
X11579000Y-17004500D01*
X11629000Y-17054500D01*
D11*
X12044539Y-17095984D02*
X11930253Y-17095984D01*
X11987396Y-17095984D02*
X11987396Y-16895984D01*
X11987396Y-16895984D02*
X11968348Y-16924555D01*
X11968348Y-16924555D02*
X11949301Y-16943603D01*
X11949301Y-16943603D02*
X11930253Y-16953127D01*
X12130253Y-17076936D02*
X12139777Y-17086460D01*
X12139777Y-17086460D02*
X12130253Y-17095984D01*
X12130253Y-17095984D02*
X12120729Y-17086460D01*
X12120729Y-17086460D02*
X12130253Y-17076936D01*
X12130253Y-17076936D02*
X12130253Y-17095984D01*
X12263586Y-16895984D02*
X12282634Y-16895984D01*
X12282634Y-16895984D02*
X12301682Y-16905508D01*
X12301682Y-16905508D02*
X12311205Y-16915031D01*
X12311205Y-16915031D02*
X12320729Y-16934079D01*
X12320729Y-16934079D02*
X12330253Y-16972174D01*
X12330253Y-16972174D02*
X12330253Y-17019793D01*
X12330253Y-17019793D02*
X12320729Y-17057889D01*
X12320729Y-17057889D02*
X12311205Y-17076936D01*
X12311205Y-17076936D02*
X12301682Y-17086460D01*
X12301682Y-17086460D02*
X12282634Y-17095984D01*
X12282634Y-17095984D02*
X12263586Y-17095984D01*
X12263586Y-17095984D02*
X12244539Y-17086460D01*
X12244539Y-17086460D02*
X12235015Y-17076936D01*
X12235015Y-17076936D02*
X12225491Y-17057889D01*
X12225491Y-17057889D02*
X12215967Y-17019793D01*
X12215967Y-17019793D02*
X12215967Y-16972174D01*
X12215967Y-16972174D02*
X12225491Y-16934079D01*
X12225491Y-16934079D02*
X12235015Y-16915031D01*
X12235015Y-16915031D02*
X12244539Y-16905508D01*
X12244539Y-16905508D02*
X12263586Y-16895984D01*
X12454062Y-16895984D02*
X12473110Y-16895984D01*
X12473110Y-16895984D02*
X12492158Y-16905508D01*
X12492158Y-16905508D02*
X12501682Y-16915031D01*
X12501682Y-16915031D02*
X12511205Y-16934079D01*
X12511205Y-16934079D02*
X12520729Y-16972174D01*
X12520729Y-16972174D02*
X12520729Y-17019793D01*
X12520729Y-17019793D02*
X12511205Y-17057889D01*
X12511205Y-17057889D02*
X12501682Y-17076936D01*
X12501682Y-17076936D02*
X12492158Y-17086460D01*
X12492158Y-17086460D02*
X12473110Y-17095984D01*
X12473110Y-17095984D02*
X12454062Y-17095984D01*
X12454062Y-17095984D02*
X12435015Y-17086460D01*
X12435015Y-17086460D02*
X12425491Y-17076936D01*
X12425491Y-17076936D02*
X12415967Y-17057889D01*
X12415967Y-17057889D02*
X12406443Y-17019793D01*
X12406443Y-17019793D02*
X12406443Y-16972174D01*
X12406443Y-16972174D02*
X12415967Y-16934079D01*
X12415967Y-16934079D02*
X12425491Y-16915031D01*
X12425491Y-16915031D02*
X12435015Y-16905508D01*
X12435015Y-16905508D02*
X12454062Y-16895984D01*
X12644539Y-16895984D02*
X12663586Y-16895984D01*
X12663586Y-16895984D02*
X12682634Y-16905508D01*
X12682634Y-16905508D02*
X12692158Y-16915031D01*
X12692158Y-16915031D02*
X12701682Y-16934079D01*
X12701682Y-16934079D02*
X12711205Y-16972174D01*
X12711205Y-16972174D02*
X12711205Y-17019793D01*
X12711205Y-17019793D02*
X12701682Y-17057889D01*
X12701682Y-17057889D02*
X12692158Y-17076936D01*
X12692158Y-17076936D02*
X12682634Y-17086460D01*
X12682634Y-17086460D02*
X12663586Y-17095984D01*
X12663586Y-17095984D02*
X12644539Y-17095984D01*
X12644539Y-17095984D02*
X12625491Y-17086460D01*
X12625491Y-17086460D02*
X12615967Y-17076936D01*
X12615967Y-17076936D02*
X12606443Y-17057889D01*
X12606443Y-17057889D02*
X12596920Y-17019793D01*
X12596920Y-17019793D02*
X12596920Y-16972174D01*
X12596920Y-16972174D02*
X12606443Y-16934079D01*
X12606443Y-16934079D02*
X12615967Y-16915031D01*
X12615967Y-16915031D02*
X12625491Y-16905508D01*
X12625491Y-16905508D02*
X12644539Y-16895984D01*
X12796920Y-17095984D02*
X12796920Y-16962650D01*
X12796920Y-16981698D02*
X12806443Y-16972174D01*
X12806443Y-16972174D02*
X12825491Y-16962650D01*
X12825491Y-16962650D02*
X12854063Y-16962650D01*
X12854063Y-16962650D02*
X12873110Y-16972174D01*
X12873110Y-16972174D02*
X12882634Y-16991222D01*
X12882634Y-16991222D02*
X12882634Y-17095984D01*
X12882634Y-16991222D02*
X12892158Y-16972174D01*
X12892158Y-16972174D02*
X12911205Y-16962650D01*
X12911205Y-16962650D02*
X12939777Y-16962650D01*
X12939777Y-16962650D02*
X12958824Y-16972174D01*
X12958824Y-16972174D02*
X12968348Y-16991222D01*
X12968348Y-16991222D02*
X12968348Y-17095984D01*
X13063586Y-17095984D02*
X13063586Y-16962650D01*
X13063586Y-16981698D02*
X13073110Y-16972174D01*
X13073110Y-16972174D02*
X13092158Y-16962650D01*
X13092158Y-16962650D02*
X13120729Y-16962650D01*
X13120729Y-16962650D02*
X13139777Y-16972174D01*
X13139777Y-16972174D02*
X13149301Y-16991222D01*
X13149301Y-16991222D02*
X13149301Y-17095984D01*
X13149301Y-16991222D02*
X13158824Y-16972174D01*
X13158824Y-16972174D02*
X13177872Y-16962650D01*
X13177872Y-16962650D02*
X13206443Y-16962650D01*
X13206443Y-16962650D02*
X13225491Y-16972174D01*
X13225491Y-16972174D02*
X13235015Y-16991222D01*
X13235015Y-16991222D02*
X13235015Y-17095984D01*
X13625491Y-16886460D02*
X13454063Y-17143603D01*
X13882634Y-16895984D02*
X13901682Y-16895984D01*
X13901682Y-16895984D02*
X13920729Y-16905508D01*
X13920729Y-16905508D02*
X13930253Y-16915031D01*
X13930253Y-16915031D02*
X13939777Y-16934079D01*
X13939777Y-16934079D02*
X13949301Y-16972174D01*
X13949301Y-16972174D02*
X13949301Y-17019793D01*
X13949301Y-17019793D02*
X13939777Y-17057889D01*
X13939777Y-17057889D02*
X13930253Y-17076936D01*
X13930253Y-17076936D02*
X13920729Y-17086460D01*
X13920729Y-17086460D02*
X13901682Y-17095984D01*
X13901682Y-17095984D02*
X13882634Y-17095984D01*
X13882634Y-17095984D02*
X13863586Y-17086460D01*
X13863586Y-17086460D02*
X13854063Y-17076936D01*
X13854063Y-17076936D02*
X13844539Y-17057889D01*
X13844539Y-17057889D02*
X13835015Y-17019793D01*
X13835015Y-17019793D02*
X13835015Y-16972174D01*
X13835015Y-16972174D02*
X13844539Y-16934079D01*
X13844539Y-16934079D02*
X13854063Y-16915031D01*
X13854063Y-16915031D02*
X13863586Y-16905508D01*
X13863586Y-16905508D02*
X13882634Y-16895984D01*
X14035015Y-17076936D02*
X14044539Y-17086460D01*
X14044539Y-17086460D02*
X14035015Y-17095984D01*
X14035015Y-17095984D02*
X14025491Y-17086460D01*
X14025491Y-17086460D02*
X14035015Y-17076936D01*
X14035015Y-17076936D02*
X14035015Y-17095984D01*
X14168348Y-16895984D02*
X14187396Y-16895984D01*
X14187396Y-16895984D02*
X14206444Y-16905508D01*
X14206444Y-16905508D02*
X14215967Y-16915031D01*
X14215967Y-16915031D02*
X14225491Y-16934079D01*
X14225491Y-16934079D02*
X14235015Y-16972174D01*
X14235015Y-16972174D02*
X14235015Y-17019793D01*
X14235015Y-17019793D02*
X14225491Y-17057889D01*
X14225491Y-17057889D02*
X14215967Y-17076936D01*
X14215967Y-17076936D02*
X14206444Y-17086460D01*
X14206444Y-17086460D02*
X14187396Y-17095984D01*
X14187396Y-17095984D02*
X14168348Y-17095984D01*
X14168348Y-17095984D02*
X14149301Y-17086460D01*
X14149301Y-17086460D02*
X14139777Y-17076936D01*
X14139777Y-17076936D02*
X14130253Y-17057889D01*
X14130253Y-17057889D02*
X14120729Y-17019793D01*
X14120729Y-17019793D02*
X14120729Y-16972174D01*
X14120729Y-16972174D02*
X14130253Y-16934079D01*
X14130253Y-16934079D02*
X14139777Y-16915031D01*
X14139777Y-16915031D02*
X14149301Y-16905508D01*
X14149301Y-16905508D02*
X14168348Y-16895984D01*
X14301682Y-16895984D02*
X14425491Y-16895984D01*
X14425491Y-16895984D02*
X14358825Y-16972174D01*
X14358825Y-16972174D02*
X14387396Y-16972174D01*
X14387396Y-16972174D02*
X14406444Y-16981698D01*
X14406444Y-16981698D02*
X14415967Y-16991222D01*
X14415967Y-16991222D02*
X14425491Y-17010270D01*
X14425491Y-17010270D02*
X14425491Y-17057889D01*
X14425491Y-17057889D02*
X14415967Y-17076936D01*
X14415967Y-17076936D02*
X14406444Y-17086460D01*
X14406444Y-17086460D02*
X14387396Y-17095984D01*
X14387396Y-17095984D02*
X14330253Y-17095984D01*
X14330253Y-17095984D02*
X14311206Y-17086460D01*
X14311206Y-17086460D02*
X14301682Y-17076936D01*
X14520729Y-17095984D02*
X14558825Y-17095984D01*
X14558825Y-17095984D02*
X14577872Y-17086460D01*
X14577872Y-17086460D02*
X14587396Y-17076936D01*
X14587396Y-17076936D02*
X14606444Y-17048365D01*
X14606444Y-17048365D02*
X14615967Y-17010270D01*
X14615967Y-17010270D02*
X14615967Y-16934079D01*
X14615967Y-16934079D02*
X14606444Y-16915031D01*
X14606444Y-16915031D02*
X14596920Y-16905508D01*
X14596920Y-16905508D02*
X14577872Y-16895984D01*
X14577872Y-16895984D02*
X14539777Y-16895984D01*
X14539777Y-16895984D02*
X14520729Y-16905508D01*
X14520729Y-16905508D02*
X14511206Y-16915031D01*
X14511206Y-16915031D02*
X14501682Y-16934079D01*
X14501682Y-16934079D02*
X14501682Y-16981698D01*
X14501682Y-16981698D02*
X14511206Y-17000746D01*
X14511206Y-17000746D02*
X14520729Y-17010270D01*
X14520729Y-17010270D02*
X14539777Y-17019793D01*
X14539777Y-17019793D02*
X14577872Y-17019793D01*
X14577872Y-17019793D02*
X14596920Y-17010270D01*
X14596920Y-17010270D02*
X14606444Y-17000746D01*
X14606444Y-17000746D02*
X14615967Y-16981698D01*
X14787396Y-16962650D02*
X14787396Y-17095984D01*
X14739777Y-16886460D02*
X14692158Y-17029317D01*
X14692158Y-17029317D02*
X14815967Y-17029317D01*
X14882634Y-16895984D02*
X14882634Y-16934079D01*
X14958825Y-16895984D02*
X14958825Y-16934079D01*
X15254063Y-17172174D02*
X15244539Y-17162650D01*
X15244539Y-17162650D02*
X15225491Y-17134079D01*
X15225491Y-17134079D02*
X15215968Y-17115031D01*
X15215968Y-17115031D02*
X15206444Y-17086460D01*
X15206444Y-17086460D02*
X15196920Y-17038841D01*
X15196920Y-17038841D02*
X15196920Y-17000746D01*
X15196920Y-17000746D02*
X15206444Y-16953127D01*
X15206444Y-16953127D02*
X15215968Y-16924555D01*
X15215968Y-16924555D02*
X15225491Y-16905508D01*
X15225491Y-16905508D02*
X15244539Y-16876936D01*
X15244539Y-16876936D02*
X15254063Y-16867412D01*
X15415968Y-16962650D02*
X15415968Y-17095984D01*
X15368348Y-16886460D02*
X15320729Y-17029317D01*
X15320729Y-17029317D02*
X15444539Y-17029317D01*
X15501682Y-16895984D02*
X15635015Y-16895984D01*
X15635015Y-16895984D02*
X15549301Y-17095984D01*
X15863587Y-17095984D02*
X15863587Y-16895984D01*
X15949301Y-17095984D02*
X15949301Y-16991222D01*
X15949301Y-16991222D02*
X15939777Y-16972174D01*
X15939777Y-16972174D02*
X15920730Y-16962650D01*
X15920730Y-16962650D02*
X15892158Y-16962650D01*
X15892158Y-16962650D02*
X15873110Y-16972174D01*
X15873110Y-16972174D02*
X15863587Y-16981698D01*
X16073110Y-17095984D02*
X16054063Y-17086460D01*
X16054063Y-17086460D02*
X16044539Y-17076936D01*
X16044539Y-17076936D02*
X16035015Y-17057889D01*
X16035015Y-17057889D02*
X16035015Y-17000746D01*
X16035015Y-17000746D02*
X16044539Y-16981698D01*
X16044539Y-16981698D02*
X16054063Y-16972174D01*
X16054063Y-16972174D02*
X16073110Y-16962650D01*
X16073110Y-16962650D02*
X16101682Y-16962650D01*
X16101682Y-16962650D02*
X16120730Y-16972174D01*
X16120730Y-16972174D02*
X16130253Y-16981698D01*
X16130253Y-16981698D02*
X16139777Y-17000746D01*
X16139777Y-17000746D02*
X16139777Y-17057889D01*
X16139777Y-17057889D02*
X16130253Y-17076936D01*
X16130253Y-17076936D02*
X16120730Y-17086460D01*
X16120730Y-17086460D02*
X16101682Y-17095984D01*
X16101682Y-17095984D02*
X16073110Y-17095984D01*
X16254063Y-17095984D02*
X16235015Y-17086460D01*
X16235015Y-17086460D02*
X16225491Y-17067412D01*
X16225491Y-17067412D02*
X16225491Y-16895984D01*
X16406444Y-17086460D02*
X16387396Y-17095984D01*
X16387396Y-17095984D02*
X16349301Y-17095984D01*
X16349301Y-17095984D02*
X16330253Y-17086460D01*
X16330253Y-17086460D02*
X16320730Y-17067412D01*
X16320730Y-17067412D02*
X16320730Y-16991222D01*
X16320730Y-16991222D02*
X16330253Y-16972174D01*
X16330253Y-16972174D02*
X16349301Y-16962650D01*
X16349301Y-16962650D02*
X16387396Y-16962650D01*
X16387396Y-16962650D02*
X16406444Y-16972174D01*
X16406444Y-16972174D02*
X16415968Y-16991222D01*
X16415968Y-16991222D02*
X16415968Y-17010270D01*
X16415968Y-17010270D02*
X16320730Y-17029317D01*
X16492158Y-17086460D02*
X16511206Y-17095984D01*
X16511206Y-17095984D02*
X16549301Y-17095984D01*
X16549301Y-17095984D02*
X16568349Y-17086460D01*
X16568349Y-17086460D02*
X16577872Y-17067412D01*
X16577872Y-17067412D02*
X16577872Y-17057889D01*
X16577872Y-17057889D02*
X16568349Y-17038841D01*
X16568349Y-17038841D02*
X16549301Y-17029317D01*
X16549301Y-17029317D02*
X16520730Y-17029317D01*
X16520730Y-17029317D02*
X16501682Y-17019793D01*
X16501682Y-17019793D02*
X16492158Y-17000746D01*
X16492158Y-17000746D02*
X16492158Y-16991222D01*
X16492158Y-16991222D02*
X16501682Y-16972174D01*
X16501682Y-16972174D02*
X16520730Y-16962650D01*
X16520730Y-16962650D02*
X16549301Y-16962650D01*
X16549301Y-16962650D02*
X16568349Y-16972174D01*
X16644539Y-17172174D02*
X16654063Y-17162650D01*
X16654063Y-17162650D02*
X16673111Y-17134079D01*
X16673111Y-17134079D02*
X16682634Y-17115031D01*
X16682634Y-17115031D02*
X16692158Y-17086460D01*
X16692158Y-17086460D02*
X16701682Y-17038841D01*
X16701682Y-17038841D02*
X16701682Y-17000746D01*
X16701682Y-17000746D02*
X16692158Y-16953127D01*
X16692158Y-16953127D02*
X16682634Y-16924555D01*
X16682634Y-16924555D02*
X16673111Y-16905508D01*
X16673111Y-16905508D02*
X16654063Y-16876936D01*
X16654063Y-16876936D02*
X16644539Y-16867412D01*
D16*
X11529000Y-17193500D02*
X11679000Y-17343500D01*
X11679000Y-17193500D02*
X11529000Y-17343500D01*
X11679000Y-17268500D02*
G75*
G03*
X11679000Y-17268500I-75000J0D01*
G01*
D11*
X12044539Y-17359984D02*
X11930253Y-17359984D01*
X11987396Y-17359984D02*
X11987396Y-17159984D01*
X11987396Y-17159984D02*
X11968348Y-17188555D01*
X11968348Y-17188555D02*
X11949301Y-17207603D01*
X11949301Y-17207603D02*
X11930253Y-17217127D01*
X12130253Y-17340936D02*
X12139777Y-17350460D01*
X12139777Y-17350460D02*
X12130253Y-17359984D01*
X12130253Y-17359984D02*
X12120729Y-17350460D01*
X12120729Y-17350460D02*
X12130253Y-17340936D01*
X12130253Y-17340936D02*
X12130253Y-17359984D01*
X12320729Y-17159984D02*
X12225491Y-17159984D01*
X12225491Y-17159984D02*
X12215967Y-17255222D01*
X12215967Y-17255222D02*
X12225491Y-17245698D01*
X12225491Y-17245698D02*
X12244539Y-17236174D01*
X12244539Y-17236174D02*
X12292158Y-17236174D01*
X12292158Y-17236174D02*
X12311205Y-17245698D01*
X12311205Y-17245698D02*
X12320729Y-17255222D01*
X12320729Y-17255222D02*
X12330253Y-17274270D01*
X12330253Y-17274270D02*
X12330253Y-17321889D01*
X12330253Y-17321889D02*
X12320729Y-17340936D01*
X12320729Y-17340936D02*
X12311205Y-17350460D01*
X12311205Y-17350460D02*
X12292158Y-17359984D01*
X12292158Y-17359984D02*
X12244539Y-17359984D01*
X12244539Y-17359984D02*
X12225491Y-17350460D01*
X12225491Y-17350460D02*
X12215967Y-17340936D01*
X12454062Y-17159984D02*
X12473110Y-17159984D01*
X12473110Y-17159984D02*
X12492158Y-17169508D01*
X12492158Y-17169508D02*
X12501682Y-17179031D01*
X12501682Y-17179031D02*
X12511205Y-17198079D01*
X12511205Y-17198079D02*
X12520729Y-17236174D01*
X12520729Y-17236174D02*
X12520729Y-17283793D01*
X12520729Y-17283793D02*
X12511205Y-17321889D01*
X12511205Y-17321889D02*
X12501682Y-17340936D01*
X12501682Y-17340936D02*
X12492158Y-17350460D01*
X12492158Y-17350460D02*
X12473110Y-17359984D01*
X12473110Y-17359984D02*
X12454062Y-17359984D01*
X12454062Y-17359984D02*
X12435015Y-17350460D01*
X12435015Y-17350460D02*
X12425491Y-17340936D01*
X12425491Y-17340936D02*
X12415967Y-17321889D01*
X12415967Y-17321889D02*
X12406443Y-17283793D01*
X12406443Y-17283793D02*
X12406443Y-17236174D01*
X12406443Y-17236174D02*
X12415967Y-17198079D01*
X12415967Y-17198079D02*
X12425491Y-17179031D01*
X12425491Y-17179031D02*
X12435015Y-17169508D01*
X12435015Y-17169508D02*
X12454062Y-17159984D01*
X12644539Y-17159984D02*
X12663586Y-17159984D01*
X12663586Y-17159984D02*
X12682634Y-17169508D01*
X12682634Y-17169508D02*
X12692158Y-17179031D01*
X12692158Y-17179031D02*
X12701682Y-17198079D01*
X12701682Y-17198079D02*
X12711205Y-17236174D01*
X12711205Y-17236174D02*
X12711205Y-17283793D01*
X12711205Y-17283793D02*
X12701682Y-17321889D01*
X12701682Y-17321889D02*
X12692158Y-17340936D01*
X12692158Y-17340936D02*
X12682634Y-17350460D01*
X12682634Y-17350460D02*
X12663586Y-17359984D01*
X12663586Y-17359984D02*
X12644539Y-17359984D01*
X12644539Y-17359984D02*
X12625491Y-17350460D01*
X12625491Y-17350460D02*
X12615967Y-17340936D01*
X12615967Y-17340936D02*
X12606443Y-17321889D01*
X12606443Y-17321889D02*
X12596920Y-17283793D01*
X12596920Y-17283793D02*
X12596920Y-17236174D01*
X12596920Y-17236174D02*
X12606443Y-17198079D01*
X12606443Y-17198079D02*
X12615967Y-17179031D01*
X12615967Y-17179031D02*
X12625491Y-17169508D01*
X12625491Y-17169508D02*
X12644539Y-17159984D01*
X12796920Y-17359984D02*
X12796920Y-17226650D01*
X12796920Y-17245698D02*
X12806443Y-17236174D01*
X12806443Y-17236174D02*
X12825491Y-17226650D01*
X12825491Y-17226650D02*
X12854063Y-17226650D01*
X12854063Y-17226650D02*
X12873110Y-17236174D01*
X12873110Y-17236174D02*
X12882634Y-17255222D01*
X12882634Y-17255222D02*
X12882634Y-17359984D01*
X12882634Y-17255222D02*
X12892158Y-17236174D01*
X12892158Y-17236174D02*
X12911205Y-17226650D01*
X12911205Y-17226650D02*
X12939777Y-17226650D01*
X12939777Y-17226650D02*
X12958824Y-17236174D01*
X12958824Y-17236174D02*
X12968348Y-17255222D01*
X12968348Y-17255222D02*
X12968348Y-17359984D01*
X13063586Y-17359984D02*
X13063586Y-17226650D01*
X13063586Y-17245698D02*
X13073110Y-17236174D01*
X13073110Y-17236174D02*
X13092158Y-17226650D01*
X13092158Y-17226650D02*
X13120729Y-17226650D01*
X13120729Y-17226650D02*
X13139777Y-17236174D01*
X13139777Y-17236174D02*
X13149301Y-17255222D01*
X13149301Y-17255222D02*
X13149301Y-17359984D01*
X13149301Y-17255222D02*
X13158824Y-17236174D01*
X13158824Y-17236174D02*
X13177872Y-17226650D01*
X13177872Y-17226650D02*
X13206443Y-17226650D01*
X13206443Y-17226650D02*
X13225491Y-17236174D01*
X13225491Y-17236174D02*
X13235015Y-17255222D01*
X13235015Y-17255222D02*
X13235015Y-17359984D01*
X13625491Y-17150460D02*
X13454063Y-17407603D01*
X13882634Y-17159984D02*
X13901682Y-17159984D01*
X13901682Y-17159984D02*
X13920729Y-17169508D01*
X13920729Y-17169508D02*
X13930253Y-17179031D01*
X13930253Y-17179031D02*
X13939777Y-17198079D01*
X13939777Y-17198079D02*
X13949301Y-17236174D01*
X13949301Y-17236174D02*
X13949301Y-17283793D01*
X13949301Y-17283793D02*
X13939777Y-17321889D01*
X13939777Y-17321889D02*
X13930253Y-17340936D01*
X13930253Y-17340936D02*
X13920729Y-17350460D01*
X13920729Y-17350460D02*
X13901682Y-17359984D01*
X13901682Y-17359984D02*
X13882634Y-17359984D01*
X13882634Y-17359984D02*
X13863586Y-17350460D01*
X13863586Y-17350460D02*
X13854063Y-17340936D01*
X13854063Y-17340936D02*
X13844539Y-17321889D01*
X13844539Y-17321889D02*
X13835015Y-17283793D01*
X13835015Y-17283793D02*
X13835015Y-17236174D01*
X13835015Y-17236174D02*
X13844539Y-17198079D01*
X13844539Y-17198079D02*
X13854063Y-17179031D01*
X13854063Y-17179031D02*
X13863586Y-17169508D01*
X13863586Y-17169508D02*
X13882634Y-17159984D01*
X14035015Y-17340936D02*
X14044539Y-17350460D01*
X14044539Y-17350460D02*
X14035015Y-17359984D01*
X14035015Y-17359984D02*
X14025491Y-17350460D01*
X14025491Y-17350460D02*
X14035015Y-17340936D01*
X14035015Y-17340936D02*
X14035015Y-17359984D01*
X14168348Y-17159984D02*
X14187396Y-17159984D01*
X14187396Y-17159984D02*
X14206444Y-17169508D01*
X14206444Y-17169508D02*
X14215967Y-17179031D01*
X14215967Y-17179031D02*
X14225491Y-17198079D01*
X14225491Y-17198079D02*
X14235015Y-17236174D01*
X14235015Y-17236174D02*
X14235015Y-17283793D01*
X14235015Y-17283793D02*
X14225491Y-17321889D01*
X14225491Y-17321889D02*
X14215967Y-17340936D01*
X14215967Y-17340936D02*
X14206444Y-17350460D01*
X14206444Y-17350460D02*
X14187396Y-17359984D01*
X14187396Y-17359984D02*
X14168348Y-17359984D01*
X14168348Y-17359984D02*
X14149301Y-17350460D01*
X14149301Y-17350460D02*
X14139777Y-17340936D01*
X14139777Y-17340936D02*
X14130253Y-17321889D01*
X14130253Y-17321889D02*
X14120729Y-17283793D01*
X14120729Y-17283793D02*
X14120729Y-17236174D01*
X14120729Y-17236174D02*
X14130253Y-17198079D01*
X14130253Y-17198079D02*
X14139777Y-17179031D01*
X14139777Y-17179031D02*
X14149301Y-17169508D01*
X14149301Y-17169508D02*
X14168348Y-17159984D01*
X14415967Y-17159984D02*
X14320729Y-17159984D01*
X14320729Y-17159984D02*
X14311206Y-17255222D01*
X14311206Y-17255222D02*
X14320729Y-17245698D01*
X14320729Y-17245698D02*
X14339777Y-17236174D01*
X14339777Y-17236174D02*
X14387396Y-17236174D01*
X14387396Y-17236174D02*
X14406444Y-17245698D01*
X14406444Y-17245698D02*
X14415967Y-17255222D01*
X14415967Y-17255222D02*
X14425491Y-17274270D01*
X14425491Y-17274270D02*
X14425491Y-17321889D01*
X14425491Y-17321889D02*
X14415967Y-17340936D01*
X14415967Y-17340936D02*
X14406444Y-17350460D01*
X14406444Y-17350460D02*
X14387396Y-17359984D01*
X14387396Y-17359984D02*
X14339777Y-17359984D01*
X14339777Y-17359984D02*
X14320729Y-17350460D01*
X14320729Y-17350460D02*
X14311206Y-17340936D01*
X14520729Y-17359984D02*
X14558825Y-17359984D01*
X14558825Y-17359984D02*
X14577872Y-17350460D01*
X14577872Y-17350460D02*
X14587396Y-17340936D01*
X14587396Y-17340936D02*
X14606444Y-17312365D01*
X14606444Y-17312365D02*
X14615967Y-17274270D01*
X14615967Y-17274270D02*
X14615967Y-17198079D01*
X14615967Y-17198079D02*
X14606444Y-17179031D01*
X14606444Y-17179031D02*
X14596920Y-17169508D01*
X14596920Y-17169508D02*
X14577872Y-17159984D01*
X14577872Y-17159984D02*
X14539777Y-17159984D01*
X14539777Y-17159984D02*
X14520729Y-17169508D01*
X14520729Y-17169508D02*
X14511206Y-17179031D01*
X14511206Y-17179031D02*
X14501682Y-17198079D01*
X14501682Y-17198079D02*
X14501682Y-17245698D01*
X14501682Y-17245698D02*
X14511206Y-17264746D01*
X14511206Y-17264746D02*
X14520729Y-17274270D01*
X14520729Y-17274270D02*
X14539777Y-17283793D01*
X14539777Y-17283793D02*
X14577872Y-17283793D01*
X14577872Y-17283793D02*
X14596920Y-17274270D01*
X14596920Y-17274270D02*
X14606444Y-17264746D01*
X14606444Y-17264746D02*
X14615967Y-17245698D01*
X14806444Y-17359984D02*
X14692158Y-17359984D01*
X14749301Y-17359984D02*
X14749301Y-17159984D01*
X14749301Y-17159984D02*
X14730253Y-17188555D01*
X14730253Y-17188555D02*
X14711206Y-17207603D01*
X14711206Y-17207603D02*
X14692158Y-17217127D01*
X14882634Y-17159984D02*
X14882634Y-17198079D01*
X14958825Y-17159984D02*
X14958825Y-17198079D01*
X15254063Y-17436174D02*
X15244539Y-17426650D01*
X15244539Y-17426650D02*
X15225491Y-17398079D01*
X15225491Y-17398079D02*
X15215968Y-17379031D01*
X15215968Y-17379031D02*
X15206444Y-17350460D01*
X15206444Y-17350460D02*
X15196920Y-17302841D01*
X15196920Y-17302841D02*
X15196920Y-17264746D01*
X15196920Y-17264746D02*
X15206444Y-17217127D01*
X15206444Y-17217127D02*
X15215968Y-17188555D01*
X15215968Y-17188555D02*
X15225491Y-17169508D01*
X15225491Y-17169508D02*
X15244539Y-17140936D01*
X15244539Y-17140936D02*
X15254063Y-17131412D01*
X15358825Y-17245698D02*
X15339777Y-17236174D01*
X15339777Y-17236174D02*
X15330253Y-17226650D01*
X15330253Y-17226650D02*
X15320729Y-17207603D01*
X15320729Y-17207603D02*
X15320729Y-17198079D01*
X15320729Y-17198079D02*
X15330253Y-17179031D01*
X15330253Y-17179031D02*
X15339777Y-17169508D01*
X15339777Y-17169508D02*
X15358825Y-17159984D01*
X15358825Y-17159984D02*
X15396920Y-17159984D01*
X15396920Y-17159984D02*
X15415968Y-17169508D01*
X15415968Y-17169508D02*
X15425491Y-17179031D01*
X15425491Y-17179031D02*
X15435015Y-17198079D01*
X15435015Y-17198079D02*
X15435015Y-17207603D01*
X15435015Y-17207603D02*
X15425491Y-17226650D01*
X15425491Y-17226650D02*
X15415968Y-17236174D01*
X15415968Y-17236174D02*
X15396920Y-17245698D01*
X15396920Y-17245698D02*
X15358825Y-17245698D01*
X15358825Y-17245698D02*
X15339777Y-17255222D01*
X15339777Y-17255222D02*
X15330253Y-17264746D01*
X15330253Y-17264746D02*
X15320729Y-17283793D01*
X15320729Y-17283793D02*
X15320729Y-17321889D01*
X15320729Y-17321889D02*
X15330253Y-17340936D01*
X15330253Y-17340936D02*
X15339777Y-17350460D01*
X15339777Y-17350460D02*
X15358825Y-17359984D01*
X15358825Y-17359984D02*
X15396920Y-17359984D01*
X15396920Y-17359984D02*
X15415968Y-17350460D01*
X15415968Y-17350460D02*
X15425491Y-17340936D01*
X15425491Y-17340936D02*
X15435015Y-17321889D01*
X15435015Y-17321889D02*
X15435015Y-17283793D01*
X15435015Y-17283793D02*
X15425491Y-17264746D01*
X15425491Y-17264746D02*
X15415968Y-17255222D01*
X15415968Y-17255222D02*
X15396920Y-17245698D01*
X15673110Y-17359984D02*
X15673110Y-17159984D01*
X15758825Y-17359984D02*
X15758825Y-17255222D01*
X15758825Y-17255222D02*
X15749301Y-17236174D01*
X15749301Y-17236174D02*
X15730253Y-17226650D01*
X15730253Y-17226650D02*
X15701682Y-17226650D01*
X15701682Y-17226650D02*
X15682634Y-17236174D01*
X15682634Y-17236174D02*
X15673110Y-17245698D01*
X15882634Y-17359984D02*
X15863587Y-17350460D01*
X15863587Y-17350460D02*
X15854063Y-17340936D01*
X15854063Y-17340936D02*
X15844539Y-17321889D01*
X15844539Y-17321889D02*
X15844539Y-17264746D01*
X15844539Y-17264746D02*
X15854063Y-17245698D01*
X15854063Y-17245698D02*
X15863587Y-17236174D01*
X15863587Y-17236174D02*
X15882634Y-17226650D01*
X15882634Y-17226650D02*
X15911206Y-17226650D01*
X15911206Y-17226650D02*
X15930253Y-17236174D01*
X15930253Y-17236174D02*
X15939777Y-17245698D01*
X15939777Y-17245698D02*
X15949301Y-17264746D01*
X15949301Y-17264746D02*
X15949301Y-17321889D01*
X15949301Y-17321889D02*
X15939777Y-17340936D01*
X15939777Y-17340936D02*
X15930253Y-17350460D01*
X15930253Y-17350460D02*
X15911206Y-17359984D01*
X15911206Y-17359984D02*
X15882634Y-17359984D01*
X16063587Y-17359984D02*
X16044539Y-17350460D01*
X16044539Y-17350460D02*
X16035015Y-17331412D01*
X16035015Y-17331412D02*
X16035015Y-17159984D01*
X16215968Y-17350460D02*
X16196920Y-17359984D01*
X16196920Y-17359984D02*
X16158825Y-17359984D01*
X16158825Y-17359984D02*
X16139777Y-17350460D01*
X16139777Y-17350460D02*
X16130253Y-17331412D01*
X16130253Y-17331412D02*
X16130253Y-17255222D01*
X16130253Y-17255222D02*
X16139777Y-17236174D01*
X16139777Y-17236174D02*
X16158825Y-17226650D01*
X16158825Y-17226650D02*
X16196920Y-17226650D01*
X16196920Y-17226650D02*
X16215968Y-17236174D01*
X16215968Y-17236174D02*
X16225491Y-17255222D01*
X16225491Y-17255222D02*
X16225491Y-17274270D01*
X16225491Y-17274270D02*
X16130253Y-17293317D01*
X16301682Y-17350460D02*
X16320730Y-17359984D01*
X16320730Y-17359984D02*
X16358825Y-17359984D01*
X16358825Y-17359984D02*
X16377872Y-17350460D01*
X16377872Y-17350460D02*
X16387396Y-17331412D01*
X16387396Y-17331412D02*
X16387396Y-17321889D01*
X16387396Y-17321889D02*
X16377872Y-17302841D01*
X16377872Y-17302841D02*
X16358825Y-17293317D01*
X16358825Y-17293317D02*
X16330253Y-17293317D01*
X16330253Y-17293317D02*
X16311206Y-17283793D01*
X16311206Y-17283793D02*
X16301682Y-17264746D01*
X16301682Y-17264746D02*
X16301682Y-17255222D01*
X16301682Y-17255222D02*
X16311206Y-17236174D01*
X16311206Y-17236174D02*
X16330253Y-17226650D01*
X16330253Y-17226650D02*
X16358825Y-17226650D01*
X16358825Y-17226650D02*
X16377872Y-17236174D01*
X16454063Y-17436174D02*
X16463587Y-17426650D01*
X16463587Y-17426650D02*
X16482634Y-17398079D01*
X16482634Y-17398079D02*
X16492158Y-17379031D01*
X16492158Y-17379031D02*
X16501682Y-17350460D01*
X16501682Y-17350460D02*
X16511206Y-17302841D01*
X16511206Y-17302841D02*
X16511206Y-17264746D01*
X16511206Y-17264746D02*
X16501682Y-17217127D01*
X16501682Y-17217127D02*
X16492158Y-17188555D01*
X16492158Y-17188555D02*
X16482634Y-17169508D01*
X16482634Y-17169508D02*
X16463587Y-17140936D01*
X16463587Y-17140936D02*
X16454063Y-17131412D01*
M02*
