%TF.GenerationSoftware,KiCad,Pcbnew,7.0.7*%
%TF.CreationDate,2024-08-07T00:19:30-05:00*%
%TF.ProjectId,TMS2V,544d5332-562e-46b6-9963-61645f706362,rev?*%
%TF.SameCoordinates,Original*%
%TF.FileFunction,Legend,Top*%
%TF.FilePolarity,Positive*%
%FSLAX46Y46*%
G04 Gerber Fmt 4.6, Leading zero omitted, Abs format (unit mm)*
G04 Created by KiCad (PCBNEW 7.0.7) date 2024-08-07 00:19:30*
%MOMM*%
%LPD*%
G01*
G04 APERTURE LIST*
%ADD10C,0.150000*%
%ADD11C,0.250000*%
%ADD12C,0.254000*%
%ADD13C,0.300000*%
%ADD14C,0.120000*%
%ADD15C,0.200000*%
%ADD16R,1.700000X1.200000*%
%ADD17O,1.700000X1.200000*%
G04 APERTURE END LIST*
D10*
X130400588Y-120837438D02*
X130305350Y-120789819D01*
X130305350Y-120789819D02*
X130162493Y-120789819D01*
X130162493Y-120789819D02*
X130019636Y-120837438D01*
X130019636Y-120837438D02*
X129924398Y-120932676D01*
X129924398Y-120932676D02*
X129876779Y-121027914D01*
X129876779Y-121027914D02*
X129829160Y-121218390D01*
X129829160Y-121218390D02*
X129829160Y-121361247D01*
X129829160Y-121361247D02*
X129876779Y-121551723D01*
X129876779Y-121551723D02*
X129924398Y-121646961D01*
X129924398Y-121646961D02*
X130019636Y-121742200D01*
X130019636Y-121742200D02*
X130162493Y-121789819D01*
X130162493Y-121789819D02*
X130257731Y-121789819D01*
X130257731Y-121789819D02*
X130400588Y-121742200D01*
X130400588Y-121742200D02*
X130448207Y-121694580D01*
X130448207Y-121694580D02*
X130448207Y-121361247D01*
X130448207Y-121361247D02*
X130257731Y-121361247D01*
X130876779Y-121789819D02*
X130876779Y-120789819D01*
X130876779Y-120789819D02*
X131448207Y-121789819D01*
X131448207Y-121789819D02*
X131448207Y-120789819D01*
X131924398Y-121789819D02*
X131924398Y-120789819D01*
X131924398Y-120789819D02*
X132162493Y-120789819D01*
X132162493Y-120789819D02*
X132305350Y-120837438D01*
X132305350Y-120837438D02*
X132400588Y-120932676D01*
X132400588Y-120932676D02*
X132448207Y-121027914D01*
X132448207Y-121027914D02*
X132495826Y-121218390D01*
X132495826Y-121218390D02*
X132495826Y-121361247D01*
X132495826Y-121361247D02*
X132448207Y-121551723D01*
X132448207Y-121551723D02*
X132400588Y-121646961D01*
X132400588Y-121646961D02*
X132305350Y-121742200D01*
X132305350Y-121742200D02*
X132162493Y-121789819D01*
X132162493Y-121789819D02*
X131924398Y-121789819D01*
X129876779Y-124329819D02*
X129876779Y-123329819D01*
X129876779Y-123329819D02*
X130210112Y-124044104D01*
X130210112Y-124044104D02*
X130543445Y-123329819D01*
X130543445Y-123329819D02*
X130543445Y-124329819D01*
X131210112Y-123329819D02*
X131400588Y-123329819D01*
X131400588Y-123329819D02*
X131495826Y-123377438D01*
X131495826Y-123377438D02*
X131591064Y-123472676D01*
X131591064Y-123472676D02*
X131638683Y-123663152D01*
X131638683Y-123663152D02*
X131638683Y-123996485D01*
X131638683Y-123996485D02*
X131591064Y-124186961D01*
X131591064Y-124186961D02*
X131495826Y-124282200D01*
X131495826Y-124282200D02*
X131400588Y-124329819D01*
X131400588Y-124329819D02*
X131210112Y-124329819D01*
X131210112Y-124329819D02*
X131114874Y-124282200D01*
X131114874Y-124282200D02*
X131019636Y-124186961D01*
X131019636Y-124186961D02*
X130972017Y-123996485D01*
X130972017Y-123996485D02*
X130972017Y-123663152D01*
X130972017Y-123663152D02*
X131019636Y-123472676D01*
X131019636Y-123472676D02*
X131114874Y-123377438D01*
X131114874Y-123377438D02*
X131210112Y-123329819D01*
X132067255Y-124329819D02*
X132067255Y-123329819D01*
X132067255Y-123329819D02*
X132305350Y-123329819D01*
X132305350Y-123329819D02*
X132448207Y-123377438D01*
X132448207Y-123377438D02*
X132543445Y-123472676D01*
X132543445Y-123472676D02*
X132591064Y-123567914D01*
X132591064Y-123567914D02*
X132638683Y-123758390D01*
X132638683Y-123758390D02*
X132638683Y-123901247D01*
X132638683Y-123901247D02*
X132591064Y-124091723D01*
X132591064Y-124091723D02*
X132543445Y-124186961D01*
X132543445Y-124186961D02*
X132448207Y-124282200D01*
X132448207Y-124282200D02*
X132305350Y-124329819D01*
X132305350Y-124329819D02*
X132067255Y-124329819D01*
X133067255Y-123806009D02*
X133400588Y-123806009D01*
X133543445Y-124329819D02*
X133067255Y-124329819D01*
X133067255Y-124329819D02*
X133067255Y-123329819D01*
X133067255Y-123329819D02*
X133543445Y-123329819D01*
X134495826Y-124329819D02*
X133924398Y-124329819D01*
X134210112Y-124329819D02*
X134210112Y-123329819D01*
X134210112Y-123329819D02*
X134114874Y-123472676D01*
X134114874Y-123472676D02*
X134019636Y-123567914D01*
X134019636Y-123567914D02*
X133924398Y-123615533D01*
X128913095Y-110972438D02*
X128817857Y-110924819D01*
X128817857Y-110924819D02*
X128675000Y-110924819D01*
X128675000Y-110924819D02*
X128532143Y-110972438D01*
X128532143Y-110972438D02*
X128436905Y-111067676D01*
X128436905Y-111067676D02*
X128389286Y-111162914D01*
X128389286Y-111162914D02*
X128341667Y-111353390D01*
X128341667Y-111353390D02*
X128341667Y-111496247D01*
X128341667Y-111496247D02*
X128389286Y-111686723D01*
X128389286Y-111686723D02*
X128436905Y-111781961D01*
X128436905Y-111781961D02*
X128532143Y-111877200D01*
X128532143Y-111877200D02*
X128675000Y-111924819D01*
X128675000Y-111924819D02*
X128770238Y-111924819D01*
X128770238Y-111924819D02*
X128913095Y-111877200D01*
X128913095Y-111877200D02*
X128960714Y-111829580D01*
X128960714Y-111829580D02*
X128960714Y-111496247D01*
X128960714Y-111496247D02*
X128770238Y-111496247D01*
X129817857Y-111924819D02*
X129817857Y-111401009D01*
X129817857Y-111401009D02*
X129770238Y-111305771D01*
X129770238Y-111305771D02*
X129675000Y-111258152D01*
X129675000Y-111258152D02*
X129484524Y-111258152D01*
X129484524Y-111258152D02*
X129389286Y-111305771D01*
X129817857Y-111877200D02*
X129722619Y-111924819D01*
X129722619Y-111924819D02*
X129484524Y-111924819D01*
X129484524Y-111924819D02*
X129389286Y-111877200D01*
X129389286Y-111877200D02*
X129341667Y-111781961D01*
X129341667Y-111781961D02*
X129341667Y-111686723D01*
X129341667Y-111686723D02*
X129389286Y-111591485D01*
X129389286Y-111591485D02*
X129484524Y-111543866D01*
X129484524Y-111543866D02*
X129722619Y-111543866D01*
X129722619Y-111543866D02*
X129817857Y-111496247D01*
X130198810Y-111258152D02*
X130436905Y-111924819D01*
X130436905Y-111924819D02*
X130675000Y-111258152D01*
X131055953Y-111924819D02*
X131055953Y-111258152D01*
X131055953Y-110924819D02*
X131008334Y-110972438D01*
X131008334Y-110972438D02*
X131055953Y-111020057D01*
X131055953Y-111020057D02*
X131103572Y-110972438D01*
X131103572Y-110972438D02*
X131055953Y-110924819D01*
X131055953Y-110924819D02*
X131055953Y-111020057D01*
X131532143Y-111258152D02*
X131532143Y-111924819D01*
X131532143Y-111353390D02*
X131579762Y-111305771D01*
X131579762Y-111305771D02*
X131675000Y-111258152D01*
X131675000Y-111258152D02*
X131817857Y-111258152D01*
X131817857Y-111258152D02*
X131913095Y-111305771D01*
X131913095Y-111305771D02*
X131960714Y-111401009D01*
X131960714Y-111401009D02*
X131960714Y-111924819D01*
X127151190Y-112534819D02*
X127722618Y-112534819D01*
X127436904Y-113534819D02*
X127436904Y-112534819D01*
X128436904Y-113487200D02*
X128341666Y-113534819D01*
X128341666Y-113534819D02*
X128151190Y-113534819D01*
X128151190Y-113534819D02*
X128055952Y-113487200D01*
X128055952Y-113487200D02*
X128008333Y-113391961D01*
X128008333Y-113391961D02*
X128008333Y-113011009D01*
X128008333Y-113011009D02*
X128055952Y-112915771D01*
X128055952Y-112915771D02*
X128151190Y-112868152D01*
X128151190Y-112868152D02*
X128341666Y-112868152D01*
X128341666Y-112868152D02*
X128436904Y-112915771D01*
X128436904Y-112915771D02*
X128484523Y-113011009D01*
X128484523Y-113011009D02*
X128484523Y-113106247D01*
X128484523Y-113106247D02*
X128008333Y-113201485D01*
X128913095Y-113534819D02*
X128913095Y-112868152D01*
X128913095Y-113058628D02*
X128960714Y-112963390D01*
X128960714Y-112963390D02*
X129008333Y-112915771D01*
X129008333Y-112915771D02*
X129103571Y-112868152D01*
X129103571Y-112868152D02*
X129198809Y-112868152D01*
X129484524Y-113487200D02*
X129579762Y-113534819D01*
X129579762Y-113534819D02*
X129770238Y-113534819D01*
X129770238Y-113534819D02*
X129865476Y-113487200D01*
X129865476Y-113487200D02*
X129913095Y-113391961D01*
X129913095Y-113391961D02*
X129913095Y-113344342D01*
X129913095Y-113344342D02*
X129865476Y-113249104D01*
X129865476Y-113249104D02*
X129770238Y-113201485D01*
X129770238Y-113201485D02*
X129627381Y-113201485D01*
X129627381Y-113201485D02*
X129532143Y-113153866D01*
X129532143Y-113153866D02*
X129484524Y-113058628D01*
X129484524Y-113058628D02*
X129484524Y-113011009D01*
X129484524Y-113011009D02*
X129532143Y-112915771D01*
X129532143Y-112915771D02*
X129627381Y-112868152D01*
X129627381Y-112868152D02*
X129770238Y-112868152D01*
X129770238Y-112868152D02*
X129865476Y-112915771D01*
X130198810Y-112868152D02*
X130579762Y-112868152D01*
X130341667Y-112534819D02*
X130341667Y-113391961D01*
X130341667Y-113391961D02*
X130389286Y-113487200D01*
X130389286Y-113487200D02*
X130484524Y-113534819D01*
X130484524Y-113534819D02*
X130579762Y-113534819D01*
X131294048Y-113487200D02*
X131198810Y-113534819D01*
X131198810Y-113534819D02*
X131008334Y-113534819D01*
X131008334Y-113534819D02*
X130913096Y-113487200D01*
X130913096Y-113487200D02*
X130865477Y-113391961D01*
X130865477Y-113391961D02*
X130865477Y-113011009D01*
X130865477Y-113011009D02*
X130913096Y-112915771D01*
X130913096Y-112915771D02*
X131008334Y-112868152D01*
X131008334Y-112868152D02*
X131198810Y-112868152D01*
X131198810Y-112868152D02*
X131294048Y-112915771D01*
X131294048Y-112915771D02*
X131341667Y-113011009D01*
X131341667Y-113011009D02*
X131341667Y-113106247D01*
X131341667Y-113106247D02*
X130865477Y-113201485D01*
X132151191Y-113487200D02*
X132055953Y-113534819D01*
X132055953Y-113534819D02*
X131865477Y-113534819D01*
X131865477Y-113534819D02*
X131770239Y-113487200D01*
X131770239Y-113487200D02*
X131722620Y-113391961D01*
X131722620Y-113391961D02*
X131722620Y-113011009D01*
X131722620Y-113011009D02*
X131770239Y-112915771D01*
X131770239Y-112915771D02*
X131865477Y-112868152D01*
X131865477Y-112868152D02*
X132055953Y-112868152D01*
X132055953Y-112868152D02*
X132151191Y-112915771D01*
X132151191Y-112915771D02*
X132198810Y-113011009D01*
X132198810Y-113011009D02*
X132198810Y-113106247D01*
X132198810Y-113106247D02*
X131722620Y-113201485D01*
X133055953Y-112868152D02*
X133055953Y-113677676D01*
X133055953Y-113677676D02*
X133008334Y-113772914D01*
X133008334Y-113772914D02*
X132960715Y-113820533D01*
X132960715Y-113820533D02*
X132865477Y-113868152D01*
X132865477Y-113868152D02*
X132722620Y-113868152D01*
X132722620Y-113868152D02*
X132627382Y-113820533D01*
X133055953Y-113487200D02*
X132960715Y-113534819D01*
X132960715Y-113534819D02*
X132770239Y-113534819D01*
X132770239Y-113534819D02*
X132675001Y-113487200D01*
X132675001Y-113487200D02*
X132627382Y-113439580D01*
X132627382Y-113439580D02*
X132579763Y-113344342D01*
X132579763Y-113344342D02*
X132579763Y-113058628D01*
X132579763Y-113058628D02*
X132627382Y-112963390D01*
X132627382Y-112963390D02*
X132675001Y-112915771D01*
X132675001Y-112915771D02*
X132770239Y-112868152D01*
X132770239Y-112868152D02*
X132960715Y-112868152D01*
X132960715Y-112868152D02*
X133055953Y-112915771D01*
X128543207Y-109089819D02*
X128209874Y-108613628D01*
X127971779Y-109089819D02*
X127971779Y-108089819D01*
X127971779Y-108089819D02*
X128352731Y-108089819D01*
X128352731Y-108089819D02*
X128447969Y-108137438D01*
X128447969Y-108137438D02*
X128495588Y-108185057D01*
X128495588Y-108185057D02*
X128543207Y-108280295D01*
X128543207Y-108280295D02*
X128543207Y-108423152D01*
X128543207Y-108423152D02*
X128495588Y-108518390D01*
X128495588Y-108518390D02*
X128447969Y-108566009D01*
X128447969Y-108566009D02*
X128352731Y-108613628D01*
X128352731Y-108613628D02*
X127971779Y-108613628D01*
X129352731Y-109042200D02*
X129257493Y-109089819D01*
X129257493Y-109089819D02*
X129067017Y-109089819D01*
X129067017Y-109089819D02*
X128971779Y-109042200D01*
X128971779Y-109042200D02*
X128924160Y-108946961D01*
X128924160Y-108946961D02*
X128924160Y-108566009D01*
X128924160Y-108566009D02*
X128971779Y-108470771D01*
X128971779Y-108470771D02*
X129067017Y-108423152D01*
X129067017Y-108423152D02*
X129257493Y-108423152D01*
X129257493Y-108423152D02*
X129352731Y-108470771D01*
X129352731Y-108470771D02*
X129400350Y-108566009D01*
X129400350Y-108566009D02*
X129400350Y-108661247D01*
X129400350Y-108661247D02*
X128924160Y-108756485D01*
X129733684Y-108423152D02*
X129971779Y-109089819D01*
X129971779Y-109089819D02*
X130209874Y-108423152D01*
X130590827Y-108994580D02*
X130638446Y-109042200D01*
X130638446Y-109042200D02*
X130590827Y-109089819D01*
X130590827Y-109089819D02*
X130543208Y-109042200D01*
X130543208Y-109042200D02*
X130590827Y-108994580D01*
X130590827Y-108994580D02*
X130590827Y-109089819D01*
X132019398Y-108089819D02*
X132114636Y-108089819D01*
X132114636Y-108089819D02*
X132209874Y-108137438D01*
X132209874Y-108137438D02*
X132257493Y-108185057D01*
X132257493Y-108185057D02*
X132305112Y-108280295D01*
X132305112Y-108280295D02*
X132352731Y-108470771D01*
X132352731Y-108470771D02*
X132352731Y-108708866D01*
X132352731Y-108708866D02*
X132305112Y-108899342D01*
X132305112Y-108899342D02*
X132257493Y-108994580D01*
X132257493Y-108994580D02*
X132209874Y-109042200D01*
X132209874Y-109042200D02*
X132114636Y-109089819D01*
X132114636Y-109089819D02*
X132019398Y-109089819D01*
X132019398Y-109089819D02*
X131924160Y-109042200D01*
X131924160Y-109042200D02*
X131876541Y-108994580D01*
X131876541Y-108994580D02*
X131828922Y-108899342D01*
X131828922Y-108899342D02*
X131781303Y-108708866D01*
X131781303Y-108708866D02*
X131781303Y-108470771D01*
X131781303Y-108470771D02*
X131828922Y-108280295D01*
X131828922Y-108280295D02*
X131876541Y-108185057D01*
X131876541Y-108185057D02*
X131924160Y-108137438D01*
X131924160Y-108137438D02*
X132019398Y-108089819D01*
D11*
X126672330Y-105618428D02*
X127529473Y-105618428D01*
X127100901Y-107118428D02*
X127100901Y-105618428D01*
X128029472Y-107118428D02*
X128029472Y-105618428D01*
X128029472Y-105618428D02*
X128529472Y-106689857D01*
X128529472Y-106689857D02*
X129029472Y-105618428D01*
X129029472Y-105618428D02*
X129029472Y-107118428D01*
X129672330Y-107047000D02*
X129886616Y-107118428D01*
X129886616Y-107118428D02*
X130243758Y-107118428D01*
X130243758Y-107118428D02*
X130386616Y-107047000D01*
X130386616Y-107047000D02*
X130458044Y-106975571D01*
X130458044Y-106975571D02*
X130529473Y-106832714D01*
X130529473Y-106832714D02*
X130529473Y-106689857D01*
X130529473Y-106689857D02*
X130458044Y-106547000D01*
X130458044Y-106547000D02*
X130386616Y-106475571D01*
X130386616Y-106475571D02*
X130243758Y-106404142D01*
X130243758Y-106404142D02*
X129958044Y-106332714D01*
X129958044Y-106332714D02*
X129815187Y-106261285D01*
X129815187Y-106261285D02*
X129743758Y-106189857D01*
X129743758Y-106189857D02*
X129672330Y-106047000D01*
X129672330Y-106047000D02*
X129672330Y-105904142D01*
X129672330Y-105904142D02*
X129743758Y-105761285D01*
X129743758Y-105761285D02*
X129815187Y-105689857D01*
X129815187Y-105689857D02*
X129958044Y-105618428D01*
X129958044Y-105618428D02*
X130315187Y-105618428D01*
X130315187Y-105618428D02*
X130529473Y-105689857D01*
X131100901Y-105761285D02*
X131172329Y-105689857D01*
X131172329Y-105689857D02*
X131315187Y-105618428D01*
X131315187Y-105618428D02*
X131672329Y-105618428D01*
X131672329Y-105618428D02*
X131815187Y-105689857D01*
X131815187Y-105689857D02*
X131886615Y-105761285D01*
X131886615Y-105761285D02*
X131958044Y-105904142D01*
X131958044Y-105904142D02*
X131958044Y-106047000D01*
X131958044Y-106047000D02*
X131886615Y-106261285D01*
X131886615Y-106261285D02*
X131029472Y-107118428D01*
X131029472Y-107118428D02*
X131958044Y-107118428D01*
X132386615Y-105618428D02*
X132886615Y-107118428D01*
X132886615Y-107118428D02*
X133386615Y-105618428D01*
D10*
X151638095Y-132744819D02*
X151638095Y-133554342D01*
X151638095Y-133554342D02*
X151685714Y-133649580D01*
X151685714Y-133649580D02*
X151733333Y-133697200D01*
X151733333Y-133697200D02*
X151828571Y-133744819D01*
X151828571Y-133744819D02*
X152019047Y-133744819D01*
X152019047Y-133744819D02*
X152114285Y-133697200D01*
X152114285Y-133697200D02*
X152161904Y-133649580D01*
X152161904Y-133649580D02*
X152209523Y-133554342D01*
X152209523Y-133554342D02*
X152209523Y-132744819D01*
X153209523Y-133744819D02*
X152638095Y-133744819D01*
X152923809Y-133744819D02*
X152923809Y-132744819D01*
X152923809Y-132744819D02*
X152828571Y-132887676D01*
X152828571Y-132887676D02*
X152733333Y-132982914D01*
X152733333Y-132982914D02*
X152638095Y-133030533D01*
X176998333Y-138154580D02*
X176950714Y-138202200D01*
X176950714Y-138202200D02*
X176807857Y-138249819D01*
X176807857Y-138249819D02*
X176712619Y-138249819D01*
X176712619Y-138249819D02*
X176569762Y-138202200D01*
X176569762Y-138202200D02*
X176474524Y-138106961D01*
X176474524Y-138106961D02*
X176426905Y-138011723D01*
X176426905Y-138011723D02*
X176379286Y-137821247D01*
X176379286Y-137821247D02*
X176379286Y-137678390D01*
X176379286Y-137678390D02*
X176426905Y-137487914D01*
X176426905Y-137487914D02*
X176474524Y-137392676D01*
X176474524Y-137392676D02*
X176569762Y-137297438D01*
X176569762Y-137297438D02*
X176712619Y-137249819D01*
X176712619Y-137249819D02*
X176807857Y-137249819D01*
X176807857Y-137249819D02*
X176950714Y-137297438D01*
X176950714Y-137297438D02*
X176998333Y-137345057D01*
X177331667Y-137249819D02*
X177998333Y-137249819D01*
X177998333Y-137249819D02*
X177569762Y-138249819D01*
X165459580Y-129031666D02*
X165507200Y-129079285D01*
X165507200Y-129079285D02*
X165554819Y-129222142D01*
X165554819Y-129222142D02*
X165554819Y-129317380D01*
X165554819Y-129317380D02*
X165507200Y-129460237D01*
X165507200Y-129460237D02*
X165411961Y-129555475D01*
X165411961Y-129555475D02*
X165316723Y-129603094D01*
X165316723Y-129603094D02*
X165126247Y-129650713D01*
X165126247Y-129650713D02*
X164983390Y-129650713D01*
X164983390Y-129650713D02*
X164792914Y-129603094D01*
X164792914Y-129603094D02*
X164697676Y-129555475D01*
X164697676Y-129555475D02*
X164602438Y-129460237D01*
X164602438Y-129460237D02*
X164554819Y-129317380D01*
X164554819Y-129317380D02*
X164554819Y-129222142D01*
X164554819Y-129222142D02*
X164602438Y-129079285D01*
X164602438Y-129079285D02*
X164650057Y-129031666D01*
X165554819Y-128079285D02*
X165554819Y-128650713D01*
X165554819Y-128364999D02*
X164554819Y-128364999D01*
X164554819Y-128364999D02*
X164697676Y-128460237D01*
X164697676Y-128460237D02*
X164792914Y-128555475D01*
X164792914Y-128555475D02*
X164840533Y-128650713D01*
X187793333Y-109579580D02*
X187745714Y-109627200D01*
X187745714Y-109627200D02*
X187602857Y-109674819D01*
X187602857Y-109674819D02*
X187507619Y-109674819D01*
X187507619Y-109674819D02*
X187364762Y-109627200D01*
X187364762Y-109627200D02*
X187269524Y-109531961D01*
X187269524Y-109531961D02*
X187221905Y-109436723D01*
X187221905Y-109436723D02*
X187174286Y-109246247D01*
X187174286Y-109246247D02*
X187174286Y-109103390D01*
X187174286Y-109103390D02*
X187221905Y-108912914D01*
X187221905Y-108912914D02*
X187269524Y-108817676D01*
X187269524Y-108817676D02*
X187364762Y-108722438D01*
X187364762Y-108722438D02*
X187507619Y-108674819D01*
X187507619Y-108674819D02*
X187602857Y-108674819D01*
X187602857Y-108674819D02*
X187745714Y-108722438D01*
X187745714Y-108722438D02*
X187793333Y-108770057D01*
X188650476Y-108674819D02*
X188460000Y-108674819D01*
X188460000Y-108674819D02*
X188364762Y-108722438D01*
X188364762Y-108722438D02*
X188317143Y-108770057D01*
X188317143Y-108770057D02*
X188221905Y-108912914D01*
X188221905Y-108912914D02*
X188174286Y-109103390D01*
X188174286Y-109103390D02*
X188174286Y-109484342D01*
X188174286Y-109484342D02*
X188221905Y-109579580D01*
X188221905Y-109579580D02*
X188269524Y-109627200D01*
X188269524Y-109627200D02*
X188364762Y-109674819D01*
X188364762Y-109674819D02*
X188555238Y-109674819D01*
X188555238Y-109674819D02*
X188650476Y-109627200D01*
X188650476Y-109627200D02*
X188698095Y-109579580D01*
X188698095Y-109579580D02*
X188745714Y-109484342D01*
X188745714Y-109484342D02*
X188745714Y-109246247D01*
X188745714Y-109246247D02*
X188698095Y-109151009D01*
X188698095Y-109151009D02*
X188650476Y-109103390D01*
X188650476Y-109103390D02*
X188555238Y-109055771D01*
X188555238Y-109055771D02*
X188364762Y-109055771D01*
X188364762Y-109055771D02*
X188269524Y-109103390D01*
X188269524Y-109103390D02*
X188221905Y-109151009D01*
X188221905Y-109151009D02*
X188174286Y-109246247D01*
X170648333Y-142229819D02*
X170315000Y-141753628D01*
X170076905Y-142229819D02*
X170076905Y-141229819D01*
X170076905Y-141229819D02*
X170457857Y-141229819D01*
X170457857Y-141229819D02*
X170553095Y-141277438D01*
X170553095Y-141277438D02*
X170600714Y-141325057D01*
X170600714Y-141325057D02*
X170648333Y-141420295D01*
X170648333Y-141420295D02*
X170648333Y-141563152D01*
X170648333Y-141563152D02*
X170600714Y-141658390D01*
X170600714Y-141658390D02*
X170553095Y-141706009D01*
X170553095Y-141706009D02*
X170457857Y-141753628D01*
X170457857Y-141753628D02*
X170076905Y-141753628D01*
X171553095Y-141229819D02*
X171076905Y-141229819D01*
X171076905Y-141229819D02*
X171029286Y-141706009D01*
X171029286Y-141706009D02*
X171076905Y-141658390D01*
X171076905Y-141658390D02*
X171172143Y-141610771D01*
X171172143Y-141610771D02*
X171410238Y-141610771D01*
X171410238Y-141610771D02*
X171505476Y-141658390D01*
X171505476Y-141658390D02*
X171553095Y-141706009D01*
X171553095Y-141706009D02*
X171600714Y-141801247D01*
X171600714Y-141801247D02*
X171600714Y-142039342D01*
X171600714Y-142039342D02*
X171553095Y-142134580D01*
X171553095Y-142134580D02*
X171505476Y-142182200D01*
X171505476Y-142182200D02*
X171410238Y-142229819D01*
X171410238Y-142229819D02*
X171172143Y-142229819D01*
X171172143Y-142229819D02*
X171076905Y-142182200D01*
X171076905Y-142182200D02*
X171029286Y-142134580D01*
X164369761Y-140885057D02*
X164274523Y-140837438D01*
X164274523Y-140837438D02*
X164179285Y-140742200D01*
X164179285Y-140742200D02*
X164036428Y-140599342D01*
X164036428Y-140599342D02*
X163941190Y-140551723D01*
X163941190Y-140551723D02*
X163845952Y-140551723D01*
X163893571Y-140789819D02*
X163798333Y-140742200D01*
X163798333Y-140742200D02*
X163703095Y-140646961D01*
X163703095Y-140646961D02*
X163655476Y-140456485D01*
X163655476Y-140456485D02*
X163655476Y-140123152D01*
X163655476Y-140123152D02*
X163703095Y-139932676D01*
X163703095Y-139932676D02*
X163798333Y-139837438D01*
X163798333Y-139837438D02*
X163893571Y-139789819D01*
X163893571Y-139789819D02*
X164084047Y-139789819D01*
X164084047Y-139789819D02*
X164179285Y-139837438D01*
X164179285Y-139837438D02*
X164274523Y-139932676D01*
X164274523Y-139932676D02*
X164322142Y-140123152D01*
X164322142Y-140123152D02*
X164322142Y-140456485D01*
X164322142Y-140456485D02*
X164274523Y-140646961D01*
X164274523Y-140646961D02*
X164179285Y-140742200D01*
X164179285Y-140742200D02*
X164084047Y-140789819D01*
X164084047Y-140789819D02*
X163893571Y-140789819D01*
X165179285Y-140123152D02*
X165179285Y-140789819D01*
X164941190Y-139742200D02*
X164703095Y-140456485D01*
X164703095Y-140456485D02*
X165322142Y-140456485D01*
X176998333Y-109579580D02*
X176950714Y-109627200D01*
X176950714Y-109627200D02*
X176807857Y-109674819D01*
X176807857Y-109674819D02*
X176712619Y-109674819D01*
X176712619Y-109674819D02*
X176569762Y-109627200D01*
X176569762Y-109627200D02*
X176474524Y-109531961D01*
X176474524Y-109531961D02*
X176426905Y-109436723D01*
X176426905Y-109436723D02*
X176379286Y-109246247D01*
X176379286Y-109246247D02*
X176379286Y-109103390D01*
X176379286Y-109103390D02*
X176426905Y-108912914D01*
X176426905Y-108912914D02*
X176474524Y-108817676D01*
X176474524Y-108817676D02*
X176569762Y-108722438D01*
X176569762Y-108722438D02*
X176712619Y-108674819D01*
X176712619Y-108674819D02*
X176807857Y-108674819D01*
X176807857Y-108674819D02*
X176950714Y-108722438D01*
X176950714Y-108722438D02*
X176998333Y-108770057D01*
X177903095Y-108674819D02*
X177426905Y-108674819D01*
X177426905Y-108674819D02*
X177379286Y-109151009D01*
X177379286Y-109151009D02*
X177426905Y-109103390D01*
X177426905Y-109103390D02*
X177522143Y-109055771D01*
X177522143Y-109055771D02*
X177760238Y-109055771D01*
X177760238Y-109055771D02*
X177855476Y-109103390D01*
X177855476Y-109103390D02*
X177903095Y-109151009D01*
X177903095Y-109151009D02*
X177950714Y-109246247D01*
X177950714Y-109246247D02*
X177950714Y-109484342D01*
X177950714Y-109484342D02*
X177903095Y-109579580D01*
X177903095Y-109579580D02*
X177855476Y-109627200D01*
X177855476Y-109627200D02*
X177760238Y-109674819D01*
X177760238Y-109674819D02*
X177522143Y-109674819D01*
X177522143Y-109674819D02*
X177426905Y-109627200D01*
X177426905Y-109627200D02*
X177379286Y-109579580D01*
X182793095Y-111424819D02*
X182793095Y-112234342D01*
X182793095Y-112234342D02*
X182840714Y-112329580D01*
X182840714Y-112329580D02*
X182888333Y-112377200D01*
X182888333Y-112377200D02*
X182983571Y-112424819D01*
X182983571Y-112424819D02*
X183174047Y-112424819D01*
X183174047Y-112424819D02*
X183269285Y-112377200D01*
X183269285Y-112377200D02*
X183316904Y-112329580D01*
X183316904Y-112329580D02*
X183364523Y-112234342D01*
X183364523Y-112234342D02*
X183364523Y-111424819D01*
X184316904Y-111424819D02*
X183840714Y-111424819D01*
X183840714Y-111424819D02*
X183793095Y-111901009D01*
X183793095Y-111901009D02*
X183840714Y-111853390D01*
X183840714Y-111853390D02*
X183935952Y-111805771D01*
X183935952Y-111805771D02*
X184174047Y-111805771D01*
X184174047Y-111805771D02*
X184269285Y-111853390D01*
X184269285Y-111853390D02*
X184316904Y-111901009D01*
X184316904Y-111901009D02*
X184364523Y-111996247D01*
X184364523Y-111996247D02*
X184364523Y-112234342D01*
X184364523Y-112234342D02*
X184316904Y-112329580D01*
X184316904Y-112329580D02*
X184269285Y-112377200D01*
X184269285Y-112377200D02*
X184174047Y-112424819D01*
X184174047Y-112424819D02*
X183935952Y-112424819D01*
X183935952Y-112424819D02*
X183840714Y-112377200D01*
X183840714Y-112377200D02*
X183793095Y-112329580D01*
D12*
X129481667Y-140209318D02*
X129481667Y-141116461D01*
X129481667Y-141116461D02*
X129421190Y-141297889D01*
X129421190Y-141297889D02*
X129300238Y-141418842D01*
X129300238Y-141418842D02*
X129118809Y-141479318D01*
X129118809Y-141479318D02*
X128997857Y-141479318D01*
X129965476Y-140209318D02*
X130751667Y-140209318D01*
X130751667Y-140209318D02*
X130328333Y-140693127D01*
X130328333Y-140693127D02*
X130509762Y-140693127D01*
X130509762Y-140693127D02*
X130630714Y-140753603D01*
X130630714Y-140753603D02*
X130691190Y-140814080D01*
X130691190Y-140814080D02*
X130751667Y-140935032D01*
X130751667Y-140935032D02*
X130751667Y-141237413D01*
X130751667Y-141237413D02*
X130691190Y-141358365D01*
X130691190Y-141358365D02*
X130630714Y-141418842D01*
X130630714Y-141418842D02*
X130509762Y-141479318D01*
X130509762Y-141479318D02*
X130146905Y-141479318D01*
X130146905Y-141479318D02*
X130025952Y-141418842D01*
X130025952Y-141418842D02*
X129965476Y-141358365D01*
D10*
X145319761Y-140885057D02*
X145224523Y-140837438D01*
X145224523Y-140837438D02*
X145129285Y-140742200D01*
X145129285Y-140742200D02*
X144986428Y-140599342D01*
X144986428Y-140599342D02*
X144891190Y-140551723D01*
X144891190Y-140551723D02*
X144795952Y-140551723D01*
X144843571Y-140789819D02*
X144748333Y-140742200D01*
X144748333Y-140742200D02*
X144653095Y-140646961D01*
X144653095Y-140646961D02*
X144605476Y-140456485D01*
X144605476Y-140456485D02*
X144605476Y-140123152D01*
X144605476Y-140123152D02*
X144653095Y-139932676D01*
X144653095Y-139932676D02*
X144748333Y-139837438D01*
X144748333Y-139837438D02*
X144843571Y-139789819D01*
X144843571Y-139789819D02*
X145034047Y-139789819D01*
X145034047Y-139789819D02*
X145129285Y-139837438D01*
X145129285Y-139837438D02*
X145224523Y-139932676D01*
X145224523Y-139932676D02*
X145272142Y-140123152D01*
X145272142Y-140123152D02*
X145272142Y-140456485D01*
X145272142Y-140456485D02*
X145224523Y-140646961D01*
X145224523Y-140646961D02*
X145129285Y-140742200D01*
X145129285Y-140742200D02*
X145034047Y-140789819D01*
X145034047Y-140789819D02*
X144843571Y-140789819D01*
X146224523Y-140789819D02*
X145653095Y-140789819D01*
X145938809Y-140789819D02*
X145938809Y-139789819D01*
X145938809Y-139789819D02*
X145843571Y-139932676D01*
X145843571Y-139932676D02*
X145748333Y-140027914D01*
X145748333Y-140027914D02*
X145653095Y-140075533D01*
X157948333Y-146504819D02*
X157615000Y-146028628D01*
X157376905Y-146504819D02*
X157376905Y-145504819D01*
X157376905Y-145504819D02*
X157757857Y-145504819D01*
X157757857Y-145504819D02*
X157853095Y-145552438D01*
X157853095Y-145552438D02*
X157900714Y-145600057D01*
X157900714Y-145600057D02*
X157948333Y-145695295D01*
X157948333Y-145695295D02*
X157948333Y-145838152D01*
X157948333Y-145838152D02*
X157900714Y-145933390D01*
X157900714Y-145933390D02*
X157853095Y-145981009D01*
X157853095Y-145981009D02*
X157757857Y-146028628D01*
X157757857Y-146028628D02*
X157376905Y-146028628D01*
X158424524Y-146504819D02*
X158615000Y-146504819D01*
X158615000Y-146504819D02*
X158710238Y-146457200D01*
X158710238Y-146457200D02*
X158757857Y-146409580D01*
X158757857Y-146409580D02*
X158853095Y-146266723D01*
X158853095Y-146266723D02*
X158900714Y-146076247D01*
X158900714Y-146076247D02*
X158900714Y-145695295D01*
X158900714Y-145695295D02*
X158853095Y-145600057D01*
X158853095Y-145600057D02*
X158805476Y-145552438D01*
X158805476Y-145552438D02*
X158710238Y-145504819D01*
X158710238Y-145504819D02*
X158519762Y-145504819D01*
X158519762Y-145504819D02*
X158424524Y-145552438D01*
X158424524Y-145552438D02*
X158376905Y-145600057D01*
X158376905Y-145600057D02*
X158329286Y-145695295D01*
X158329286Y-145695295D02*
X158329286Y-145933390D01*
X158329286Y-145933390D02*
X158376905Y-146028628D01*
X158376905Y-146028628D02*
X158424524Y-146076247D01*
X158424524Y-146076247D02*
X158519762Y-146123866D01*
X158519762Y-146123866D02*
X158710238Y-146123866D01*
X158710238Y-146123866D02*
X158805476Y-146076247D01*
X158805476Y-146076247D02*
X158853095Y-146028628D01*
X158853095Y-146028628D02*
X158900714Y-145933390D01*
X173373809Y-74558628D02*
X173373809Y-75034819D01*
X173040476Y-74034819D02*
X173373809Y-74558628D01*
X173373809Y-74558628D02*
X173707142Y-74034819D01*
X174564285Y-75034819D02*
X173992857Y-75034819D01*
X174278571Y-75034819D02*
X174278571Y-74034819D01*
X174278571Y-74034819D02*
X174183333Y-74177676D01*
X174183333Y-74177676D02*
X174088095Y-74272914D01*
X174088095Y-74272914D02*
X173992857Y-74320533D01*
X165554819Y-99861666D02*
X165078628Y-100194999D01*
X165554819Y-100433094D02*
X164554819Y-100433094D01*
X164554819Y-100433094D02*
X164554819Y-100052142D01*
X164554819Y-100052142D02*
X164602438Y-99956904D01*
X164602438Y-99956904D02*
X164650057Y-99909285D01*
X164650057Y-99909285D02*
X164745295Y-99861666D01*
X164745295Y-99861666D02*
X164888152Y-99861666D01*
X164888152Y-99861666D02*
X164983390Y-99909285D01*
X164983390Y-99909285D02*
X165031009Y-99956904D01*
X165031009Y-99956904D02*
X165078628Y-100052142D01*
X165078628Y-100052142D02*
X165078628Y-100433094D01*
X165554819Y-98909285D02*
X165554819Y-99480713D01*
X165554819Y-99194999D02*
X164554819Y-99194999D01*
X164554819Y-99194999D02*
X164697676Y-99290237D01*
X164697676Y-99290237D02*
X164792914Y-99385475D01*
X164792914Y-99385475D02*
X164840533Y-99480713D01*
X125396666Y-74384819D02*
X125396666Y-75099104D01*
X125396666Y-75099104D02*
X125349047Y-75241961D01*
X125349047Y-75241961D02*
X125253809Y-75337200D01*
X125253809Y-75337200D02*
X125110952Y-75384819D01*
X125110952Y-75384819D02*
X125015714Y-75384819D01*
X126396666Y-75384819D02*
X125825238Y-75384819D01*
X126110952Y-75384819D02*
X126110952Y-74384819D01*
X126110952Y-74384819D02*
X126015714Y-74527676D01*
X126015714Y-74527676D02*
X125920476Y-74622914D01*
X125920476Y-74622914D02*
X125825238Y-74670533D01*
X165554819Y-110021666D02*
X165078628Y-110354999D01*
X165554819Y-110593094D02*
X164554819Y-110593094D01*
X164554819Y-110593094D02*
X164554819Y-110212142D01*
X164554819Y-110212142D02*
X164602438Y-110116904D01*
X164602438Y-110116904D02*
X164650057Y-110069285D01*
X164650057Y-110069285D02*
X164745295Y-110021666D01*
X164745295Y-110021666D02*
X164888152Y-110021666D01*
X164888152Y-110021666D02*
X164983390Y-110069285D01*
X164983390Y-110069285D02*
X165031009Y-110116904D01*
X165031009Y-110116904D02*
X165078628Y-110212142D01*
X165078628Y-110212142D02*
X165078628Y-110593094D01*
X164554819Y-109688332D02*
X164554819Y-109069285D01*
X164554819Y-109069285D02*
X164935771Y-109402618D01*
X164935771Y-109402618D02*
X164935771Y-109259761D01*
X164935771Y-109259761D02*
X164983390Y-109164523D01*
X164983390Y-109164523D02*
X165031009Y-109116904D01*
X165031009Y-109116904D02*
X165126247Y-109069285D01*
X165126247Y-109069285D02*
X165364342Y-109069285D01*
X165364342Y-109069285D02*
X165459580Y-109116904D01*
X165459580Y-109116904D02*
X165507200Y-109164523D01*
X165507200Y-109164523D02*
X165554819Y-109259761D01*
X165554819Y-109259761D02*
X165554819Y-109545475D01*
X165554819Y-109545475D02*
X165507200Y-109640713D01*
X165507200Y-109640713D02*
X165459580Y-109688332D01*
X132659523Y-101419819D02*
X132326190Y-100943628D01*
X132088095Y-101419819D02*
X132088095Y-100419819D01*
X132088095Y-100419819D02*
X132469047Y-100419819D01*
X132469047Y-100419819D02*
X132564285Y-100467438D01*
X132564285Y-100467438D02*
X132611904Y-100515057D01*
X132611904Y-100515057D02*
X132659523Y-100610295D01*
X132659523Y-100610295D02*
X132659523Y-100753152D01*
X132659523Y-100753152D02*
X132611904Y-100848390D01*
X132611904Y-100848390D02*
X132564285Y-100896009D01*
X132564285Y-100896009D02*
X132469047Y-100943628D01*
X132469047Y-100943628D02*
X132088095Y-100943628D01*
X133088095Y-101419819D02*
X133088095Y-100419819D01*
X133088095Y-100419819D02*
X133659523Y-101419819D01*
X133659523Y-101419819D02*
X133659523Y-100419819D01*
X134088095Y-100515057D02*
X134135714Y-100467438D01*
X134135714Y-100467438D02*
X134230952Y-100419819D01*
X134230952Y-100419819D02*
X134469047Y-100419819D01*
X134469047Y-100419819D02*
X134564285Y-100467438D01*
X134564285Y-100467438D02*
X134611904Y-100515057D01*
X134611904Y-100515057D02*
X134659523Y-100610295D01*
X134659523Y-100610295D02*
X134659523Y-100705533D01*
X134659523Y-100705533D02*
X134611904Y-100848390D01*
X134611904Y-100848390D02*
X134040476Y-101419819D01*
X134040476Y-101419819D02*
X134659523Y-101419819D01*
X187753333Y-80369580D02*
X187705714Y-80417200D01*
X187705714Y-80417200D02*
X187562857Y-80464819D01*
X187562857Y-80464819D02*
X187467619Y-80464819D01*
X187467619Y-80464819D02*
X187324762Y-80417200D01*
X187324762Y-80417200D02*
X187229524Y-80321961D01*
X187229524Y-80321961D02*
X187181905Y-80226723D01*
X187181905Y-80226723D02*
X187134286Y-80036247D01*
X187134286Y-80036247D02*
X187134286Y-79893390D01*
X187134286Y-79893390D02*
X187181905Y-79702914D01*
X187181905Y-79702914D02*
X187229524Y-79607676D01*
X187229524Y-79607676D02*
X187324762Y-79512438D01*
X187324762Y-79512438D02*
X187467619Y-79464819D01*
X187467619Y-79464819D02*
X187562857Y-79464819D01*
X187562857Y-79464819D02*
X187705714Y-79512438D01*
X187705714Y-79512438D02*
X187753333Y-79560057D01*
X188086667Y-79464819D02*
X188705714Y-79464819D01*
X188705714Y-79464819D02*
X188372381Y-79845771D01*
X188372381Y-79845771D02*
X188515238Y-79845771D01*
X188515238Y-79845771D02*
X188610476Y-79893390D01*
X188610476Y-79893390D02*
X188658095Y-79941009D01*
X188658095Y-79941009D02*
X188705714Y-80036247D01*
X188705714Y-80036247D02*
X188705714Y-80274342D01*
X188705714Y-80274342D02*
X188658095Y-80369580D01*
X188658095Y-80369580D02*
X188610476Y-80417200D01*
X188610476Y-80417200D02*
X188515238Y-80464819D01*
X188515238Y-80464819D02*
X188229524Y-80464819D01*
X188229524Y-80464819D02*
X188134286Y-80417200D01*
X188134286Y-80417200D02*
X188086667Y-80369580D01*
X183348333Y-142229819D02*
X183015000Y-141753628D01*
X182776905Y-142229819D02*
X182776905Y-141229819D01*
X182776905Y-141229819D02*
X183157857Y-141229819D01*
X183157857Y-141229819D02*
X183253095Y-141277438D01*
X183253095Y-141277438D02*
X183300714Y-141325057D01*
X183300714Y-141325057D02*
X183348333Y-141420295D01*
X183348333Y-141420295D02*
X183348333Y-141563152D01*
X183348333Y-141563152D02*
X183300714Y-141658390D01*
X183300714Y-141658390D02*
X183253095Y-141706009D01*
X183253095Y-141706009D02*
X183157857Y-141753628D01*
X183157857Y-141753628D02*
X182776905Y-141753628D01*
X183681667Y-141229819D02*
X184348333Y-141229819D01*
X184348333Y-141229819D02*
X183919762Y-142229819D01*
X144446666Y-149314819D02*
X144446666Y-150029104D01*
X144446666Y-150029104D02*
X144399047Y-150171961D01*
X144399047Y-150171961D02*
X144303809Y-150267200D01*
X144303809Y-150267200D02*
X144160952Y-150314819D01*
X144160952Y-150314819D02*
X144065714Y-150314819D01*
X145351428Y-149648152D02*
X145351428Y-150314819D01*
X145113333Y-149267200D02*
X144875238Y-149981485D01*
X144875238Y-149981485D02*
X145494285Y-149981485D01*
X170648333Y-147309819D02*
X170315000Y-146833628D01*
X170076905Y-147309819D02*
X170076905Y-146309819D01*
X170076905Y-146309819D02*
X170457857Y-146309819D01*
X170457857Y-146309819D02*
X170553095Y-146357438D01*
X170553095Y-146357438D02*
X170600714Y-146405057D01*
X170600714Y-146405057D02*
X170648333Y-146500295D01*
X170648333Y-146500295D02*
X170648333Y-146643152D01*
X170648333Y-146643152D02*
X170600714Y-146738390D01*
X170600714Y-146738390D02*
X170553095Y-146786009D01*
X170553095Y-146786009D02*
X170457857Y-146833628D01*
X170457857Y-146833628D02*
X170076905Y-146833628D01*
X171505476Y-146309819D02*
X171315000Y-146309819D01*
X171315000Y-146309819D02*
X171219762Y-146357438D01*
X171219762Y-146357438D02*
X171172143Y-146405057D01*
X171172143Y-146405057D02*
X171076905Y-146547914D01*
X171076905Y-146547914D02*
X171029286Y-146738390D01*
X171029286Y-146738390D02*
X171029286Y-147119342D01*
X171029286Y-147119342D02*
X171076905Y-147214580D01*
X171076905Y-147214580D02*
X171124524Y-147262200D01*
X171124524Y-147262200D02*
X171219762Y-147309819D01*
X171219762Y-147309819D02*
X171410238Y-147309819D01*
X171410238Y-147309819D02*
X171505476Y-147262200D01*
X171505476Y-147262200D02*
X171553095Y-147214580D01*
X171553095Y-147214580D02*
X171600714Y-147119342D01*
X171600714Y-147119342D02*
X171600714Y-146881247D01*
X171600714Y-146881247D02*
X171553095Y-146786009D01*
X171553095Y-146786009D02*
X171505476Y-146738390D01*
X171505476Y-146738390D02*
X171410238Y-146690771D01*
X171410238Y-146690771D02*
X171219762Y-146690771D01*
X171219762Y-146690771D02*
X171124524Y-146738390D01*
X171124524Y-146738390D02*
X171076905Y-146786009D01*
X171076905Y-146786009D02*
X171029286Y-146881247D01*
X158019761Y-140885057D02*
X157924523Y-140837438D01*
X157924523Y-140837438D02*
X157829285Y-140742200D01*
X157829285Y-140742200D02*
X157686428Y-140599342D01*
X157686428Y-140599342D02*
X157591190Y-140551723D01*
X157591190Y-140551723D02*
X157495952Y-140551723D01*
X157543571Y-140789819D02*
X157448333Y-140742200D01*
X157448333Y-140742200D02*
X157353095Y-140646961D01*
X157353095Y-140646961D02*
X157305476Y-140456485D01*
X157305476Y-140456485D02*
X157305476Y-140123152D01*
X157305476Y-140123152D02*
X157353095Y-139932676D01*
X157353095Y-139932676D02*
X157448333Y-139837438D01*
X157448333Y-139837438D02*
X157543571Y-139789819D01*
X157543571Y-139789819D02*
X157734047Y-139789819D01*
X157734047Y-139789819D02*
X157829285Y-139837438D01*
X157829285Y-139837438D02*
X157924523Y-139932676D01*
X157924523Y-139932676D02*
X157972142Y-140123152D01*
X157972142Y-140123152D02*
X157972142Y-140456485D01*
X157972142Y-140456485D02*
X157924523Y-140646961D01*
X157924523Y-140646961D02*
X157829285Y-140742200D01*
X157829285Y-140742200D02*
X157734047Y-140789819D01*
X157734047Y-140789819D02*
X157543571Y-140789819D01*
X158305476Y-139789819D02*
X158924523Y-139789819D01*
X158924523Y-139789819D02*
X158591190Y-140170771D01*
X158591190Y-140170771D02*
X158734047Y-140170771D01*
X158734047Y-140170771D02*
X158829285Y-140218390D01*
X158829285Y-140218390D02*
X158876904Y-140266009D01*
X158876904Y-140266009D02*
X158924523Y-140361247D01*
X158924523Y-140361247D02*
X158924523Y-140599342D01*
X158924523Y-140599342D02*
X158876904Y-140694580D01*
X158876904Y-140694580D02*
X158829285Y-140742200D01*
X158829285Y-140742200D02*
X158734047Y-140789819D01*
X158734047Y-140789819D02*
X158448333Y-140789819D01*
X158448333Y-140789819D02*
X158353095Y-140742200D01*
X158353095Y-140742200D02*
X158305476Y-140694580D01*
X187793333Y-138154580D02*
X187745714Y-138202200D01*
X187745714Y-138202200D02*
X187602857Y-138249819D01*
X187602857Y-138249819D02*
X187507619Y-138249819D01*
X187507619Y-138249819D02*
X187364762Y-138202200D01*
X187364762Y-138202200D02*
X187269524Y-138106961D01*
X187269524Y-138106961D02*
X187221905Y-138011723D01*
X187221905Y-138011723D02*
X187174286Y-137821247D01*
X187174286Y-137821247D02*
X187174286Y-137678390D01*
X187174286Y-137678390D02*
X187221905Y-137487914D01*
X187221905Y-137487914D02*
X187269524Y-137392676D01*
X187269524Y-137392676D02*
X187364762Y-137297438D01*
X187364762Y-137297438D02*
X187507619Y-137249819D01*
X187507619Y-137249819D02*
X187602857Y-137249819D01*
X187602857Y-137249819D02*
X187745714Y-137297438D01*
X187745714Y-137297438D02*
X187793333Y-137345057D01*
X188364762Y-137678390D02*
X188269524Y-137630771D01*
X188269524Y-137630771D02*
X188221905Y-137583152D01*
X188221905Y-137583152D02*
X188174286Y-137487914D01*
X188174286Y-137487914D02*
X188174286Y-137440295D01*
X188174286Y-137440295D02*
X188221905Y-137345057D01*
X188221905Y-137345057D02*
X188269524Y-137297438D01*
X188269524Y-137297438D02*
X188364762Y-137249819D01*
X188364762Y-137249819D02*
X188555238Y-137249819D01*
X188555238Y-137249819D02*
X188650476Y-137297438D01*
X188650476Y-137297438D02*
X188698095Y-137345057D01*
X188698095Y-137345057D02*
X188745714Y-137440295D01*
X188745714Y-137440295D02*
X188745714Y-137487914D01*
X188745714Y-137487914D02*
X188698095Y-137583152D01*
X188698095Y-137583152D02*
X188650476Y-137630771D01*
X188650476Y-137630771D02*
X188555238Y-137678390D01*
X188555238Y-137678390D02*
X188364762Y-137678390D01*
X188364762Y-137678390D02*
X188269524Y-137726009D01*
X188269524Y-137726009D02*
X188221905Y-137773628D01*
X188221905Y-137773628D02*
X188174286Y-137868866D01*
X188174286Y-137868866D02*
X188174286Y-138059342D01*
X188174286Y-138059342D02*
X188221905Y-138154580D01*
X188221905Y-138154580D02*
X188269524Y-138202200D01*
X188269524Y-138202200D02*
X188364762Y-138249819D01*
X188364762Y-138249819D02*
X188555238Y-138249819D01*
X188555238Y-138249819D02*
X188650476Y-138202200D01*
X188650476Y-138202200D02*
X188698095Y-138154580D01*
X188698095Y-138154580D02*
X188745714Y-138059342D01*
X188745714Y-138059342D02*
X188745714Y-137868866D01*
X188745714Y-137868866D02*
X188698095Y-137773628D01*
X188698095Y-137773628D02*
X188650476Y-137726009D01*
X188650476Y-137726009D02*
X188555238Y-137678390D01*
X165459580Y-80811666D02*
X165507200Y-80859285D01*
X165507200Y-80859285D02*
X165554819Y-81002142D01*
X165554819Y-81002142D02*
X165554819Y-81097380D01*
X165554819Y-81097380D02*
X165507200Y-81240237D01*
X165507200Y-81240237D02*
X165411961Y-81335475D01*
X165411961Y-81335475D02*
X165316723Y-81383094D01*
X165316723Y-81383094D02*
X165126247Y-81430713D01*
X165126247Y-81430713D02*
X164983390Y-81430713D01*
X164983390Y-81430713D02*
X164792914Y-81383094D01*
X164792914Y-81383094D02*
X164697676Y-81335475D01*
X164697676Y-81335475D02*
X164602438Y-81240237D01*
X164602438Y-81240237D02*
X164554819Y-81097380D01*
X164554819Y-81097380D02*
X164554819Y-81002142D01*
X164554819Y-81002142D02*
X164602438Y-80859285D01*
X164602438Y-80859285D02*
X164650057Y-80811666D01*
X164888152Y-79954523D02*
X165554819Y-79954523D01*
X164507200Y-80192618D02*
X165221485Y-80430713D01*
X165221485Y-80430713D02*
X165221485Y-79811666D01*
X187753333Y-77194580D02*
X187705714Y-77242200D01*
X187705714Y-77242200D02*
X187562857Y-77289819D01*
X187562857Y-77289819D02*
X187467619Y-77289819D01*
X187467619Y-77289819D02*
X187324762Y-77242200D01*
X187324762Y-77242200D02*
X187229524Y-77146961D01*
X187229524Y-77146961D02*
X187181905Y-77051723D01*
X187181905Y-77051723D02*
X187134286Y-76861247D01*
X187134286Y-76861247D02*
X187134286Y-76718390D01*
X187134286Y-76718390D02*
X187181905Y-76527914D01*
X187181905Y-76527914D02*
X187229524Y-76432676D01*
X187229524Y-76432676D02*
X187324762Y-76337438D01*
X187324762Y-76337438D02*
X187467619Y-76289819D01*
X187467619Y-76289819D02*
X187562857Y-76289819D01*
X187562857Y-76289819D02*
X187705714Y-76337438D01*
X187705714Y-76337438D02*
X187753333Y-76385057D01*
X188134286Y-76385057D02*
X188181905Y-76337438D01*
X188181905Y-76337438D02*
X188277143Y-76289819D01*
X188277143Y-76289819D02*
X188515238Y-76289819D01*
X188515238Y-76289819D02*
X188610476Y-76337438D01*
X188610476Y-76337438D02*
X188658095Y-76385057D01*
X188658095Y-76385057D02*
X188705714Y-76480295D01*
X188705714Y-76480295D02*
X188705714Y-76575533D01*
X188705714Y-76575533D02*
X188658095Y-76718390D01*
X188658095Y-76718390D02*
X188086667Y-77289819D01*
X188086667Y-77289819D02*
X188705714Y-77289819D01*
X165554819Y-120181666D02*
X165078628Y-120514999D01*
X165554819Y-120753094D02*
X164554819Y-120753094D01*
X164554819Y-120753094D02*
X164554819Y-120372142D01*
X164554819Y-120372142D02*
X164602438Y-120276904D01*
X164602438Y-120276904D02*
X164650057Y-120229285D01*
X164650057Y-120229285D02*
X164745295Y-120181666D01*
X164745295Y-120181666D02*
X164888152Y-120181666D01*
X164888152Y-120181666D02*
X164983390Y-120229285D01*
X164983390Y-120229285D02*
X165031009Y-120276904D01*
X165031009Y-120276904D02*
X165078628Y-120372142D01*
X165078628Y-120372142D02*
X165078628Y-120753094D01*
X164888152Y-119324523D02*
X165554819Y-119324523D01*
X164507200Y-119562618D02*
X165221485Y-119800713D01*
X165221485Y-119800713D02*
X165221485Y-119181666D01*
X182753095Y-82849819D02*
X182753095Y-83659342D01*
X182753095Y-83659342D02*
X182800714Y-83754580D01*
X182800714Y-83754580D02*
X182848333Y-83802200D01*
X182848333Y-83802200D02*
X182943571Y-83849819D01*
X182943571Y-83849819D02*
X183134047Y-83849819D01*
X183134047Y-83849819D02*
X183229285Y-83802200D01*
X183229285Y-83802200D02*
X183276904Y-83754580D01*
X183276904Y-83754580D02*
X183324523Y-83659342D01*
X183324523Y-83659342D02*
X183324523Y-82849819D01*
X183705476Y-82849819D02*
X184324523Y-82849819D01*
X184324523Y-82849819D02*
X183991190Y-83230771D01*
X183991190Y-83230771D02*
X184134047Y-83230771D01*
X184134047Y-83230771D02*
X184229285Y-83278390D01*
X184229285Y-83278390D02*
X184276904Y-83326009D01*
X184276904Y-83326009D02*
X184324523Y-83421247D01*
X184324523Y-83421247D02*
X184324523Y-83659342D01*
X184324523Y-83659342D02*
X184276904Y-83754580D01*
X184276904Y-83754580D02*
X184229285Y-83802200D01*
X184229285Y-83802200D02*
X184134047Y-83849819D01*
X184134047Y-83849819D02*
X183848333Y-83849819D01*
X183848333Y-83849819D02*
X183753095Y-83802200D01*
X183753095Y-83802200D02*
X183705476Y-83754580D01*
X171998095Y-111424819D02*
X171998095Y-112234342D01*
X171998095Y-112234342D02*
X172045714Y-112329580D01*
X172045714Y-112329580D02*
X172093333Y-112377200D01*
X172093333Y-112377200D02*
X172188571Y-112424819D01*
X172188571Y-112424819D02*
X172379047Y-112424819D01*
X172379047Y-112424819D02*
X172474285Y-112377200D01*
X172474285Y-112377200D02*
X172521904Y-112329580D01*
X172521904Y-112329580D02*
X172569523Y-112234342D01*
X172569523Y-112234342D02*
X172569523Y-111424819D01*
X173474285Y-111758152D02*
X173474285Y-112424819D01*
X173236190Y-111377200D02*
X172998095Y-112091485D01*
X172998095Y-112091485D02*
X173617142Y-112091485D01*
X165554819Y-89701666D02*
X165078628Y-90034999D01*
X165554819Y-90273094D02*
X164554819Y-90273094D01*
X164554819Y-90273094D02*
X164554819Y-89892142D01*
X164554819Y-89892142D02*
X164602438Y-89796904D01*
X164602438Y-89796904D02*
X164650057Y-89749285D01*
X164650057Y-89749285D02*
X164745295Y-89701666D01*
X164745295Y-89701666D02*
X164888152Y-89701666D01*
X164888152Y-89701666D02*
X164983390Y-89749285D01*
X164983390Y-89749285D02*
X165031009Y-89796904D01*
X165031009Y-89796904D02*
X165078628Y-89892142D01*
X165078628Y-89892142D02*
X165078628Y-90273094D01*
X164650057Y-89320713D02*
X164602438Y-89273094D01*
X164602438Y-89273094D02*
X164554819Y-89177856D01*
X164554819Y-89177856D02*
X164554819Y-88939761D01*
X164554819Y-88939761D02*
X164602438Y-88844523D01*
X164602438Y-88844523D02*
X164650057Y-88796904D01*
X164650057Y-88796904D02*
X164745295Y-88749285D01*
X164745295Y-88749285D02*
X164840533Y-88749285D01*
X164840533Y-88749285D02*
X164983390Y-88796904D01*
X164983390Y-88796904D02*
X165554819Y-89368332D01*
X165554819Y-89368332D02*
X165554819Y-88749285D01*
X151669761Y-140885057D02*
X151574523Y-140837438D01*
X151574523Y-140837438D02*
X151479285Y-140742200D01*
X151479285Y-140742200D02*
X151336428Y-140599342D01*
X151336428Y-140599342D02*
X151241190Y-140551723D01*
X151241190Y-140551723D02*
X151145952Y-140551723D01*
X151193571Y-140789819D02*
X151098333Y-140742200D01*
X151098333Y-140742200D02*
X151003095Y-140646961D01*
X151003095Y-140646961D02*
X150955476Y-140456485D01*
X150955476Y-140456485D02*
X150955476Y-140123152D01*
X150955476Y-140123152D02*
X151003095Y-139932676D01*
X151003095Y-139932676D02*
X151098333Y-139837438D01*
X151098333Y-139837438D02*
X151193571Y-139789819D01*
X151193571Y-139789819D02*
X151384047Y-139789819D01*
X151384047Y-139789819D02*
X151479285Y-139837438D01*
X151479285Y-139837438D02*
X151574523Y-139932676D01*
X151574523Y-139932676D02*
X151622142Y-140123152D01*
X151622142Y-140123152D02*
X151622142Y-140456485D01*
X151622142Y-140456485D02*
X151574523Y-140646961D01*
X151574523Y-140646961D02*
X151479285Y-140742200D01*
X151479285Y-140742200D02*
X151384047Y-140789819D01*
X151384047Y-140789819D02*
X151193571Y-140789819D01*
X152003095Y-139885057D02*
X152050714Y-139837438D01*
X152050714Y-139837438D02*
X152145952Y-139789819D01*
X152145952Y-139789819D02*
X152384047Y-139789819D01*
X152384047Y-139789819D02*
X152479285Y-139837438D01*
X152479285Y-139837438D02*
X152526904Y-139885057D01*
X152526904Y-139885057D02*
X152574523Y-139980295D01*
X152574523Y-139980295D02*
X152574523Y-140075533D01*
X152574523Y-140075533D02*
X152526904Y-140218390D01*
X152526904Y-140218390D02*
X151955476Y-140789819D01*
X151955476Y-140789819D02*
X152574523Y-140789819D01*
X183348333Y-147309819D02*
X183015000Y-146833628D01*
X182776905Y-147309819D02*
X182776905Y-146309819D01*
X182776905Y-146309819D02*
X183157857Y-146309819D01*
X183157857Y-146309819D02*
X183253095Y-146357438D01*
X183253095Y-146357438D02*
X183300714Y-146405057D01*
X183300714Y-146405057D02*
X183348333Y-146500295D01*
X183348333Y-146500295D02*
X183348333Y-146643152D01*
X183348333Y-146643152D02*
X183300714Y-146738390D01*
X183300714Y-146738390D02*
X183253095Y-146786009D01*
X183253095Y-146786009D02*
X183157857Y-146833628D01*
X183157857Y-146833628D02*
X182776905Y-146833628D01*
X183919762Y-146738390D02*
X183824524Y-146690771D01*
X183824524Y-146690771D02*
X183776905Y-146643152D01*
X183776905Y-146643152D02*
X183729286Y-146547914D01*
X183729286Y-146547914D02*
X183729286Y-146500295D01*
X183729286Y-146500295D02*
X183776905Y-146405057D01*
X183776905Y-146405057D02*
X183824524Y-146357438D01*
X183824524Y-146357438D02*
X183919762Y-146309819D01*
X183919762Y-146309819D02*
X184110238Y-146309819D01*
X184110238Y-146309819D02*
X184205476Y-146357438D01*
X184205476Y-146357438D02*
X184253095Y-146405057D01*
X184253095Y-146405057D02*
X184300714Y-146500295D01*
X184300714Y-146500295D02*
X184300714Y-146547914D01*
X184300714Y-146547914D02*
X184253095Y-146643152D01*
X184253095Y-146643152D02*
X184205476Y-146690771D01*
X184205476Y-146690771D02*
X184110238Y-146738390D01*
X184110238Y-146738390D02*
X183919762Y-146738390D01*
X183919762Y-146738390D02*
X183824524Y-146786009D01*
X183824524Y-146786009D02*
X183776905Y-146833628D01*
X183776905Y-146833628D02*
X183729286Y-146928866D01*
X183729286Y-146928866D02*
X183729286Y-147119342D01*
X183729286Y-147119342D02*
X183776905Y-147214580D01*
X183776905Y-147214580D02*
X183824524Y-147262200D01*
X183824524Y-147262200D02*
X183919762Y-147309819D01*
X183919762Y-147309819D02*
X184110238Y-147309819D01*
X184110238Y-147309819D02*
X184205476Y-147262200D01*
X184205476Y-147262200D02*
X184253095Y-147214580D01*
X184253095Y-147214580D02*
X184300714Y-147119342D01*
X184300714Y-147119342D02*
X184300714Y-146928866D01*
X184300714Y-146928866D02*
X184253095Y-146833628D01*
X184253095Y-146833628D02*
X184205476Y-146786009D01*
X184205476Y-146786009D02*
X184110238Y-146738390D01*
X147312142Y-143329819D02*
X146978809Y-142853628D01*
X146740714Y-143329819D02*
X146740714Y-142329819D01*
X146740714Y-142329819D02*
X147121666Y-142329819D01*
X147121666Y-142329819D02*
X147216904Y-142377438D01*
X147216904Y-142377438D02*
X147264523Y-142425057D01*
X147264523Y-142425057D02*
X147312142Y-142520295D01*
X147312142Y-142520295D02*
X147312142Y-142663152D01*
X147312142Y-142663152D02*
X147264523Y-142758390D01*
X147264523Y-142758390D02*
X147216904Y-142806009D01*
X147216904Y-142806009D02*
X147121666Y-142853628D01*
X147121666Y-142853628D02*
X146740714Y-142853628D01*
X148264523Y-143329819D02*
X147693095Y-143329819D01*
X147978809Y-143329819D02*
X147978809Y-142329819D01*
X147978809Y-142329819D02*
X147883571Y-142472676D01*
X147883571Y-142472676D02*
X147788333Y-142567914D01*
X147788333Y-142567914D02*
X147693095Y-142615533D01*
X148883571Y-142329819D02*
X148978809Y-142329819D01*
X148978809Y-142329819D02*
X149074047Y-142377438D01*
X149074047Y-142377438D02*
X149121666Y-142425057D01*
X149121666Y-142425057D02*
X149169285Y-142520295D01*
X149169285Y-142520295D02*
X149216904Y-142710771D01*
X149216904Y-142710771D02*
X149216904Y-142948866D01*
X149216904Y-142948866D02*
X149169285Y-143139342D01*
X149169285Y-143139342D02*
X149121666Y-143234580D01*
X149121666Y-143234580D02*
X149074047Y-143282200D01*
X149074047Y-143282200D02*
X148978809Y-143329819D01*
X148978809Y-143329819D02*
X148883571Y-143329819D01*
X148883571Y-143329819D02*
X148788333Y-143282200D01*
X148788333Y-143282200D02*
X148740714Y-143234580D01*
X148740714Y-143234580D02*
X148693095Y-143139342D01*
X148693095Y-143139342D02*
X148645476Y-142948866D01*
X148645476Y-142948866D02*
X148645476Y-142710771D01*
X148645476Y-142710771D02*
X148693095Y-142520295D01*
X148693095Y-142520295D02*
X148740714Y-142425057D01*
X148740714Y-142425057D02*
X148788333Y-142377438D01*
X148788333Y-142377438D02*
X148883571Y-142329819D01*
X147312142Y-146504819D02*
X146978809Y-146028628D01*
X146740714Y-146504819D02*
X146740714Y-145504819D01*
X146740714Y-145504819D02*
X147121666Y-145504819D01*
X147121666Y-145504819D02*
X147216904Y-145552438D01*
X147216904Y-145552438D02*
X147264523Y-145600057D01*
X147264523Y-145600057D02*
X147312142Y-145695295D01*
X147312142Y-145695295D02*
X147312142Y-145838152D01*
X147312142Y-145838152D02*
X147264523Y-145933390D01*
X147264523Y-145933390D02*
X147216904Y-145981009D01*
X147216904Y-145981009D02*
X147121666Y-146028628D01*
X147121666Y-146028628D02*
X146740714Y-146028628D01*
X148264523Y-146504819D02*
X147693095Y-146504819D01*
X147978809Y-146504819D02*
X147978809Y-145504819D01*
X147978809Y-145504819D02*
X147883571Y-145647676D01*
X147883571Y-145647676D02*
X147788333Y-145742914D01*
X147788333Y-145742914D02*
X147693095Y-145790533D01*
X149216904Y-146504819D02*
X148645476Y-146504819D01*
X148931190Y-146504819D02*
X148931190Y-145504819D01*
X148931190Y-145504819D02*
X148835952Y-145647676D01*
X148835952Y-145647676D02*
X148740714Y-145742914D01*
X148740714Y-145742914D02*
X148645476Y-145790533D01*
X134286666Y-74384819D02*
X134286666Y-75099104D01*
X134286666Y-75099104D02*
X134239047Y-75241961D01*
X134239047Y-75241961D02*
X134143809Y-75337200D01*
X134143809Y-75337200D02*
X134000952Y-75384819D01*
X134000952Y-75384819D02*
X133905714Y-75384819D01*
X134715238Y-74480057D02*
X134762857Y-74432438D01*
X134762857Y-74432438D02*
X134858095Y-74384819D01*
X134858095Y-74384819D02*
X135096190Y-74384819D01*
X135096190Y-74384819D02*
X135191428Y-74432438D01*
X135191428Y-74432438D02*
X135239047Y-74480057D01*
X135239047Y-74480057D02*
X135286666Y-74575295D01*
X135286666Y-74575295D02*
X135286666Y-74670533D01*
X135286666Y-74670533D02*
X135239047Y-74813390D01*
X135239047Y-74813390D02*
X134667619Y-75384819D01*
X134667619Y-75384819D02*
X135286666Y-75384819D01*
X126801666Y-118404819D02*
X126801666Y-119119104D01*
X126801666Y-119119104D02*
X126754047Y-119261961D01*
X126754047Y-119261961D02*
X126658809Y-119357200D01*
X126658809Y-119357200D02*
X126515952Y-119404819D01*
X126515952Y-119404819D02*
X126420714Y-119404819D01*
X127277857Y-119404819D02*
X127277857Y-118404819D01*
X127277857Y-118404819D02*
X127658809Y-118404819D01*
X127658809Y-118404819D02*
X127754047Y-118452438D01*
X127754047Y-118452438D02*
X127801666Y-118500057D01*
X127801666Y-118500057D02*
X127849285Y-118595295D01*
X127849285Y-118595295D02*
X127849285Y-118738152D01*
X127849285Y-118738152D02*
X127801666Y-118833390D01*
X127801666Y-118833390D02*
X127754047Y-118881009D01*
X127754047Y-118881009D02*
X127658809Y-118928628D01*
X127658809Y-118928628D02*
X127277857Y-118928628D01*
X128801666Y-119404819D02*
X128230238Y-119404819D01*
X128515952Y-119404819D02*
X128515952Y-118404819D01*
X128515952Y-118404819D02*
X128420714Y-118547676D01*
X128420714Y-118547676D02*
X128325476Y-118642914D01*
X128325476Y-118642914D02*
X128230238Y-118690533D01*
X171958095Y-82849819D02*
X171958095Y-83659342D01*
X171958095Y-83659342D02*
X172005714Y-83754580D01*
X172005714Y-83754580D02*
X172053333Y-83802200D01*
X172053333Y-83802200D02*
X172148571Y-83849819D01*
X172148571Y-83849819D02*
X172339047Y-83849819D01*
X172339047Y-83849819D02*
X172434285Y-83802200D01*
X172434285Y-83802200D02*
X172481904Y-83754580D01*
X172481904Y-83754580D02*
X172529523Y-83659342D01*
X172529523Y-83659342D02*
X172529523Y-82849819D01*
X172958095Y-82945057D02*
X173005714Y-82897438D01*
X173005714Y-82897438D02*
X173100952Y-82849819D01*
X173100952Y-82849819D02*
X173339047Y-82849819D01*
X173339047Y-82849819D02*
X173434285Y-82897438D01*
X173434285Y-82897438D02*
X173481904Y-82945057D01*
X173481904Y-82945057D02*
X173529523Y-83040295D01*
X173529523Y-83040295D02*
X173529523Y-83135533D01*
X173529523Y-83135533D02*
X173481904Y-83278390D01*
X173481904Y-83278390D02*
X172910476Y-83849819D01*
X172910476Y-83849819D02*
X173529523Y-83849819D01*
X157472142Y-143329819D02*
X157138809Y-142853628D01*
X156900714Y-143329819D02*
X156900714Y-142329819D01*
X156900714Y-142329819D02*
X157281666Y-142329819D01*
X157281666Y-142329819D02*
X157376904Y-142377438D01*
X157376904Y-142377438D02*
X157424523Y-142425057D01*
X157424523Y-142425057D02*
X157472142Y-142520295D01*
X157472142Y-142520295D02*
X157472142Y-142663152D01*
X157472142Y-142663152D02*
X157424523Y-142758390D01*
X157424523Y-142758390D02*
X157376904Y-142806009D01*
X157376904Y-142806009D02*
X157281666Y-142853628D01*
X157281666Y-142853628D02*
X156900714Y-142853628D01*
X158424523Y-143329819D02*
X157853095Y-143329819D01*
X158138809Y-143329819D02*
X158138809Y-142329819D01*
X158138809Y-142329819D02*
X158043571Y-142472676D01*
X158043571Y-142472676D02*
X157948333Y-142567914D01*
X157948333Y-142567914D02*
X157853095Y-142615533D01*
X158805476Y-142425057D02*
X158853095Y-142377438D01*
X158853095Y-142377438D02*
X158948333Y-142329819D01*
X158948333Y-142329819D02*
X159186428Y-142329819D01*
X159186428Y-142329819D02*
X159281666Y-142377438D01*
X159281666Y-142377438D02*
X159329285Y-142425057D01*
X159329285Y-142425057D02*
X159376904Y-142520295D01*
X159376904Y-142520295D02*
X159376904Y-142615533D01*
X159376904Y-142615533D02*
X159329285Y-142758390D01*
X159329285Y-142758390D02*
X158757857Y-143329819D01*
X158757857Y-143329819D02*
X159376904Y-143329819D01*
X126309523Y-101419819D02*
X125976190Y-100943628D01*
X125738095Y-101419819D02*
X125738095Y-100419819D01*
X125738095Y-100419819D02*
X126119047Y-100419819D01*
X126119047Y-100419819D02*
X126214285Y-100467438D01*
X126214285Y-100467438D02*
X126261904Y-100515057D01*
X126261904Y-100515057D02*
X126309523Y-100610295D01*
X126309523Y-100610295D02*
X126309523Y-100753152D01*
X126309523Y-100753152D02*
X126261904Y-100848390D01*
X126261904Y-100848390D02*
X126214285Y-100896009D01*
X126214285Y-100896009D02*
X126119047Y-100943628D01*
X126119047Y-100943628D02*
X125738095Y-100943628D01*
X126738095Y-101419819D02*
X126738095Y-100419819D01*
X126738095Y-100419819D02*
X127309523Y-101419819D01*
X127309523Y-101419819D02*
X127309523Y-100419819D01*
X128309523Y-101419819D02*
X127738095Y-101419819D01*
X128023809Y-101419819D02*
X128023809Y-100419819D01*
X128023809Y-100419819D02*
X127928571Y-100562676D01*
X127928571Y-100562676D02*
X127833333Y-100657914D01*
X127833333Y-100657914D02*
X127738095Y-100705533D01*
D13*
%TO.C,U1*%
X160425400Y-74095000D02*
X153425400Y-74095000D01*
X151425400Y-74095000D02*
X144425400Y-74095000D01*
X144425400Y-74095000D02*
X144425400Y-132095000D01*
X160425400Y-132095000D02*
X160425400Y-74095000D01*
X144425400Y-132095000D02*
X160425400Y-132095000D01*
X152425400Y-75095000D02*
G75*
G03*
X153425400Y-74095000I1J999999D01*
G01*
X151425400Y-74095000D02*
G75*
G03*
X152425400Y-75095000I999999J-1D01*
G01*
D14*
%TO.C,C7*%
X170140000Y-136425000D02*
X170140000Y-136740000D01*
X170140000Y-136425000D02*
X175380000Y-136425000D01*
X170140000Y-138850000D02*
X170140000Y-139165000D01*
X170140000Y-139165000D02*
X175380000Y-139165000D01*
X175380000Y-136425000D02*
X175380000Y-136740000D01*
X175380000Y-138850000D02*
X175380000Y-139165000D01*
%TO.C,C1*%
X163730000Y-131485000D02*
X164045000Y-131485000D01*
X163730000Y-131485000D02*
X163730000Y-126245000D01*
X166155000Y-131485000D02*
X166470000Y-131485000D01*
X166470000Y-131485000D02*
X166470000Y-126245000D01*
X163730000Y-126245000D02*
X164045000Y-126245000D01*
X166155000Y-126245000D02*
X166470000Y-126245000D01*
%TO.C,C6*%
X180895000Y-107850000D02*
X180895000Y-108165000D01*
X180895000Y-107850000D02*
X186135000Y-107850000D01*
X180895000Y-110275000D02*
X180895000Y-110590000D01*
X180895000Y-110590000D02*
X186135000Y-110590000D01*
X186135000Y-107850000D02*
X186135000Y-108165000D01*
X186135000Y-110275000D02*
X186135000Y-110590000D01*
%TO.C,R5*%
X167545000Y-142775000D02*
X174085000Y-142775000D01*
X167545000Y-143105000D02*
X167545000Y-142775000D01*
X167545000Y-145185000D02*
X167545000Y-145515000D01*
X167545000Y-145515000D02*
X174085000Y-145515000D01*
X174085000Y-142775000D02*
X174085000Y-143105000D01*
X174085000Y-145515000D02*
X174085000Y-145185000D01*
%TO.C,Q4*%
X162665000Y-139010000D02*
X166265000Y-139010000D01*
X164465000Y-134560000D02*
G75*
G03*
X162626522Y-138998478I0J-2600000D01*
G01*
X166303478Y-138998478D02*
G75*
G03*
X164465000Y-134560000I-1838478J1838478D01*
G01*
%TO.C,C5*%
X170060000Y-107850000D02*
X170060000Y-108165000D01*
X170060000Y-107850000D02*
X175300000Y-107850000D01*
X170060000Y-110275000D02*
X170060000Y-110590000D01*
X170060000Y-110590000D02*
X175300000Y-110590000D01*
X175300000Y-107850000D02*
X175300000Y-108165000D01*
X175300000Y-110275000D02*
X175300000Y-110590000D01*
%TO.C,U5*%
X182555000Y-112970000D02*
G75*
G03*
X184555000Y-112970000I1000000J0D01*
G01*
X186205000Y-135950000D02*
X186205000Y-112970000D01*
X186205000Y-112970000D02*
X184555000Y-112970000D01*
X182555000Y-112970000D02*
X180905000Y-112970000D01*
X180905000Y-135950000D02*
X186205000Y-135950000D01*
X180905000Y-112970000D02*
X180905000Y-135950000D01*
D15*
%TO.C,J3*%
X119155000Y-137955000D02*
X119155000Y-137955000D01*
X119155000Y-138155000D02*
X119155000Y-138155000D01*
X119755000Y-131455000D02*
X140755000Y-131455000D01*
X119755000Y-150355000D02*
X119755000Y-131455000D01*
X140755000Y-131455000D02*
X140755000Y-150355000D01*
X140755000Y-150355000D02*
X119755000Y-150355000D01*
X119155000Y-138155000D02*
G75*
G03*
X119155000Y-137955000I0J100000D01*
G01*
X119155000Y-137955000D02*
G75*
G03*
X119155000Y-138155000I0J-100000D01*
G01*
D14*
%TO.C,Q1*%
X143615000Y-139010000D02*
X147215000Y-139010000D01*
X145415000Y-134560000D02*
G75*
G03*
X143576522Y-138998478I0J-2600000D01*
G01*
X147253478Y-138998478D02*
G75*
G03*
X145415000Y-134560000I-1838478J1838478D01*
G01*
%TO.C,R9*%
X161385000Y-147420000D02*
X161385000Y-147090000D01*
X161385000Y-144680000D02*
X161385000Y-145010000D01*
X154845000Y-147420000D02*
X161385000Y-147420000D01*
X154845000Y-147090000D02*
X154845000Y-147420000D01*
X154845000Y-145010000D02*
X154845000Y-144680000D01*
X154845000Y-144680000D02*
X161385000Y-144680000D01*
%TO.C,Y1*%
X176975000Y-80630000D02*
G75*
G03*
X176975000Y-75580000I0J2525000D01*
G01*
X170725000Y-75580000D02*
G75*
G03*
X170725000Y-80630000I0J-2525000D01*
G01*
X170725000Y-80630000D02*
X176975000Y-80630000D01*
X170725000Y-75580000D02*
X176975000Y-75580000D01*
%TO.C,R1*%
X166470000Y-96425000D02*
X166470000Y-102965000D01*
X166140000Y-96425000D02*
X166470000Y-96425000D01*
X164060000Y-96425000D02*
X163730000Y-96425000D01*
X163730000Y-96425000D02*
X163730000Y-102965000D01*
X166470000Y-102965000D02*
X166140000Y-102965000D01*
X163730000Y-102965000D02*
X164060000Y-102965000D01*
%TO.C,J1*%
X121225000Y-74235000D02*
X122555000Y-74235000D01*
X121225000Y-75565000D02*
X121225000Y-74235000D01*
X121225000Y-76835000D02*
X121225000Y-125155000D01*
X121225000Y-76835000D02*
X123885000Y-76835000D01*
X121225000Y-125155000D02*
X123885000Y-125155000D01*
X123885000Y-76835000D02*
X123885000Y-125155000D01*
%TO.C,R3*%
X166470000Y-106585000D02*
X166140000Y-106585000D01*
X163730000Y-106585000D02*
X164060000Y-106585000D01*
X166470000Y-113125000D02*
X166470000Y-106585000D01*
X166140000Y-113125000D02*
X166470000Y-113125000D01*
X164060000Y-113125000D02*
X163730000Y-113125000D01*
X163730000Y-113125000D02*
X163730000Y-106585000D01*
%TO.C,RN2*%
X131950000Y-99865000D02*
X134750000Y-99865000D01*
X134750000Y-99865000D02*
X134750000Y-76665000D01*
X134750000Y-79375000D02*
X131950000Y-79375000D01*
X131950000Y-76665000D02*
X131950000Y-99865000D01*
X134750000Y-76665000D02*
X131950000Y-76665000D01*
%TO.C,C3*%
X186095000Y-81380000D02*
X186095000Y-81065000D01*
X186095000Y-81380000D02*
X180855000Y-81380000D01*
X186095000Y-78955000D02*
X186095000Y-78640000D01*
X186095000Y-78640000D02*
X180855000Y-78640000D01*
X180855000Y-81380000D02*
X180855000Y-81065000D01*
X180855000Y-78955000D02*
X180855000Y-78640000D01*
%TO.C,R7*%
X180245000Y-142775000D02*
X186785000Y-142775000D01*
X180245000Y-143105000D02*
X180245000Y-142775000D01*
X180245000Y-145185000D02*
X180245000Y-145515000D01*
X180245000Y-145515000D02*
X186785000Y-145515000D01*
X186785000Y-142775000D02*
X186785000Y-143105000D01*
X186785000Y-145515000D02*
X186785000Y-145185000D01*
%TO.C,J4*%
X146625000Y-151190000D02*
X146625000Y-149860000D01*
X147955000Y-151190000D02*
X146625000Y-151190000D01*
X149225000Y-151190000D02*
X159445000Y-151190000D01*
X149225000Y-151190000D02*
X149225000Y-148530000D01*
X159445000Y-151190000D02*
X159445000Y-148530000D01*
X149225000Y-148530000D02*
X159445000Y-148530000D01*
%TO.C,R6*%
X167545000Y-147855000D02*
X174085000Y-147855000D01*
X167545000Y-148185000D02*
X167545000Y-147855000D01*
X167545000Y-150265000D02*
X167545000Y-150595000D01*
X167545000Y-150595000D02*
X174085000Y-150595000D01*
X174085000Y-147855000D02*
X174085000Y-148185000D01*
X174085000Y-150595000D02*
X174085000Y-150265000D01*
%TO.C,Q3*%
X156315000Y-139010000D02*
X159915000Y-139010000D01*
X158115000Y-134560000D02*
G75*
G03*
X156276522Y-138998478I0J-2600000D01*
G01*
X159953478Y-138998478D02*
G75*
G03*
X158115000Y-134560000I-1838478J1838478D01*
G01*
%TO.C,C8*%
X180935000Y-136425000D02*
X180935000Y-136740000D01*
X180935000Y-136425000D02*
X186175000Y-136425000D01*
X180935000Y-138850000D02*
X180935000Y-139165000D01*
X180935000Y-139165000D02*
X186175000Y-139165000D01*
X186175000Y-136425000D02*
X186175000Y-136740000D01*
X186175000Y-138850000D02*
X186175000Y-139165000D01*
%TO.C,C4*%
X163730000Y-83265000D02*
X164045000Y-83265000D01*
X163730000Y-83265000D02*
X163730000Y-78025000D01*
X166155000Y-83265000D02*
X166470000Y-83265000D01*
X166470000Y-83265000D02*
X166470000Y-78025000D01*
X163730000Y-78025000D02*
X164045000Y-78025000D01*
X166155000Y-78025000D02*
X166470000Y-78025000D01*
%TO.C,C2*%
X186095000Y-78205000D02*
X186095000Y-77890000D01*
X186095000Y-78205000D02*
X180855000Y-78205000D01*
X186095000Y-75780000D02*
X186095000Y-75465000D01*
X186095000Y-75465000D02*
X180855000Y-75465000D01*
X180855000Y-78205000D02*
X180855000Y-77890000D01*
X180855000Y-75780000D02*
X180855000Y-75465000D01*
%TO.C,R4*%
X163730000Y-123285000D02*
X163730000Y-116745000D01*
X164060000Y-123285000D02*
X163730000Y-123285000D01*
X166140000Y-123285000D02*
X166470000Y-123285000D01*
X166470000Y-123285000D02*
X166470000Y-116745000D01*
X163730000Y-116745000D02*
X164060000Y-116745000D01*
X166470000Y-116745000D02*
X166140000Y-116745000D01*
%TO.C,U3*%
X182515000Y-84395000D02*
G75*
G03*
X184515000Y-84395000I1000000J0D01*
G01*
X186165000Y-107375000D02*
X186165000Y-84395000D01*
X186165000Y-84395000D02*
X184515000Y-84395000D01*
X182515000Y-84395000D02*
X180865000Y-84395000D01*
X180865000Y-107375000D02*
X186165000Y-107375000D01*
X180865000Y-84395000D02*
X180865000Y-107375000D01*
%TO.C,U4*%
X171760000Y-112970000D02*
G75*
G03*
X173760000Y-112970000I1000000J0D01*
G01*
X175410000Y-135950000D02*
X175410000Y-112970000D01*
X175410000Y-112970000D02*
X173760000Y-112970000D01*
X171760000Y-112970000D02*
X170110000Y-112970000D01*
X170110000Y-135950000D02*
X175410000Y-135950000D01*
X170110000Y-112970000D02*
X170110000Y-135950000D01*
%TO.C,R2*%
X163730000Y-92805000D02*
X164060000Y-92805000D01*
X166470000Y-92805000D02*
X166140000Y-92805000D01*
X163730000Y-86265000D02*
X163730000Y-92805000D01*
X164060000Y-86265000D02*
X163730000Y-86265000D01*
X166140000Y-86265000D02*
X166470000Y-86265000D01*
X166470000Y-86265000D02*
X166470000Y-92805000D01*
%TO.C,Q2*%
X149965000Y-139010000D02*
X153565000Y-139010000D01*
X151765000Y-134560000D02*
G75*
G03*
X149926522Y-138998478I0J-2600000D01*
G01*
X153603478Y-138998478D02*
G75*
G03*
X151765000Y-134560000I-1838478J1838478D01*
G01*
%TO.C,R8*%
X180245000Y-147855000D02*
X186785000Y-147855000D01*
X180245000Y-148185000D02*
X180245000Y-147855000D01*
X180245000Y-150265000D02*
X180245000Y-150595000D01*
X180245000Y-150595000D02*
X186785000Y-150595000D01*
X186785000Y-147855000D02*
X186785000Y-148185000D01*
X186785000Y-150595000D02*
X186785000Y-150265000D01*
%TO.C,R10*%
X151225000Y-144245000D02*
X144685000Y-144245000D01*
X151225000Y-143915000D02*
X151225000Y-144245000D01*
X151225000Y-141835000D02*
X151225000Y-141505000D01*
X151225000Y-141505000D02*
X144685000Y-141505000D01*
X144685000Y-144245000D02*
X144685000Y-143915000D01*
X144685000Y-141505000D02*
X144685000Y-141835000D01*
%TO.C,R11*%
X151225000Y-147420000D02*
X144685000Y-147420000D01*
X151225000Y-147090000D02*
X151225000Y-147420000D01*
X151225000Y-145010000D02*
X151225000Y-144680000D01*
X151225000Y-144680000D02*
X144685000Y-144680000D01*
X144685000Y-147420000D02*
X144685000Y-147090000D01*
X144685000Y-144680000D02*
X144685000Y-145010000D01*
%TO.C,J2*%
X139125000Y-125155000D02*
X137795000Y-125155000D01*
X139125000Y-123825000D02*
X139125000Y-125155000D01*
X139125000Y-122555000D02*
X139125000Y-74235000D01*
X139125000Y-122555000D02*
X136465000Y-122555000D01*
X139125000Y-74235000D02*
X136465000Y-74235000D01*
X136465000Y-122555000D02*
X136465000Y-74235000D01*
%TO.C,JP1*%
X126305000Y-119950000D02*
X127635000Y-119950000D01*
X126305000Y-121280000D02*
X126305000Y-119950000D01*
X126305000Y-122550000D02*
X126305000Y-125150000D01*
X126305000Y-122550000D02*
X128965000Y-122550000D01*
X126305000Y-125150000D02*
X128965000Y-125150000D01*
X128965000Y-122550000D02*
X128965000Y-125150000D01*
%TO.C,U2*%
X170070000Y-84395000D02*
X170070000Y-107375000D01*
X170070000Y-107375000D02*
X175370000Y-107375000D01*
X171720000Y-84395000D02*
X170070000Y-84395000D01*
X175370000Y-84395000D02*
X173720000Y-84395000D01*
X175370000Y-107375000D02*
X175370000Y-84395000D01*
X171720000Y-84395000D02*
G75*
G03*
X173720000Y-84395000I1000000J0D01*
G01*
%TO.C,R12*%
X154845000Y-141505000D02*
X161385000Y-141505000D01*
X154845000Y-141835000D02*
X154845000Y-141505000D01*
X154845000Y-143915000D02*
X154845000Y-144245000D01*
X154845000Y-144245000D02*
X161385000Y-144245000D01*
X161385000Y-141505000D02*
X161385000Y-141835000D01*
X161385000Y-144245000D02*
X161385000Y-143915000D01*
%TO.C,RN1*%
X128400000Y-76665000D02*
X125600000Y-76665000D01*
X125600000Y-76665000D02*
X125600000Y-99865000D01*
X128400000Y-79375000D02*
X125600000Y-79375000D01*
X128400000Y-99865000D02*
X128400000Y-76665000D01*
X125600000Y-99865000D02*
X128400000Y-99865000D01*
%TD*%
D16*
%TO.C,U1*%
X142875000Y-75505000D03*
D17*
X142875000Y-77285000D03*
X142875000Y-79065000D03*
X142875000Y-80845000D03*
X142875000Y-82625000D03*
X142875000Y-84405000D03*
X142875000Y-86185000D03*
X142875000Y-87965000D03*
X142875000Y-89745000D03*
X142875000Y-91525000D03*
X142875000Y-93305000D03*
X142875000Y-95085000D03*
X142875000Y-96865000D03*
X142875000Y-98645000D03*
X142875000Y-100425000D03*
X142875000Y-102205000D03*
X142875000Y-103985000D03*
X142875000Y-105765000D03*
X142875000Y-107545000D03*
X142875000Y-109325000D03*
X142875000Y-111105000D03*
X142875000Y-112885000D03*
X142875000Y-114665000D03*
X142875000Y-116445000D03*
X142875000Y-118225000D03*
X142875000Y-120005000D03*
X142875000Y-121785000D03*
X142875000Y-123565000D03*
X142875000Y-125345000D03*
X142875000Y-127125000D03*
X142875000Y-128905000D03*
X142875000Y-130685000D03*
X161975800Y-130685000D03*
X161975800Y-128905000D03*
X161975800Y-127125000D03*
X161975800Y-125345000D03*
X161975800Y-123565000D03*
X161975800Y-121785000D03*
X161975800Y-120005000D03*
X161975800Y-118225000D03*
X161975800Y-116445000D03*
X161975800Y-114665000D03*
X161975800Y-112885000D03*
X161975800Y-111105000D03*
X161975800Y-109325000D03*
X161975800Y-107545000D03*
X161975800Y-105765000D03*
X161975800Y-103985000D03*
X161975800Y-102205000D03*
X161975800Y-100425000D03*
X161975800Y-98645000D03*
X161975800Y-96865000D03*
X161975800Y-95085000D03*
X161975800Y-93305000D03*
X161975800Y-91525000D03*
X161975800Y-89745000D03*
X161975800Y-87965000D03*
X161975800Y-86185000D03*
X161975800Y-84405000D03*
X161975800Y-82625000D03*
X161975800Y-80845000D03*
X161975800Y-79065000D03*
X161975800Y-77285000D03*
X161975800Y-75505000D03*
%TD*%
M02*
