M48
; DRILL file {KiCad 7.0.7} date Wed Aug  7 00:19:31 2024
; FORMAT={-:-/ absolute / inch / decimal}
; #@! TF.CreationDate,2024-08-07T00:19:31-05:00
; #@! TF.GenerationSoftware,Kicad,Pcbnew,7.0.7
; #@! TF.FileFunction,Plated,1,2,PTH
FMAT,2
INCH
; #@! TA.AperFunction,Plated,PTH,ViaDrill
T1C0.0157
; #@! TA.AperFunction,Plated,PTH,ComponentDrill
T2C0.0276
; #@! TA.AperFunction,Plated,PTH,ComponentDrill
T3C0.0295
; #@! TA.AperFunction,Plated,PTH,ComponentDrill
T4C0.0315
; #@! TA.AperFunction,Plated,PTH,ComponentDrill
T5C0.0394
; #@! TA.AperFunction,Plated,PTH,ComponentDrill
T6C0.0591
%
G90
G05
T1
X4.9573Y-4.4966
X5.5564Y-5.2564
X5.682Y-5.3241
X5.6891Y-5.284
X5.9971Y-5.0089
X6.4358Y-3.629
X6.4532Y-5.1378
X6.5463Y-5.14
X6.5517Y-4.392
X6.5535Y-4.332
X6.7896Y-4.4656
X6.8182Y-4.9586
X6.8492Y-4.4507
X6.8669Y-4.2035
X6.8704Y-4.352
X7.0686Y-4.4425
T2
X5.625Y-2.9726
X5.625Y-3.0427
X5.625Y-3.1128
X5.625Y-3.1829
X5.625Y-3.253
X5.625Y-3.323
X5.625Y-3.3931
X5.625Y-3.4632
X5.625Y-3.5333
X5.625Y-3.6033
X5.625Y-3.6734
X5.625Y-3.7435
X5.625Y-3.8136
X5.625Y-3.8837
X5.625Y-3.9537
X5.625Y-4.0238
X5.625Y-4.0939
X5.625Y-4.164
X5.625Y-4.2341
X5.625Y-4.3041
X5.625Y-4.3742
X5.625Y-4.4443
X5.625Y-4.5144
X5.625Y-4.5844
X5.625Y-4.6545
X5.625Y-4.7246
X5.625Y-4.7947
X5.625Y-4.8648
X5.625Y-4.9348
X5.625Y-5.0049
X5.625Y-5.075
X5.625Y-5.1451
X6.377Y-2.9726
X6.377Y-3.0427
X6.377Y-3.1128
X6.377Y-3.1829
X6.377Y-3.253
X6.377Y-3.323
X6.377Y-3.3931
X6.377Y-3.4632
X6.377Y-3.5333
X6.377Y-3.6033
X6.377Y-3.6734
X6.377Y-3.7435
X6.377Y-3.8136
X6.377Y-3.8837
X6.377Y-3.9537
X6.377Y-4.0238
X6.377Y-4.0939
X6.377Y-4.164
X6.377Y-4.2341
X6.377Y-4.3041
X6.377Y-4.3742
X6.377Y-4.4443
X6.377Y-4.5144
X6.377Y-4.5844
X6.377Y-4.6545
X6.377Y-4.7246
X6.377Y-4.7947
X6.377Y-4.8648
X6.377Y-4.9348
X6.377Y-5.0049
X6.377Y-5.075
X6.377Y-5.1451
T3
X5.675Y-5.4
X5.725Y-5.4
X5.775Y-5.4
X5.925Y-5.4
X5.975Y-5.4
X6.025Y-5.4
X6.175Y-5.4
X6.225Y-5.4
X6.275Y-5.4
X6.425Y-5.4
X6.475Y-5.4
X6.525Y-5.4
T4
X5.0Y-3.075
X5.0Y-3.175
X5.0Y-3.275
X5.0Y-3.375
X5.0Y-3.475
X5.0Y-3.575
X5.0Y-3.675
X5.0Y-3.775
X5.0Y-3.875
X5.25Y-3.075
X5.25Y-3.175
X5.25Y-3.275
X5.25Y-3.375
X5.25Y-3.475
X5.25Y-3.575
X5.25Y-3.675
X5.25Y-3.775
X5.25Y-3.875
X5.675Y-5.625
X5.675Y-5.75
X5.975Y-5.625
X5.975Y-5.75
X6.075Y-5.625
X6.075Y-5.75
X6.375Y-5.625
X6.375Y-5.75
X6.5Y-3.0766
X6.5Y-3.2734
X6.5Y-3.375
X6.5Y-3.675
X6.5Y-3.775
X6.5Y-4.075
X6.5Y-4.175
X6.5Y-4.475
X6.5Y-4.575
X6.5Y-4.875
X6.5Y-4.975
X6.5Y-5.1719
X6.575Y-5.675
X6.575Y-5.875
X6.65Y-3.375
X6.65Y-3.475
X6.65Y-3.575
X6.65Y-3.675
X6.65Y-3.775
X6.65Y-3.875
X6.65Y-3.975
X6.65Y-4.075
X6.65Y-4.175
X6.6516Y-4.5
X6.6516Y-4.6
X6.6516Y-4.7
X6.6516Y-4.8
X6.6516Y-4.9
X6.6516Y-5.0
X6.6516Y-5.1
X6.6516Y-5.2
X6.6516Y-5.3
X6.7Y-4.3
X6.7031Y-5.425
X6.7484Y-3.075
X6.875Y-5.675
X6.875Y-5.875
X6.8969Y-4.3
X6.9Y-5.425
X6.9406Y-3.075
X6.95Y-3.375
X6.95Y-3.475
X6.95Y-3.575
X6.95Y-3.675
X6.95Y-3.775
X6.95Y-3.875
X6.95Y-3.975
X6.95Y-4.075
X6.95Y-4.175
X6.9516Y-4.5
X6.9516Y-4.6
X6.9516Y-4.7
X6.9516Y-4.8
X6.9516Y-4.9
X6.9516Y-5.0
X6.9516Y-5.1
X6.9516Y-5.2
X6.9516Y-5.3
X7.075Y-3.375
X7.075Y-3.475
X7.075Y-3.575
X7.075Y-3.675
X7.075Y-3.775
X7.075Y-3.875
X7.075Y-3.975
X7.075Y-4.075
X7.075Y-4.175
X7.075Y-5.675
X7.075Y-5.875
X7.0766Y-4.5
X7.0766Y-4.6
X7.0766Y-4.7
X7.0766Y-4.8
X7.0766Y-4.9
X7.0766Y-5.0
X7.0766Y-5.1
X7.0766Y-5.2
X7.0766Y-5.3
X7.125Y-3.025
X7.125Y-3.15
X7.1266Y-4.3
X7.1281Y-5.425
X7.3219Y-3.025
X7.3219Y-3.15
X7.3234Y-4.3
X7.325Y-5.425
X7.375Y-3.375
X7.375Y-3.475
X7.375Y-3.575
X7.375Y-3.675
X7.375Y-3.775
X7.375Y-3.875
X7.375Y-3.975
X7.375Y-4.075
X7.375Y-4.175
X7.375Y-5.675
X7.375Y-5.875
X7.3766Y-4.5
X7.3766Y-4.6
X7.3766Y-4.7
X7.3766Y-4.8
X7.3766Y-4.9
X7.3766Y-5.0
X7.3766Y-5.1
X7.3766Y-5.2
X7.3766Y-5.3
T5
X4.825Y-2.975
X4.825Y-3.075
X4.825Y-3.175
X4.825Y-3.275
X4.825Y-3.375
X4.825Y-3.475
X4.825Y-3.575
X4.825Y-3.675
X4.825Y-3.775
X4.825Y-3.875
X4.825Y-3.975
X4.825Y-4.075
X4.825Y-4.175
X4.825Y-4.275
X4.825Y-4.375
X4.825Y-4.475
X4.825Y-4.575
X4.825Y-4.675
X4.825Y-4.775
X4.825Y-4.875
X5.025Y-4.7748
X5.025Y-4.8748
X5.425Y-2.975
X5.425Y-3.075
X5.425Y-3.175
X5.425Y-3.275
X5.425Y-3.375
X5.425Y-3.475
X5.425Y-3.575
X5.425Y-3.675
X5.425Y-3.775
X5.425Y-3.875
X5.425Y-3.975
X5.425Y-4.075
X5.425Y-4.175
X5.425Y-4.275
X5.425Y-4.375
X5.425Y-4.475
X5.425Y-4.575
X5.425Y-4.675
X5.425Y-4.775
X5.425Y-4.875
X5.825Y-5.9
X5.925Y-5.9
X6.025Y-5.9
X6.125Y-5.9
X6.225Y-5.9
T6
X4.8329Y-5.4313
X4.9313Y-5.3329
X4.9313Y-5.825
X5.1281Y-5.2344
X5.1281Y-5.4313
X5.325Y-5.3329
X5.325Y-5.825
X5.4234Y-5.4313
T0
M30
