%TF.GenerationSoftware,KiCad,Pcbnew,7.0.7*%
%TF.CreationDate,2024-08-07T00:19:30-05:00*%
%TF.ProjectId,TMS2V,544d5332-562e-46b6-9963-61645f706362,rev?*%
%TF.SameCoordinates,Original*%
%TF.FileFunction,Soldermask,Bot*%
%TF.FilePolarity,Negative*%
%FSLAX46Y46*%
G04 Gerber Fmt 4.6, Leading zero omitted, Abs format (unit mm)*
G04 Created by KiCad (PCBNEW 7.0.7) date 2024-08-07 00:19:30*
%MOMM*%
%LPD*%
G01*
G04 APERTURE LIST*
%ADD10R,1.700000X1.200000*%
%ADD11O,1.700000X1.200000*%
%ADD12C,1.600000*%
%ADD13O,1.600000X1.600000*%
%ADD14R,1.050000X1.500000*%
%ADD15O,1.050000X1.500000*%
%ADD16R,1.600000X1.600000*%
%ADD17C,2.250000*%
%ADD18C,1.500000*%
%ADD19R,1.700000X1.700000*%
%ADD20O,1.700000X1.700000*%
G04 APERTURE END LIST*
D10*
%TO.C,U1*%
X142875000Y-75505000D03*
D11*
X142875000Y-77285000D03*
X142875000Y-79065000D03*
X142875000Y-80845000D03*
X142875000Y-82625000D03*
X142875000Y-84405000D03*
X142875000Y-86185000D03*
X142875000Y-87965000D03*
X142875000Y-89745000D03*
X142875000Y-91525000D03*
X142875000Y-93305000D03*
X142875000Y-95085000D03*
X142875000Y-96865000D03*
X142875000Y-98645000D03*
X142875000Y-100425000D03*
X142875000Y-102205000D03*
X142875000Y-103985000D03*
X142875000Y-105765000D03*
X142875000Y-107545000D03*
X142875000Y-109325000D03*
X142875000Y-111105000D03*
X142875000Y-112885000D03*
X142875000Y-114665000D03*
X142875000Y-116445000D03*
X142875000Y-118225000D03*
X142875000Y-120005000D03*
X142875000Y-121785000D03*
X142875000Y-123565000D03*
X142875000Y-125345000D03*
X142875000Y-127125000D03*
X142875000Y-128905000D03*
X142875000Y-130685000D03*
X161975800Y-130685000D03*
X161975800Y-128905000D03*
X161975800Y-127125000D03*
X161975800Y-125345000D03*
X161975800Y-123565000D03*
X161975800Y-121785000D03*
X161975800Y-120005000D03*
X161975800Y-118225000D03*
X161975800Y-116445000D03*
X161975800Y-114665000D03*
X161975800Y-112885000D03*
X161975800Y-111105000D03*
X161975800Y-109325000D03*
X161975800Y-107545000D03*
X161975800Y-105765000D03*
X161975800Y-103985000D03*
X161975800Y-102205000D03*
X161975800Y-100425000D03*
X161975800Y-98645000D03*
X161975800Y-96865000D03*
X161975800Y-95085000D03*
X161975800Y-93305000D03*
X161975800Y-91525000D03*
X161975800Y-89745000D03*
X161975800Y-87965000D03*
X161975800Y-86185000D03*
X161975800Y-84405000D03*
X161975800Y-82625000D03*
X161975800Y-80845000D03*
X161975800Y-79065000D03*
X161975800Y-77285000D03*
X161975800Y-75505000D03*
%TD*%
D12*
%TO.C,C7*%
X170260000Y-137795000D03*
X175260000Y-137795000D03*
%TD*%
%TO.C,C1*%
X165100000Y-131365000D03*
X165100000Y-126365000D03*
%TD*%
%TO.C,C6*%
X181015000Y-109220000D03*
X186015000Y-109220000D03*
%TD*%
%TO.C,R5*%
X167005000Y-144145000D03*
D13*
X174625000Y-144145000D03*
%TD*%
D14*
%TO.C,Q4*%
X163195000Y-137160000D03*
D15*
X164465000Y-137160000D03*
X165735000Y-137160000D03*
%TD*%
D12*
%TO.C,C5*%
X170180000Y-109220000D03*
X175180000Y-109220000D03*
%TD*%
D13*
%TO.C,U5*%
X187365000Y-114300000D03*
X187365000Y-116840000D03*
X187365000Y-119380000D03*
X187365000Y-121920000D03*
X187365000Y-124460000D03*
X187365000Y-127000000D03*
X187365000Y-129540000D03*
X187365000Y-132080000D03*
X187365000Y-134620000D03*
X179745000Y-134620000D03*
X179745000Y-132080000D03*
X179745000Y-129540000D03*
X179745000Y-127000000D03*
X179745000Y-124460000D03*
X179745000Y-121920000D03*
X179745000Y-119380000D03*
X179745000Y-116840000D03*
D16*
X179745000Y-114300000D03*
%TD*%
D17*
%TO.C,J3*%
X125255000Y-147955000D03*
X135255000Y-147955000D03*
X137755000Y-137955000D03*
X135255000Y-135455000D03*
X130255000Y-137955000D03*
X125255000Y-135455000D03*
X122755000Y-137955000D03*
X130255000Y-132955000D03*
%TD*%
D14*
%TO.C,Q1*%
X144145000Y-137160000D03*
D15*
X145415000Y-137160000D03*
X146685000Y-137160000D03*
%TD*%
D13*
%TO.C,R9*%
X161925000Y-146050000D03*
D12*
X154305000Y-146050000D03*
%TD*%
D18*
%TO.C,Y1*%
X176290000Y-78105000D03*
X171410000Y-78105000D03*
%TD*%
D12*
%TO.C,R1*%
X165100000Y-95885000D03*
D13*
X165100000Y-103505000D03*
%TD*%
D19*
%TO.C,J1*%
X122555000Y-75565000D03*
D20*
X122555000Y-78105000D03*
X122555000Y-80645000D03*
X122555000Y-83185000D03*
X122555000Y-85725000D03*
X122555000Y-88265000D03*
X122555000Y-90805000D03*
X122555000Y-93345000D03*
X122555000Y-95885000D03*
X122555000Y-98425000D03*
X122555000Y-100965000D03*
X122555000Y-103505000D03*
X122555000Y-106045000D03*
X122555000Y-108585000D03*
X122555000Y-111125000D03*
X122555000Y-113665000D03*
X122555000Y-116205000D03*
X122555000Y-118745000D03*
X122555000Y-121285000D03*
X122555000Y-123825000D03*
%TD*%
D13*
%TO.C,R3*%
X165100000Y-106045000D03*
D12*
X165100000Y-113665000D03*
%TD*%
D13*
%TO.C,RN2*%
X133350000Y-98425000D03*
X133350000Y-95885000D03*
X133350000Y-93345000D03*
X133350000Y-90805000D03*
X133350000Y-88265000D03*
X133350000Y-85725000D03*
X133350000Y-83185000D03*
X133350000Y-80645000D03*
D16*
X133350000Y-78105000D03*
%TD*%
D12*
%TO.C,C3*%
X185975000Y-80010000D03*
X180975000Y-80010000D03*
%TD*%
%TO.C,R7*%
X179705000Y-144145000D03*
D13*
X187325000Y-144145000D03*
%TD*%
D19*
%TO.C,J4*%
X147955000Y-149860000D03*
D20*
X150495000Y-149860000D03*
X153035000Y-149860000D03*
X155575000Y-149860000D03*
X158115000Y-149860000D03*
%TD*%
D12*
%TO.C,R6*%
X167005000Y-149225000D03*
D13*
X174625000Y-149225000D03*
%TD*%
D14*
%TO.C,Q3*%
X156845000Y-137160000D03*
D15*
X158115000Y-137160000D03*
X159385000Y-137160000D03*
%TD*%
D12*
%TO.C,C8*%
X181055000Y-137795000D03*
X186055000Y-137795000D03*
%TD*%
%TO.C,C4*%
X165100000Y-83145000D03*
X165100000Y-78145000D03*
%TD*%
%TO.C,C2*%
X185975000Y-76835000D03*
X180975000Y-76835000D03*
%TD*%
%TO.C,R4*%
X165100000Y-123825000D03*
D13*
X165100000Y-116205000D03*
%TD*%
%TO.C,U3*%
X187325000Y-85725000D03*
X187325000Y-88265000D03*
X187325000Y-90805000D03*
X187325000Y-93345000D03*
X187325000Y-95885000D03*
X187325000Y-98425000D03*
X187325000Y-100965000D03*
X187325000Y-103505000D03*
X187325000Y-106045000D03*
X179705000Y-106045000D03*
X179705000Y-103505000D03*
X179705000Y-100965000D03*
X179705000Y-98425000D03*
X179705000Y-95885000D03*
X179705000Y-93345000D03*
X179705000Y-90805000D03*
X179705000Y-88265000D03*
D16*
X179705000Y-85725000D03*
%TD*%
D13*
%TO.C,U4*%
X176570000Y-114300000D03*
X176570000Y-116840000D03*
X176570000Y-119380000D03*
X176570000Y-121920000D03*
X176570000Y-124460000D03*
X176570000Y-127000000D03*
X176570000Y-129540000D03*
X176570000Y-132080000D03*
X176570000Y-134620000D03*
X168950000Y-134620000D03*
X168950000Y-132080000D03*
X168950000Y-129540000D03*
X168950000Y-127000000D03*
X168950000Y-124460000D03*
X168950000Y-121920000D03*
X168950000Y-119380000D03*
X168950000Y-116840000D03*
D16*
X168950000Y-114300000D03*
%TD*%
D13*
%TO.C,R2*%
X165100000Y-93345000D03*
D12*
X165100000Y-85725000D03*
%TD*%
D14*
%TO.C,Q2*%
X150495000Y-137160000D03*
D15*
X151765000Y-137160000D03*
X153035000Y-137160000D03*
%TD*%
D12*
%TO.C,R8*%
X179705000Y-149225000D03*
D13*
X187325000Y-149225000D03*
%TD*%
D12*
%TO.C,R10*%
X151765000Y-142875000D03*
D13*
X144145000Y-142875000D03*
%TD*%
D12*
%TO.C,R11*%
X151765000Y-146050000D03*
D13*
X144145000Y-146050000D03*
%TD*%
D19*
%TO.C,J2*%
X137795000Y-123825000D03*
D20*
X137795000Y-121285000D03*
X137795000Y-118745000D03*
X137795000Y-116205000D03*
X137795000Y-113665000D03*
X137795000Y-111125000D03*
X137795000Y-108585000D03*
X137795000Y-106045000D03*
X137795000Y-103505000D03*
X137795000Y-100965000D03*
X137795000Y-98425000D03*
X137795000Y-95885000D03*
X137795000Y-93345000D03*
X137795000Y-90805000D03*
X137795000Y-88265000D03*
X137795000Y-85725000D03*
X137795000Y-83185000D03*
X137795000Y-80645000D03*
X137795000Y-78105000D03*
X137795000Y-75565000D03*
%TD*%
D19*
%TO.C,JP1*%
X127635000Y-121280000D03*
D20*
X127635000Y-123820000D03*
%TD*%
D16*
%TO.C,U2*%
X168910000Y-85725000D03*
D13*
X168910000Y-88265000D03*
X168910000Y-90805000D03*
X168910000Y-93345000D03*
X168910000Y-95885000D03*
X168910000Y-98425000D03*
X168910000Y-100965000D03*
X168910000Y-103505000D03*
X168910000Y-106045000D03*
X176530000Y-106045000D03*
X176530000Y-103505000D03*
X176530000Y-100965000D03*
X176530000Y-98425000D03*
X176530000Y-95885000D03*
X176530000Y-93345000D03*
X176530000Y-90805000D03*
X176530000Y-88265000D03*
X176530000Y-85725000D03*
%TD*%
D12*
%TO.C,R12*%
X154305000Y-142875000D03*
D13*
X161925000Y-142875000D03*
%TD*%
D16*
%TO.C,RN1*%
X127000000Y-78105000D03*
D13*
X127000000Y-80645000D03*
X127000000Y-83185000D03*
X127000000Y-85725000D03*
X127000000Y-88265000D03*
X127000000Y-90805000D03*
X127000000Y-93345000D03*
X127000000Y-95885000D03*
X127000000Y-98425000D03*
%TD*%
M02*
